<svg width="60" height="60" viewBox="0 0 60 60" fill="none" xmlns="http://www.w3.org/2000/svg">
<path d="M39.375 52.5C39.375 52.9972 39.1775 53.4742 38.8259 53.8258C38.4742 54.1774 37.9973 54.375 37.5 54.375H22.5C22.0028 54.375 21.5259 54.1774 21.1742 53.8258C20.8226 53.4742 20.625 52.9972 20.625 52.5C20.625 52.0027 20.8226 51.5258 21.1742 51.1741C21.5259 50.8225 22.0028 50.625 22.5 50.625H37.5C37.9973 50.625 38.4742 50.8225 38.8259 51.1741C39.1775 51.5258 39.375 52.0027 39.375 52.5ZM53.2946 14.1375C51.1872 10.0187 48.023 6.53409 44.1258 4.0406C43.9176 3.90759 43.6851 3.81704 43.4418 3.77417C43.1985 3.7313 42.9491 3.73694 42.7079 3.79078C42.4668 3.84462 42.2386 3.94558 42.0366 4.08788C41.8347 4.23017 41.6628 4.41099 41.5309 4.61993C41.399 4.82887 41.3097 5.06182 41.2682 5.30538C41.2266 5.54895 41.2336 5.79832 41.2887 6.03917C41.3439 6.28002 41.4461 6.5076 41.5895 6.70882C41.7329 6.91004 41.9146 7.08094 42.1243 7.21169C45.4678 9.33864 48.1768 12.3269 49.9665 15.8625C50.203 16.2898 50.5969 16.608 51.0644 16.7494C51.5319 16.8907 52.0362 16.844 52.4698 16.6193C52.9034 16.3945 53.2323 16.0094 53.3863 15.5459C53.5403 15.0824 53.5074 14.5771 53.2946 14.1375ZM8.36958 16.875C8.71308 16.8748 9.04995 16.7803 9.3434 16.6018C9.63686 16.4232 9.87563 16.1675 10.0336 15.8625C11.8233 12.3269 14.5323 9.33864 17.8758 7.21169C18.0855 7.08094 18.2672 6.91004 18.4106 6.70882C18.554 6.5076 18.6562 6.28002 18.7113 6.03917C18.7665 5.79832 18.7735 5.54895 18.7319 5.30538C18.6904 5.06182 18.6011 4.82887 18.4692 4.61993C18.3373 4.41099 18.1654 4.23017 17.9634 4.08788C17.7614 3.94558 17.5333 3.84462 17.2922 3.79078C17.051 3.73694 16.8016 3.7313 16.5583 3.77417C16.315 3.81704 16.0825 3.90759 15.8743 4.0406C11.9771 6.53409 8.81284 10.0187 6.70551 14.1375C6.55748 14.4232 6.48548 14.7423 6.49645 15.0639C6.50742 15.3855 6.60099 15.6989 6.76816 15.9739C6.93532 16.2489 7.17045 16.4763 7.45092 16.6341C7.73139 16.7919 8.04776 16.8748 8.36958 16.875ZM51.9868 41.2359C52.3189 41.8055 52.495 42.4527 52.4973 43.1121C52.4996 43.7715 52.3279 44.4198 51.9997 44.9917C51.6714 45.5636 51.1981 46.0389 50.6276 46.3695C50.0571 46.7001 49.4095 46.8745 48.75 46.875H11.25C10.591 46.8737 9.944 46.6987 9.37412 46.3678C8.80425 46.0368 8.33165 45.5615 8.00395 44.9897C7.67624 44.418 7.505 43.7699 7.50747 43.1109C7.50994 42.4519 7.68603 41.8052 8.01801 41.2359C10.1297 37.5914 11.25 32.4093 11.25 26.25C11.25 21.2772 13.2255 16.508 16.7418 12.9917C20.2581 9.47541 25.0272 7.49997 30 7.49997C34.9729 7.49997 39.742 9.47541 43.2583 12.9917C46.7746 16.508 48.75 21.2772 48.75 26.25C48.75 32.407 49.8704 37.589 51.9868 41.2359ZM48.75 43.125C46.2563 38.8429 45 33.1664 45 26.25C45 22.2717 43.4197 18.4564 40.6066 15.6434C37.7936 12.8303 33.9783 11.25 30 11.25C26.0218 11.25 22.2065 12.8303 19.3934 15.6434C16.5804 18.4564 15 22.2717 15 26.25C15 33.1687 13.7391 38.8453 11.25 43.125H48.75Z" fill="#C6007E"/>
</svg>
