<svg width="33" height="32" viewBox="0 0 33 32" fill="none" xmlns="http://www.w3.org/2000/svg">
<path d="M21.4576 27.9999C21.4576 28.2652 21.3523 28.5195 21.1648 28.7071C20.9772 28.8946 20.7229 28.9999 20.4576 28.9999H12.4576C12.1924 28.9999 11.9381 28.8946 11.7505 28.7071C11.563 28.5195 11.4576 28.2652 11.4576 27.9999C11.4576 27.7347 11.563 27.4804 11.7505 27.2928C11.9381 27.1053 12.1924 26.9999 12.4576 26.9999H20.4576C20.7229 26.9999 20.9772 27.1053 21.1648 27.2928C21.3523 27.4804 21.4576 27.7347 21.4576 27.9999ZM28.8814 7.53994C27.7575 5.34326 26.0699 3.48481 23.9914 2.15494C23.8803 2.08401 23.7564 2.03572 23.6266 2.01285C23.4968 1.98998 23.3638 1.99299 23.2352 2.02171C23.1066 2.05042 22.9849 2.10427 22.8772 2.18016C22.7694 2.25605 22.6778 2.35249 22.6074 2.46392C22.5371 2.57536 22.4895 2.6996 22.4673 2.8295C22.4451 2.9594 22.4489 3.0924 22.4783 3.22085C22.5077 3.34931 22.5622 3.47068 22.6387 3.578C22.7152 3.68532 22.8121 3.77646 22.9239 3.84619C24.7071 4.98057 26.1519 6.57431 27.1064 8.45994C27.2325 8.68786 27.4426 8.85757 27.692 8.93295C27.9413 9.00833 28.2102 8.98343 28.4415 8.86356C28.6728 8.74369 28.8482 8.5383 28.9303 8.2911C29.0125 8.0439 28.9949 7.7744 28.8814 7.53994ZM4.9214 8.99994C5.1046 8.99987 5.28426 8.94946 5.44077 8.85424C5.59728 8.75901 5.72462 8.62261 5.8089 8.45994C6.7634 6.57431 8.20817 4.98057 9.99139 3.84619C10.1032 3.77646 10.2001 3.68532 10.2766 3.578C10.3531 3.47068 10.4076 3.34931 10.437 3.22085C10.4664 3.0924 10.4701 2.9594 10.448 2.8295C10.4258 2.6996 10.3782 2.57536 10.3079 2.46392C10.2375 2.35249 10.1459 2.25605 10.0381 2.18016C9.93039 2.10427 9.80872 2.05042 9.68011 2.02171C9.5515 1.99299 9.41849 1.98998 9.28871 2.01285C9.15893 2.03572 9.03495 2.08401 8.9239 2.15494C6.84542 3.48481 5.1578 5.34326 4.0339 7.53994C3.95494 7.69234 3.91654 7.8625 3.9224 8.03404C3.92825 8.20557 3.97815 8.37272 4.0673 8.51938C4.15646 8.66605 4.28186 8.78729 4.43145 8.87146C4.58103 8.95562 4.74976 8.99987 4.9214 8.99994ZM28.1839 21.9924C28.3611 22.2962 28.455 22.6414 28.4562 22.9931C28.4574 23.3448 28.3658 23.6905 28.1908 23.9956C28.0157 24.3006 27.7633 24.554 27.459 24.7304C27.1547 24.9067 26.8093 24.9997 26.4576 24.9999H6.45765C6.10617 24.9993 5.76109 24.9059 5.45715 24.7294C5.15322 24.5529 4.90117 24.2994 4.72639 23.9945C4.55162 23.6895 4.46029 23.3439 4.46161 22.9925C4.46292 22.641 4.55684 22.2961 4.7339 21.9924C5.86015 20.0487 6.45765 17.2849 6.45765 13.9999C6.45765 11.3478 7.51121 8.80424 9.38658 6.92888C11.2619 5.05351 13.8055 3.99994 16.4576 3.99994C19.1098 3.99994 21.6533 5.05351 23.5287 6.92888C25.4041 8.80424 26.4576 11.3478 26.4576 13.9999C26.4576 17.2837 27.0551 20.0474 28.1839 21.9924ZM26.4576 22.9999C25.1276 20.7162 24.4576 17.6887 24.4576 13.9999C24.4576 11.8782 23.6148 9.84338 22.1145 8.34309C20.6142 6.8428 18.5794 5.99994 16.4576 5.99994C14.3359 5.99994 12.3011 6.8428 10.8008 8.34309C9.3005 9.84338 8.45765 11.8782 8.45765 13.9999C8.45765 17.6899 7.78515 20.7174 6.45765 22.9999H26.4576Z" fill="#646464"/>
</svg>
