<svg width="60" height="61" viewBox="0 0 60 61" fill="none" xmlns="http://www.w3.org/2000/svg">
<path d="M39.3748 52.7284C39.3748 53.2256 39.1773 53.7026 38.8256 54.0542C38.474 54.4058 37.9971 54.6034 37.4998 54.6034H22.4998C22.0025 54.6034 21.5256 54.4058 21.174 54.0542C20.8223 53.7026 20.6248 53.2256 20.6248 52.7284C20.6248 52.2311 20.8223 51.7542 21.174 51.4025C21.5256 51.0509 22.0025 50.8534 22.4998 50.8534H37.4998C37.9971 50.8534 38.474 51.0509 38.8256 51.4025C39.1773 51.7542 39.3748 52.2311 39.3748 52.7284ZM53.2943 14.3659C51.187 10.2471 48.0227 6.76249 44.1256 4.26899C43.9174 4.13598 43.6849 4.04544 43.4416 4.00256C43.1982 3.95969 42.9488 3.96533 42.7077 4.01917C42.4665 4.07301 42.2384 4.17398 42.0364 4.31627C41.8344 4.45857 41.6625 4.63938 41.5307 4.84832C41.3988 5.05727 41.3095 5.29022 41.2679 5.53378C41.2264 5.77734 41.2334 6.02672 41.2885 6.26757C41.3436 6.50842 41.4459 6.73599 41.5892 6.93722C41.7326 7.13844 41.9144 7.30934 42.124 7.44008C45.4676 9.56704 48.1765 12.5553 49.9662 16.0909C50.2027 16.5182 50.5966 16.8364 51.0642 16.9777C51.5317 17.1191 52.0359 17.0724 52.4696 16.8476C52.9032 16.6229 53.232 16.2378 53.3861 15.7743C53.5401 15.3108 53.5072 14.8055 53.2943 14.3659ZM8.36933 17.1034C8.71284 17.1032 9.04971 17.0087 9.34316 16.8302C9.63662 16.6516 9.87538 16.3959 10.0334 16.0909C11.8231 12.5553 14.532 9.56704 17.8756 7.44008C18.0852 7.30934 18.267 7.13844 18.4104 6.93722C18.5538 6.73599 18.656 6.50842 18.7111 6.26757C18.7662 6.02672 18.7732 5.77734 18.7317 5.53378C18.6901 5.29022 18.6008 5.05727 18.469 4.84832C18.3371 4.63938 18.1652 4.45857 17.9632 4.31627C17.7612 4.17398 17.5331 4.07301 17.2919 4.01917C17.0508 3.96533 16.8014 3.95969 16.558 4.00256C16.3147 4.04544 16.0822 4.13598 15.874 4.26899C11.9769 6.76249 8.8126 10.2471 6.70527 14.3659C6.55723 14.6516 6.48524 14.9707 6.49621 15.2923C6.50718 15.6139 6.60075 15.9273 6.76791 16.2023C6.93508 16.4773 7.17021 16.7046 7.45068 16.8625C7.73115 17.0203 8.04751 17.1032 8.36933 17.1034ZM51.9865 41.4643C52.3187 42.0339 52.4948 42.6811 52.4971 43.3405C52.4993 43.9999 52.3277 44.6482 51.9994 45.2201C51.6712 45.792 51.1979 46.2673 50.6274 46.5979C50.0568 46.9285 49.4092 47.1029 48.7498 47.1034H11.2498C10.5908 47.1021 9.94376 46.9271 9.37388 46.5961C8.804 46.2652 8.33141 45.7899 8.0037 45.2181C7.676 44.6464 7.50476 43.9983 7.50723 43.3393C7.5097 42.6803 7.68579 42.0336 8.01777 41.4643C10.1295 37.8198 11.2498 32.6377 11.2498 26.4784C11.2498 21.5056 13.2252 16.7364 16.7415 13.2201C20.2579 9.70381 25.027 7.72837 29.9998 7.72837C34.9726 7.72837 39.7417 9.70381 43.2581 13.2201C46.7744 16.7364 48.7498 21.5056 48.7498 26.4784C48.7498 32.6354 49.8701 37.8174 51.9865 41.4643ZM48.7498 43.3534C46.2561 39.0713 44.9998 33.3948 44.9998 26.4784C44.9998 22.5001 43.4194 18.6848 40.6064 15.8718C37.7934 13.0587 33.978 11.4784 29.9998 11.4784C26.0216 11.4784 22.2062 13.0587 19.3932 15.8718C16.5802 18.6848 14.9998 22.5001 14.9998 26.4784C14.9998 33.3971 13.7389 39.0737 11.2498 43.3534H48.7498Z" fill="#C6007E"/>
</svg>
