<svg width="964" height="122" viewBox="0 0 964 122" fill="none" xmlns="http://www.w3.org/2000/svg">
<rect y="30" width="62" height="62" rx="30" fill="#D8D8D8"/>
<path fill-rule="evenodd" clip-rule="evenodd" d="M18.336 61C18.3322 62.6396 18.2591 64.8758 19.2734 65.7117C20.2195 66.4914 20.8854 66.2905 22.6128 66.4173C24.3413 66.5453 27.9894 71.6265 30.8018 70.0193C32.2526 68.8784 32.3605 66.4867 32.3605 61C32.3605 55.5134 32.2526 53.1216 30.8018 51.9808C27.9894 50.3723 24.3413 55.4548 22.6128 55.5827C20.8854 55.7095 20.2195 55.5086 19.2734 56.2883C18.2591 57.1242 18.3322 59.3605 18.336 61Z" fill="white"/>
<path fill-rule="evenodd" clip-rule="evenodd" d="M40.5423 52.0503C40.9959 51.7352 41.619 51.8475 41.9341 52.3011C45.5718 57.5379 45.5843 64.4497 41.9337 69.6981C41.6183 70.1515 40.9951 70.2634 40.5418 69.948C40.0884 69.6326 39.9765 69.0094 40.2918 68.556C43.4637 63.9959 43.4539 57.9947 40.2915 53.4421C39.9764 52.9885 40.0887 52.3654 40.5423 52.0503Z" fill="white"/>
<path fill-rule="evenodd" clip-rule="evenodd" d="M37.2786 55.2178C37.7579 54.9434 38.3688 55.1096 38.6432 55.5889C40.5675 58.9504 40.5683 63.059 38.6425 66.4125C38.3675 66.8914 37.7563 67.0567 37.2774 66.7817C36.7984 66.5067 36.6331 65.8955 36.9082 65.4165C38.4792 62.6807 38.48 59.3295 36.9075 56.5825C36.6331 56.1032 36.7992 55.4922 37.2786 55.2178Z" fill="white"/>
<rect x="277" y="30" width="62" height="62" rx="30" fill="#D8D8D8"/>
<path fill-rule="evenodd" clip-rule="evenodd" d="M295 54C295 51.7909 296.791 50 299 50H317C319.209 50 321 51.7909 321 54V68C321 70.2091 319.209 72 317 72H299C296.791 72 295 70.2091 295 68V54ZM308.133 54.0088C308.313 54.0328 308.488 54.1059 308.636 54.2281L314.303 58.8947C314.729 59.2458 314.79 59.876 314.439 60.3024C314.088 60.7287 313.458 60.7897 313.032 60.4386L309 57.1184V66.3333C309 66.8856 308.552 67.3333 308 67.3333C307.448 67.3333 307 66.8856 307 66.3333V57.1195L302.97 60.4386C302.543 60.7897 301.913 60.7287 301.562 60.3024C301.211 59.876 301.272 59.2458 301.698 58.8947L307.342 54.247C307.518 54.0932 307.748 54 308 54C308 54 308 54 308 54C308.044 54 308.089 54.0029 308.133 54.0088Z" fill="white"/>
<rect x="359" y="30" width="62" height="62" rx="30" fill="#D8D8D8"/>
<path d="M400.042 58.1011C399.329 58.1011 398.75 58.6712 398.75 59.3766C398.75 64.1407 394.825 68.0171 390 68.0171C385.175 68.0171 381.25 64.1407 381.25 59.3766C381.25 58.6712 380.671 58.1011 379.958 58.1011C379.245 58.1011 378.667 58.6712 378.667 59.3766C378.667 65.1165 383.066 69.8551 388.709 70.4916V73.058C388.709 73.7621 389.286 74.3335 390 74.3335C390.713 74.3335 391.292 73.7621 391.292 73.058V70.4916C396.934 69.8551 401.333 65.1165 401.333 59.3766C401.333 58.6712 400.755 58.1011 400.042 58.1011Z" fill="white"/>
<path d="M389.766 65.2893H390.234C393.437 65.2893 396.036 62.7242 396.036 59.5608V53.3962C396.036 50.2303 393.437 47.6665 390.234 47.6665H389.766C386.563 47.6665 383.964 50.2303 383.964 53.3962V59.5608C383.964 62.7242 386.563 65.2893 389.766 65.2893Z" fill="white"/>
<rect x="441" y="20" width="82" height="82" rx="41" fill="#C60000"/>
<path fill-rule="evenodd" clip-rule="evenodd" d="M481.995 60.0478C473.925 60.0489 477.677 65.6313 472.54 65.6331C467.587 65.6338 465.667 66.5613 465.668 60.2856C465.745 59.5766 464.442 53.2783 481.994 53.2759C499.549 53.2734 498.251 59.5721 498.328 60.2811C498.328 66.5731 496.408 65.6287 491.455 65.6294C486.317 65.6301 490.064 60.0466 481.995 60.0478Z" fill="white"/>
<rect x="543" y="30" width="62" height="62" rx="30" fill="#D8D8D8"/>
<path d="M586.441 54.9231C585.883 54.5711 585.196 54.54 584.611 54.8378L582.635 55.8354C581.904 56.2036 581.45 56.9481 581.45 57.7765V65.5546C581.45 66.383 581.904 67.1261 582.635 67.497L584.609 68.4933C584.877 68.6314 585.164 68.6977 585.451 68.6977C585.795 68.6977 586.136 68.6002 586.441 68.4094C587 68.0588 587.333 67.451 587.333 66.785V56.5488C587.333 55.8828 587 55.275 586.441 54.9231Z" fill="white"/>
<path d="M573.873 71.6665H566.151C562.921 71.6665 560.667 69.4398 560.667 66.252V57.0811C560.667 53.8919 562.921 51.6665 566.151 51.6665H573.873C577.103 51.6665 579.357 53.8919 579.357 57.0811V66.252C579.357 69.4398 577.103 71.6665 573.873 71.6665Z" fill="white"/>
<rect x="625" y="30" width="62" height="62" rx="30" fill="#D8D8D8"/>
<path fill-rule="evenodd" clip-rule="evenodd" d="M666.912 53.7244L667.742 55.1645V55.1767C668.435 56.391 668.021 57.9369 666.814 58.6428C666.428 58.8639 666.108 59.1841 665.887 59.5703C665.547 60.1541 665.453 60.8494 665.627 61.5023C665.802 62.1551 666.229 62.7116 666.814 63.0486C667.4 63.3855 667.827 63.942 668.001 64.5948C668.175 65.2477 668.082 65.943 667.742 66.5268L666.863 67.9913C666.157 69.2055 664.602 69.6201 663.385 68.9189C663.013 68.706 662.593 68.5886 662.164 68.5772C661.487 68.5739 660.836 68.8416 660.357 69.3206C659.878 69.7997 659.61 70.4504 659.614 71.1279C659.607 72.5318 658.467 73.6664 657.063 73.6664H655.391C653.982 73.6664 652.84 72.5244 652.84 71.1157C652.836 70.6859 652.718 70.2649 652.499 69.8952C652.164 69.3104 651.61 68.8834 650.959 68.7093C650.308 68.5351 649.614 68.6281 649.033 68.9677C648.441 69.2995 647.741 69.3818 647.088 69.1963C646.435 69.0107 645.883 68.5727 645.554 67.9791L644.712 66.5268C644.012 65.3134 644.427 63.7623 645.64 63.0608C646.429 62.6051 646.915 61.763 646.915 60.8518C646.915 59.9405 646.429 59.0984 645.64 58.6428C644.426 57.9365 644.011 56.3815 644.712 55.1645L645.603 53.7C646.305 52.4814 647.861 52.061 649.081 52.7602C649.451 52.9796 649.872 53.0975 650.302 53.1019C651.696 53.1021 652.832 51.9822 652.852 50.5878C652.849 49.9125 653.115 49.2636 653.592 48.7849C654.068 48.3062 654.716 48.0371 655.391 48.0371H657.063C657.752 48.0368 658.413 48.3156 658.893 48.8099C659.374 49.3042 659.634 49.972 659.614 50.6611C659.618 51.0909 659.736 51.5119 659.955 51.8815C660.296 52.463 660.855 52.885 661.507 53.0545C662.16 53.2239 662.853 53.1268 663.434 52.7846C664.654 52.0854 666.21 52.5058 666.912 53.7244ZM660 61C660 63.2091 658.209 65 656 65C653.791 65 652 63.2091 652 61C652 58.7909 653.791 57 656 57C658.209 57 660 58.7909 660 61Z" fill="white"/>
<rect x="902" y="30" width="62" height="62" rx="30" fill="#D8D8D8"/>
<path d="M936 49C935.448 49 935 49.4477 935 50C935 50.5523 935.448 51 936 51H941.587L936.961 55.6262C936.57 56.0168 936.57 56.6499 936.961 57.0404C937.351 57.431 937.984 57.431 938.375 57.0404L943 52.4155V58C943 58.5523 943.448 59 944 59C944.552 59 945 58.5523 945 58V50.0512C945.014 49.7785 944.917 49.5012 944.708 49.2929C944.513 49.0976 944.257 48.9999 944.001 49H936Z" fill="white"/>
<path d="M923 64C923 63.4477 922.552 63 922 63C921.448 63 921 63.4477 921 64V72C921 72.2561 921.097 72.513 921.293 72.7084C921.501 72.9167 921.778 73.0139 922.051 73H930C930.552 73 931 72.5523 931 72C931 71.4477 930.552 71 930 71H924.415L929.04 66.3751C929.431 65.9846 929.431 65.3514 929.04 64.9609C928.65 64.5703 928.017 64.5703 927.626 64.9609L923 69.5871V64Z" fill="white"/>
<path d="M944 63C944.552 63 945 63.4477 945 64V72C945 72.2562 944.902 72.5129 944.707 72.7084C944.499 72.9167 944.221 73.0139 943.949 73H936C935.448 73 935 72.5523 935 72C935 71.4477 935.448 71 936 71H941.584L936.959 66.3751C936.569 65.9846 936.569 65.3514 936.959 64.9609C937.35 64.5703 937.983 64.5703 938.374 64.9609L943 69.5871V64C943 63.4477 943.448 63 944 63Z" fill="white"/>
<path d="M930 51C930.552 51 931 50.5523 931 50C931 49.4477 930.552 49 930 49H922C922 49 922 49 922 49C921.744 48.9999 921.487 49.0975 921.291 49.2929C921.083 49.5012 920.986 49.7785 921 50.0512L921 58C921 58.5523 921.448 59 922 59C922.552 59 923 58.5523 923 58L923 52.4155L927.625 57.0404C928.015 57.431 928.648 57.431 929.039 57.0404C929.43 56.6499 929.43 56.0168 929.039 55.6262L924.413 51L930 51Z" fill="white"/>
</svg>
