<svg width="60" height="60" viewBox="0 0 60 60" fill="none" xmlns="http://www.w3.org/2000/svg">
<path d="M27.1876 30C27.1876 29.4437 27.3525 28.9 27.6616 28.4375C27.9706 27.9749 28.4098 27.6145 28.9238 27.4016C29.4377 27.1887 30.0032 27.133 30.5488 27.2415C31.0943 27.3501 31.5955 27.6179 31.9888 28.0113C32.3821 28.4046 32.65 28.9057 32.7585 29.4513C32.867 29.9969 32.8113 30.5624 32.5985 31.0763C32.3856 31.5902 32.0251 32.0295 31.5626 32.3385C31.1001 32.6476 30.5563 32.8125 30.0001 32.8125C29.2541 32.8125 28.5388 32.5162 28.0113 31.9887C27.4839 31.4613 27.1876 30.7459 27.1876 30ZM19.6876 32.8125C20.2438 32.8125 20.7876 32.6476 21.2501 32.3385C21.7126 32.0295 22.0731 31.5902 22.286 31.0763C22.4988 30.5624 22.5545 29.9969 22.446 29.4513C22.3375 28.9057 22.0696 28.4046 21.6763 28.0113C21.283 27.6179 20.7818 27.3501 20.2363 27.2415C19.6907 27.133 19.1252 27.1887 18.6113 27.4016C18.0974 27.6145 17.6581 27.9749 17.3491 28.4375C17.04 28.9 16.8751 29.4437 16.8751 30C16.8751 30.7459 17.1714 31.4613 17.6988 31.9887C18.2263 32.5162 18.9416 32.8125 19.6876 32.8125ZM40.3126 32.8125C40.8688 32.8125 41.4126 32.6476 41.8751 32.3385C42.3376 32.0295 42.6981 31.5902 42.911 31.0763C43.1238 30.5624 43.1795 29.9969 43.071 29.4513C42.9625 28.9057 42.6946 28.4046 42.3013 28.0113C41.908 27.6179 41.4068 27.3501 40.8613 27.2415C40.3157 27.133 39.7502 27.1887 39.2363 27.4016C38.7224 27.6145 38.2831 27.9749 37.9741 28.4375C37.665 28.9 37.5001 29.4437 37.5001 30C37.5001 30.7459 37.7964 31.4613 38.3238 31.9887C38.8513 32.5162 39.5666 32.8125 40.3126 32.8125ZM54.3751 15V45C54.3751 45.9946 53.98 46.9484 53.2767 47.6517C52.5735 48.3549 51.6196 48.75 50.6251 48.75H19.4532L11.8126 55.35L11.7915 55.3664C11.1165 55.9387 10.2599 56.2519 9.37506 56.25C8.8242 56.2488 8.28026 56.1272 7.78131 55.8938C7.13413 55.5946 6.58669 55.1156 6.20435 54.5138C5.822 53.912 5.62091 53.213 5.62506 52.5V15C5.62506 14.0054 6.02015 13.0516 6.72341 12.3483C7.42667 11.6451 8.3805 11.25 9.37506 11.25H50.6251C51.6196 11.25 52.5735 11.6451 53.2767 12.3483C53.98 13.0516 54.3751 14.0054 54.3751 15ZM50.6251 15H9.37506V52.5L17.5243 45.4688C17.8631 45.1699 18.2983 45.0035 18.7501 45H50.6251V15Z" fill="#C6007E"/>
</svg>
