<svg width="24" height="25" viewBox="0 0 24 25" fill="none" xmlns="http://www.w3.org/2000/svg">
<rect x="0.3" y="0.710645" width="23.4" height="23.4" rx="5.7" stroke="#A3A3A3" stroke-width="0.6"/>
<path d="M7.62436 12.5864C7.39005 12.3521 7.01015 12.3521 6.77583 12.5864C6.54152 12.8207 6.54152 13.2006 6.77583 13.4349L9.77583 16.4349C10.0101 16.6692 10.39 16.6692 10.6244 16.4349L17.2244 9.83493C17.4587 9.60062 17.4587 9.22072 17.2244 8.9864C16.99 8.75209 16.6101 8.75209 16.3758 8.9864L10.2001 15.1621L7.62436 12.5864Z" fill="#656565"/>
<mask id="mask0_111_25138" style="mask-type:luminance" maskUnits="userSpaceOnUse" x="6" y="8" width="12" height="9">
<path d="M7.62436 12.5864C7.39005 12.3521 7.01015 12.3521 6.77583 12.5864C6.54152 12.8207 6.54152 13.2006 6.77583 13.4349L9.77583 16.4349C10.0101 16.6692 10.39 16.6692 10.6244 16.4349L17.2244 9.83493C17.4587 9.60062 17.4587 9.22072 17.2244 8.9864C16.99 8.75209 16.6101 8.75209 16.3758 8.9864L10.2001 15.1621L7.62436 12.5864Z" fill="white"/>
</mask>
<g mask="url(#mask0_111_25138)">
</g>
</svg>
