<svg width="24" height="25" viewBox="0 0 24 25" fill="none" xmlns="http://www.w3.org/2000/svg">
<rect x="0.3" y="0.710645" width="23.4" height="23.4" rx="5.7" stroke="#A3A3A3" stroke-width="0.6"/>
<path d="M7.62436 12.5863C7.39005 12.352 7.01015 12.352 6.77583 12.5863C6.54152 12.8206 6.54152 13.2005 6.77583 13.4348L9.77583 16.4348C10.0101 16.6691 10.39 16.6691 10.6244 16.4348L17.2244 9.83481C17.4587 9.6005 17.4587 9.2206 17.2244 8.98628C16.99 8.75197 16.6101 8.75197 16.3758 8.98628L10.2001 15.162L7.62436 12.5863Z" fill="#656565"/>
<mask id="mask0_111_25138" style="mask-type:luminance" maskUnits="userSpaceOnUse" x="6" y="8" width="12" height="9">
<path d="M7.62436 12.5863C7.39005 12.352 7.01015 12.352 6.77583 12.5863C6.54152 12.8206 6.54152 13.2005 6.77583 13.4348L9.77583 16.4348C10.0101 16.6691 10.39 16.6691 10.6244 16.4348L17.2244 9.83481C17.4587 9.6005 17.4587 9.2206 17.2244 8.98628C16.99 8.75197 16.6101 8.75197 16.3758 8.98628L10.2001 15.162L7.62436 12.5863Z" fill="white"/>
</mask>
<g mask="url(#mask0_111_25138)">
</g>
</svg>
