<svg width="218" height="44" viewBox="0 0 218 44" fill="none" xmlns="http://www.w3.org/2000/svg">
<rect width="218" height="44" rx="22" fill="#C6007E"/>
<path d="M40.25 14.5H23.75C23.3522 14.5 22.9707 14.658 22.6894 14.9393C22.4081 15.2206 22.25 15.6022 22.25 16V31C22.2483 31.2859 22.3292 31.5662 22.4828 31.8074C22.6365 32.0485 22.8564 32.2401 23.1163 32.3594C23.3149 32.4516 23.5311 32.4996 23.75 32.5C24.1022 32.4992 24.4426 32.3736 24.711 32.1456L24.7194 32.1391L27.7813 29.5H40.25C40.6478 29.5 41.0294 29.342 41.3107 29.0607C41.592 28.7794 41.75 28.3978 41.75 28V16C41.75 15.6022 41.592 15.2206 41.3107 14.9393C41.0294 14.658 40.6478 14.5 40.25 14.5ZM40.25 28H27.5C27.3199 28.0001 27.1459 28.065 27.0097 28.1828L23.75 31V16H40.25V28ZM28.25 20.5C28.25 20.3011 28.329 20.1103 28.4697 19.9697C28.6103 19.829 28.8011 19.75 29 19.75H35C35.1989 19.75 35.3897 19.829 35.5304 19.9697C35.671 20.1103 35.75 20.3011 35.75 20.5C35.75 20.6989 35.671 20.8897 35.5304 21.0303C35.3897 21.171 35.1989 21.25 35 21.25H29C28.8011 21.25 28.6103 21.171 28.4697 21.0303C28.329 20.8897 28.25 20.6989 28.25 20.5ZM28.25 23.5C28.25 23.3011 28.329 23.1103 28.4697 22.9697C28.6103 22.829 28.8011 22.75 29 22.75H35C35.1989 22.75 35.3897 22.829 35.5304 22.9697C35.671 23.1103 35.75 23.3011 35.75 23.5C35.75 23.6989 35.671 23.8897 35.5304 24.0303C35.3897 24.171 35.1989 24.25 35 24.25H29C28.8011 24.25 28.6103 24.171 28.4697 24.0303C28.329 23.8897 28.25 23.6989 28.25 23.5Z" fill="white"/>
<path d="M60.2051 22.9814H56.7861V21.6016H60.2051C60.8672 21.6016 61.4033 21.4961 61.8135 21.2852C62.2236 21.0742 62.5225 20.7812 62.71 20.4062C62.9033 20.0312 63 19.6035 63 19.123C63 18.6836 62.9033 18.2705 62.71 17.8838C62.5225 17.4971 62.2236 17.1865 61.8135 16.9521C61.4033 16.7119 60.8672 16.5918 60.2051 16.5918H57.1816V28H55.4854V15.2031H60.2051C61.1719 15.2031 61.9893 15.3701 62.6572 15.7041C63.3252 16.0381 63.832 16.501 64.1777 17.0928C64.5234 17.6787 64.6963 18.3496 64.6963 19.1055C64.6963 19.9258 64.5234 20.626 64.1777 21.2061C63.832 21.7861 63.3252 22.2285 62.6572 22.5332C61.9893 22.832 61.1719 22.9814 60.2051 22.9814ZM65.9267 23.3506V23.1484C65.9267 22.4629 66.0263 21.8271 66.2256 21.2412C66.4248 20.6494 66.7119 20.1367 67.0869 19.7031C67.4619 19.2637 67.916 18.9238 68.4492 18.6836C68.9824 18.4375 69.5801 18.3145 70.2422 18.3145C70.9101 18.3145 71.5107 18.4375 72.0439 18.6836C72.583 18.9238 73.04 19.2637 73.415 19.7031C73.7959 20.1367 74.0859 20.6494 74.2851 21.2412C74.4843 21.8271 74.584 22.4629 74.584 23.1484V23.3506C74.584 24.0361 74.4843 24.6719 74.2851 25.2578C74.0859 25.8438 73.7959 26.3564 73.415 26.7959C73.04 27.2295 72.5859 27.5693 72.0527 27.8154C71.5254 28.0557 70.9277 28.1758 70.2597 28.1758C69.5918 28.1758 68.9912 28.0557 68.458 27.8154C67.9248 27.5693 67.4677 27.2295 67.0869 26.7959C66.7119 26.3564 66.4248 25.8438 66.2256 25.2578C66.0263 24.6719 65.9267 24.0361 65.9267 23.3506ZM67.5527 23.1484V23.3506C67.5527 23.8252 67.6084 24.2734 67.7197 24.6953C67.831 25.1113 67.998 25.4805 68.2207 25.8027C68.4492 26.125 68.7334 26.3799 69.0732 26.5674C69.4131 26.749 69.8086 26.8398 70.2597 26.8398C70.7051 26.8398 71.0947 26.749 71.4287 26.5674C71.7685 26.3799 72.0498 26.125 72.2724 25.8027C72.4951 25.4805 72.6621 25.1113 72.7734 24.6953C72.8906 24.2734 72.9492 23.8252 72.9492 23.3506V23.1484C72.9492 22.6797 72.8906 22.2373 72.7734 21.8213C72.6621 21.3994 72.4922 21.0273 72.2636 20.7051C72.041 20.377 71.7597 20.1191 71.4199 19.9316C71.0859 19.7441 70.6933 19.6504 70.2422 19.6504C69.7968 19.6504 69.4043 19.7441 69.0644 19.9316C68.7304 20.1191 68.4492 20.377 68.2207 20.7051C67.998 21.0273 67.831 21.3994 67.7197 21.8213C67.6084 22.2373 67.5527 22.6797 67.5527 23.1484ZM82.0458 25.4775C82.0458 25.2432 81.9931 25.0264 81.8876 24.8271C81.788 24.6221 81.58 24.4375 81.2636 24.2734C80.9531 24.1035 80.4843 23.957 79.8574 23.834C79.33 23.7227 78.8525 23.5908 78.4247 23.4385C78.0029 23.2861 77.6425 23.1016 77.3437 22.8848C77.0507 22.668 76.8251 22.4131 76.6669 22.1201C76.5087 21.8271 76.4296 21.4844 76.4296 21.0918C76.4296 20.7168 76.5117 20.3623 76.6757 20.0283C76.8456 19.6943 77.083 19.3984 77.3876 19.1406C77.6982 18.8828 78.0703 18.6807 78.5039 18.5342C78.9374 18.3877 79.4208 18.3145 79.954 18.3145C80.7158 18.3145 81.3662 18.4492 81.9052 18.7188C82.4443 18.9883 82.8574 19.3486 83.1445 19.7998C83.4316 20.2451 83.5751 20.7402 83.5751 21.2852H81.9492C81.9492 21.0215 81.8701 20.7666 81.7119 20.5205C81.5595 20.2686 81.3339 20.0605 81.0351 19.8965C80.7421 19.7324 80.3818 19.6504 79.954 19.6504C79.5029 19.6504 79.1367 19.7207 78.8554 19.8613C78.58 19.9961 78.3779 20.1689 78.249 20.3799C78.1259 20.5908 78.0644 20.8135 78.0644 21.0479C78.0644 21.2236 78.0937 21.3818 78.1523 21.5225C78.2167 21.6572 78.3281 21.7832 78.4863 21.9004C78.6445 22.0117 78.8671 22.1172 79.1542 22.2168C79.4414 22.3164 79.8076 22.416 80.2529 22.5156C81.0322 22.6914 81.6738 22.9023 82.1777 23.1484C82.6816 23.3945 83.0566 23.6963 83.3027 24.0537C83.5488 24.4111 83.6718 24.8447 83.6718 25.3545C83.6718 25.7705 83.5839 26.1514 83.4081 26.4971C83.2382 26.8428 82.9892 27.1416 82.6611 27.3936C82.3388 27.6396 81.9521 27.833 81.5009 27.9736C81.0556 28.1084 80.5546 28.1758 79.998 28.1758C79.1601 28.1758 78.4511 28.0264 77.871 27.7275C77.291 27.4287 76.8515 27.042 76.5527 26.5674C76.2539 26.0928 76.1044 25.5918 76.1044 25.0645H77.7392C77.7626 25.5098 77.8915 25.8643 78.1259 26.1279C78.3603 26.3857 78.6474 26.5703 78.9872 26.6816C79.3271 26.7871 79.664 26.8398 79.998 26.8398C80.4433 26.8398 80.8154 26.7812 81.1142 26.6641C81.4189 26.5469 81.6503 26.3857 81.8085 26.1807C81.9667 25.9756 82.0458 25.7412 82.0458 25.4775ZM89.6747 18.4902V19.7383H84.5331V18.4902H89.6747ZM86.2734 16.1787H87.8993V25.6445C87.8993 25.9668 87.9491 26.21 88.0487 26.374C88.1484 26.5381 88.2773 26.6465 88.4355 26.6992C88.5937 26.752 88.7636 26.7783 88.9452 26.7783C89.08 26.7783 89.2206 26.7666 89.3671 26.7432C89.5194 26.7139 89.6337 26.6904 89.7099 26.6729L89.7187 28C89.5898 28.041 89.4198 28.0791 89.2089 28.1143C89.0038 28.1553 88.7548 28.1758 88.4618 28.1758C88.0634 28.1758 87.6972 28.0967 87.3632 27.9385C87.0292 27.7803 86.7626 27.5166 86.5634 27.1475C86.37 26.7725 86.2734 26.2686 86.2734 25.6357V16.1787ZM95.3876 23.3506V23.1484C95.3876 22.4629 95.4872 21.8271 95.6864 21.2412C95.8856 20.6494 96.1727 20.1367 96.5477 19.7031C96.9227 19.2637 97.3768 18.9238 97.91 18.6836C98.4432 18.4375 99.0409 18.3145 99.703 18.3145C100.371 18.3145 100.972 18.4375 101.505 18.6836C102.044 18.9238 102.501 19.2637 102.876 19.7031C103.257 20.1367 103.547 20.6494 103.746 21.2412C103.945 21.8271 104.045 22.4629 104.045 23.1484V23.3506C104.045 24.0361 103.945 24.6719 103.746 25.2578C103.547 25.8438 103.257 26.3564 102.876 26.7959C102.501 27.2295 102.047 27.5693 101.514 27.8154C100.986 28.0557 100.389 28.1758 99.7206 28.1758C99.0526 28.1758 98.452 28.0557 97.9188 27.8154C97.3856 27.5693 96.9286 27.2295 96.5477 26.7959C96.1727 26.3564 95.8856 25.8438 95.6864 25.2578C95.4872 24.6719 95.3876 24.0361 95.3876 23.3506ZM97.0135 23.1484V23.3506C97.0135 23.8252 97.0692 24.2734 97.1805 24.6953C97.2919 25.1113 97.4588 25.4805 97.6815 25.8027C97.91 26.125 98.1942 26.3799 98.534 26.5674C98.8739 26.749 99.2694 26.8398 99.7206 26.8398C100.166 26.8398 100.556 26.749 100.89 26.5674C101.229 26.3799 101.511 26.125 101.733 25.8027C101.956 25.4805 102.123 25.1113 102.234 24.6953C102.351 24.2734 102.41 23.8252 102.41 23.3506V23.1484C102.41 22.6797 102.351 22.2373 102.234 21.8213C102.123 21.3994 101.953 21.0273 101.724 20.7051C101.502 20.377 101.221 20.1191 100.881 19.9316C100.547 19.7441 100.154 19.6504 99.703 19.6504C99.2577 19.6504 98.8651 19.7441 98.5252 19.9316C98.1913 20.1191 97.91 20.377 97.6815 20.7051C97.4588 21.0273 97.2919 21.3994 97.1805 21.8213C97.0692 22.2373 97.0135 22.6797 97.0135 23.1484ZM107.596 20.5205V28H105.97V18.4902H107.508L107.596 20.5205ZM107.209 22.8848L106.532 22.8584C106.538 22.208 106.635 21.6074 106.822 21.0566C107.01 20.5 107.273 20.0166 107.613 19.6064C107.953 19.1963 108.357 18.8799 108.826 18.6572C109.301 18.4287 109.825 18.3145 110.399 18.3145C110.868 18.3145 111.29 18.3789 111.665 18.5078C112.04 18.6309 112.359 18.8301 112.623 19.1055C112.892 19.3809 113.097 19.7383 113.238 20.1777C113.379 20.6113 113.449 21.1416 113.449 21.7686V28H111.814V21.751C111.814 21.2529 111.741 20.8545 111.595 20.5557C111.448 20.251 111.234 20.0312 110.953 19.8965C110.672 19.7559 110.326 19.6855 109.916 19.6855C109.512 19.6855 109.142 19.7705 108.808 19.9404C108.48 20.1104 108.196 20.3447 107.956 20.6436C107.722 20.9424 107.537 21.2852 107.402 21.6719C107.273 22.0527 107.209 22.457 107.209 22.8848ZM121.922 14.5V28H120.287V14.5H121.922ZM126.184 18.4902V28H124.55V18.4902H126.184ZM124.427 15.9678C124.427 15.7041 124.506 15.4814 124.664 15.2998C124.828 15.1182 125.068 15.0273 125.385 15.0273C125.695 15.0273 125.932 15.1182 126.096 15.2998C126.266 15.4814 126.351 15.7041 126.351 15.9678C126.351 16.2197 126.266 16.4365 126.096 16.6182C125.932 16.7939 125.695 16.8818 125.385 16.8818C125.068 16.8818 124.828 16.7939 124.664 16.6182C124.506 16.4365 124.427 16.2197 124.427 15.9678ZM131.572 26.5322L134.174 18.4902H135.835L132.416 28H131.326L131.572 26.5322ZM129.401 18.4902L132.082 26.5762L132.266 28H131.176L127.731 18.4902H129.401ZM141.108 28.1758C140.446 28.1758 139.845 28.0645 139.306 27.8418C138.773 27.6133 138.313 27.2939 137.926 26.8838C137.546 26.4736 137.253 25.9873 137.048 25.4248C136.842 24.8623 136.74 24.2471 136.74 23.5791V23.21C136.74 22.4365 136.854 21.748 137.083 21.1445C137.311 20.5352 137.622 20.0195 138.014 19.5977C138.407 19.1758 138.852 18.8564 139.35 18.6396C139.848 18.4229 140.364 18.3145 140.897 18.3145C141.577 18.3145 142.163 18.4316 142.655 18.666C143.153 18.9004 143.56 19.2285 143.877 19.6504C144.193 20.0664 144.427 20.5586 144.58 21.127C144.732 21.6895 144.808 22.3047 144.808 22.9727V23.7021H137.707V22.375H143.182V22.252C143.159 21.8301 143.071 21.4199 142.919 21.0215C142.772 20.623 142.538 20.2949 142.216 20.0371C141.893 19.7793 141.454 19.6504 140.897 19.6504C140.528 19.6504 140.188 19.7295 139.878 19.8877C139.567 20.04 139.3 20.2686 139.078 20.5732C138.855 20.8779 138.682 21.25 138.559 21.6895C138.436 22.1289 138.375 22.6357 138.375 23.21V23.5791C138.375 24.0303 138.436 24.4551 138.559 24.8535C138.688 25.2461 138.873 25.5918 139.113 25.8906C139.359 26.1895 139.655 26.4238 140.001 26.5938C140.352 26.7637 140.751 26.8486 141.196 26.8486C141.77 26.8486 142.257 26.7314 142.655 26.4971C143.053 26.2627 143.402 25.9492 143.701 25.5566L144.685 26.3389C144.48 26.6494 144.219 26.9453 143.903 27.2266C143.587 27.5078 143.197 27.7363 142.734 27.9121C142.277 28.0879 141.735 28.1758 141.108 28.1758ZM153.369 28H151.743V17.4883C151.743 16.8027 151.866 16.2256 152.112 15.7568C152.364 15.2822 152.724 14.9248 153.193 14.6846C153.662 14.4385 154.218 14.3154 154.863 14.3154C155.05 14.3154 155.238 14.3271 155.425 14.3506C155.619 14.374 155.806 14.4092 155.988 14.4561L155.9 15.7832C155.777 15.7539 155.636 15.7334 155.478 15.7217C155.326 15.71 155.173 15.7041 155.021 15.7041C154.675 15.7041 154.377 15.7744 154.125 15.915C153.879 16.0498 153.691 16.249 153.562 16.5127C153.433 16.7764 153.369 17.1016 153.369 17.4883V28ZM155.39 18.4902V19.7383H150.24V18.4902H155.39ZM156.656 23.3506V23.1484C156.656 22.4629 156.755 21.8271 156.955 21.2412C157.154 20.6494 157.441 20.1367 157.816 19.7031C158.191 19.2637 158.645 18.9238 159.178 18.6836C159.712 18.4375 160.309 18.3145 160.971 18.3145C161.639 18.3145 162.24 18.4375 162.773 18.6836C163.312 18.9238 163.769 19.2637 164.144 19.7031C164.525 20.1367 164.815 20.6494 165.014 21.2412C165.213 21.8271 165.313 22.4629 165.313 23.1484V23.3506C165.313 24.0361 165.213 24.6719 165.014 25.2578C164.815 25.8438 164.525 26.3564 164.144 26.7959C163.769 27.2295 163.315 27.5693 162.782 27.8154C162.254 28.0557 161.657 28.1758 160.989 28.1758C160.321 28.1758 159.72 28.0557 159.187 27.8154C158.654 27.5693 158.197 27.2295 157.816 26.7959C157.441 26.3564 157.154 25.8438 156.955 25.2578C156.755 24.6719 156.656 24.0361 156.656 23.3506ZM158.282 23.1484V23.3506C158.282 23.8252 158.338 24.2734 158.449 24.6953C158.56 25.1113 158.727 25.4805 158.95 25.8027C159.178 26.125 159.463 26.3799 159.802 26.5674C160.142 26.749 160.538 26.8398 160.989 26.8398C161.434 26.8398 161.824 26.749 162.158 26.5674C162.498 26.3799 162.779 26.125 163.002 25.8027C163.224 25.4805 163.391 25.1113 163.503 24.6953C163.62 24.2734 163.678 23.8252 163.678 23.3506V23.1484C163.678 22.6797 163.62 22.2373 163.503 21.8213C163.391 21.3994 163.221 21.0273 162.993 20.7051C162.77 20.377 162.489 20.1191 162.149 19.9316C161.815 19.7441 161.422 19.6504 160.971 19.6504C160.526 19.6504 160.133 19.7441 159.794 19.9316C159.46 20.1191 159.178 20.377 158.95 20.7051C158.727 21.0273 158.56 21.3994 158.449 21.8213C158.338 22.2373 158.282 22.6797 158.282 23.1484ZM168.864 19.9844V28H167.238V18.4902H168.82L168.864 19.9844ZM171.835 18.4375L171.826 19.9492C171.691 19.9199 171.562 19.9023 171.439 19.8965C171.322 19.8848 171.187 19.8789 171.035 19.8789C170.66 19.8789 170.329 19.9375 170.042 20.0547C169.754 20.1719 169.511 20.3359 169.312 20.5469C169.113 20.7578 168.955 21.0098 168.837 21.3027C168.726 21.5898 168.653 21.9062 168.618 22.252L168.161 22.5156C168.161 21.9414 168.216 21.4023 168.328 20.8984C168.445 20.3945 168.624 19.9492 168.864 19.5625C169.104 19.1699 169.409 18.8652 169.778 18.6484C170.153 18.4258 170.598 18.3145 171.114 18.3145C171.231 18.3145 171.366 18.3291 171.518 18.3584C171.67 18.3818 171.776 18.4082 171.835 18.4375ZM179.042 25.8027V18.4902H180.676V28H179.121L179.042 25.8027ZM179.349 23.7988L180.026 23.7812C180.026 24.4141 179.959 25 179.824 25.5391C179.695 26.0723 179.484 26.5352 179.191 26.9277C178.898 27.3203 178.514 27.6279 178.04 27.8506C177.565 28.0674 176.988 28.1758 176.308 28.1758C175.845 28.1758 175.42 28.1084 175.034 27.9736C174.653 27.8389 174.325 27.6309 174.049 27.3496C173.774 27.0684 173.56 26.7021 173.408 26.251C173.261 25.7998 173.188 25.2578 173.188 24.625V18.4902H174.814V24.6426C174.814 25.0703 174.861 25.4248 174.955 25.7061C175.054 25.9814 175.186 26.2012 175.35 26.3652C175.52 26.5234 175.708 26.6348 175.913 26.6992C176.124 26.7637 176.34 26.7959 176.563 26.7959C177.254 26.7959 177.802 26.6641 178.207 26.4004C178.611 26.1309 178.901 25.7705 179.077 25.3193C179.258 24.8623 179.349 24.3555 179.349 23.7988ZM184.658 20.3799V28H183.023V18.4902H184.57L184.658 20.3799ZM184.324 22.8848L183.568 22.8584C183.574 22.208 183.659 21.6074 183.823 21.0566C183.987 20.5 184.23 20.0166 184.552 19.6064C184.875 19.1963 185.276 18.8799 185.756 18.6572C186.237 18.4287 186.793 18.3145 187.426 18.3145C187.872 18.3145 188.282 18.3789 188.657 18.5078C189.032 18.6309 189.357 18.8271 189.632 19.0967C189.908 19.3662 190.122 19.7119 190.274 20.1338C190.426 20.5557 190.502 21.0654 190.502 21.6631V28H188.876V21.7422C188.876 21.2441 188.792 20.8457 188.622 20.5469C188.458 20.248 188.223 20.0312 187.918 19.8965C187.614 19.7559 187.256 19.6855 186.846 19.6855C186.366 19.6855 185.964 19.7705 185.642 19.9404C185.32 20.1104 185.062 20.3447 184.869 20.6436C184.675 20.9424 184.535 21.2852 184.447 21.6719C184.365 22.0527 184.324 22.457 184.324 22.8848ZM190.485 21.9883L189.395 22.3223C189.401 21.8008 189.486 21.2998 189.65 20.8193C189.82 20.3389 190.063 19.9111 190.379 19.5361C190.702 19.1611 191.097 18.8652 191.566 18.6484C192.035 18.4258 192.571 18.3145 193.174 18.3145C193.684 18.3145 194.135 18.3818 194.528 18.5166C194.926 18.6514 195.26 18.8594 195.53 19.1406C195.805 19.416 196.013 19.7705 196.154 20.2041C196.294 20.6377 196.365 21.1533 196.365 21.751V28H194.73V21.7334C194.73 21.2002 194.645 20.7871 194.475 20.4941C194.311 20.1953 194.077 19.9873 193.772 19.8701C193.473 19.7471 193.116 19.6855 192.7 19.6855C192.342 19.6855 192.026 19.7471 191.751 19.8701C191.475 19.9932 191.244 20.1631 191.056 20.3799C190.869 20.5908 190.725 20.834 190.626 21.1094C190.532 21.3848 190.485 21.6777 190.485 21.9883Z" fill="white"/>
</svg>
