<svg width="20" height="20" viewBox="0 0 20 20" fill="none" xmlns="http://www.w3.org/2000/svg">
<rect x="0.5" y="0.5" width="19" height="19" rx="9.5" stroke="#00B0B9"/>
<path d="M12.899 14.1901V13.4649L13.8372 13.3037V6.70216L12.899 6.54101V5.81006H15.9092V6.54101L14.971 6.70216V13.3037L15.9092 13.4649V14.1901H12.899Z" fill="#00B0B9"/>
<path d="M4.09094 14.1901V13.4649L4.71254 13.3785L7.64208 5.81006H8.61476L11.4925 13.3785L12.1083 13.4649V14.1901H9.70255V13.4649L10.3357 13.3555L9.78313 11.813H6.42767L5.85788 13.3555L6.49098 13.4649V14.1901H4.09094ZM6.77876 10.8634H9.4378L8.20612 7.45613L8.13705 7.2662H8.10252L8.03346 7.45613L6.77876 10.8634Z" fill="#00B0B9"/>
</svg>
