<svg width="174" height="44" viewBox="0 0 174 44" fill="none" xmlns="http://www.w3.org/2000/svg">
<rect width="174" height="44" rx="22" fill="#646464"/>
<path d="M40.0306 17.7194L34.7806 12.4694C34.7109 12.3997 34.6282 12.3445 34.5371 12.3069C34.4461 12.2693 34.3485 12.2499 34.25 12.25H25.25C24.8522 12.25 24.4706 12.408 24.1893 12.6893C23.908 12.9706 23.75 13.3522 23.75 13.75V30.25C23.75 30.6478 23.908 31.0294 24.1893 31.3107C24.4706 31.592 24.8522 31.75 25.25 31.75H38.75C39.1478 31.75 39.5294 31.592 39.8107 31.3107C40.092 31.0294 40.25 30.6478 40.25 30.25V18.25C40.2501 18.1515 40.2307 18.0539 40.1931 17.9629C40.1555 17.8718 40.1003 17.7891 40.0306 17.7194ZM35 14.8103L37.6897 17.5H35V14.8103ZM38.75 30.25H25.25V13.75H33.5V18.25C33.5 18.4489 33.579 18.6397 33.7197 18.7803C33.8603 18.921 34.0511 19 34.25 19H38.75V30.25ZM35 24.25C35 24.4489 34.921 24.6397 34.7803 24.7803C34.6397 24.921 34.4489 25 34.25 25H32.75V26.5C32.75 26.6989 32.671 26.8897 32.5303 27.0303C32.3897 27.171 32.1989 27.25 32 27.25C31.8011 27.25 31.6103 27.171 31.4697 27.0303C31.329 26.8897 31.25 26.6989 31.25 26.5V25H29.75C29.5511 25 29.3603 24.921 29.2197 24.7803C29.079 24.6397 29 24.4489 29 24.25C29 24.0511 29.079 23.8603 29.2197 23.7197C29.3603 23.579 29.5511 23.5 29.75 23.5H31.25V22C31.25 21.8011 31.329 21.6103 31.4697 21.4697C31.6103 21.329 31.8011 21.25 32 21.25C32.1989 21.25 32.3897 21.329 32.5303 21.4697C32.671 21.6103 32.75 21.8011 32.75 22V23.5H34.25C34.4489 23.5 34.6397 23.579 34.7803 23.7197C34.921 23.8603 35 24.0511 35 24.25Z" fill="white"/>
<path d="M63.2109 23.9307H64.8984C64.8105 24.7393 64.5791 25.4629 64.2041 26.1016C63.8291 26.7402 63.2988 27.2471 62.6133 27.6221C61.9277 27.9912 61.0723 28.1758 60.0469 28.1758C59.2969 28.1758 58.6143 28.0352 57.999 27.7539C57.3896 27.4727 56.8652 27.0742 56.4258 26.5586C55.9863 26.0371 55.6465 25.4131 55.4062 24.6865C55.1719 23.9541 55.0547 23.1396 55.0547 22.2432V20.9688C55.0547 20.0723 55.1719 19.2607 55.4062 18.5342C55.6465 17.8018 55.9893 17.1748 56.4346 16.6533C56.8857 16.1318 57.4277 15.7305 58.0605 15.4492C58.6934 15.168 59.4053 15.0273 60.1963 15.0273C61.1631 15.0273 61.9805 15.209 62.6484 15.5723C63.3164 15.9355 63.835 16.4395 64.2041 17.084C64.5791 17.7227 64.8105 18.4639 64.8984 19.3076H63.2109C63.1289 18.71 62.9766 18.1973 62.7539 17.7695C62.5312 17.3359 62.2148 17.002 61.8047 16.7676C61.3945 16.5332 60.8584 16.416 60.1963 16.416C59.6279 16.416 59.127 16.5244 58.6934 16.7412C58.2656 16.958 57.9053 17.2656 57.6123 17.6641C57.3252 18.0625 57.1084 18.54 56.9619 19.0967C56.8154 19.6533 56.7422 20.2715 56.7422 20.9512V22.2432C56.7422 22.8701 56.8066 23.459 56.9355 24.0098C57.0703 24.5605 57.2725 25.0439 57.542 25.46C57.8115 25.876 58.1543 26.2041 58.5703 26.4443C58.9863 26.6787 59.4785 26.7959 60.0469 26.7959C60.7676 26.7959 61.3418 26.6816 61.7695 26.4531C62.1973 26.2246 62.5195 25.8965 62.7363 25.4688C62.959 25.041 63.1172 24.5283 63.2109 23.9307ZM68.4756 19.9844V28H66.8496V18.4902H68.4316L68.4756 19.9844ZM71.4463 18.4375L71.4375 19.9492C71.3027 19.9199 71.1738 19.9023 71.0508 19.8965C70.9336 19.8848 70.7988 19.8789 70.6465 19.8789C70.2715 19.8789 69.9404 19.9375 69.6533 20.0547C69.3662 20.1719 69.123 20.3359 68.9238 20.5469C68.7246 20.7578 68.5664 21.0098 68.4492 21.3027C68.3379 21.5898 68.2646 21.9062 68.2295 22.252L67.7724 22.5156C67.7724 21.9414 67.8281 21.4023 67.9394 20.8984C68.0566 20.3945 68.2353 19.9492 68.4756 19.5625C68.7158 19.1699 69.0205 18.8652 69.3896 18.6484C69.7646 18.4258 70.2099 18.3145 70.7256 18.3145C70.8427 18.3145 70.9775 18.3291 71.1299 18.3584C71.2822 18.3818 71.3877 18.4082 71.4463 18.4375ZM76.6054 28.1758C75.9433 28.1758 75.3427 28.0645 74.8037 27.8418C74.2705 27.6133 73.8105 27.2939 73.4238 26.8838C73.0429 26.4736 72.7499 25.9873 72.5449 25.4248C72.3398 24.8623 72.2372 24.2471 72.2372 23.5791V23.21C72.2372 22.4365 72.3515 21.748 72.58 21.1445C72.8085 20.5352 73.1191 20.0195 73.5117 19.5977C73.9042 19.1758 74.3496 18.8564 74.8476 18.6396C75.3456 18.4229 75.8613 18.3145 76.3945 18.3145C77.0742 18.3145 77.6601 18.4316 78.1523 18.666C78.6503 18.9004 79.0576 19.2285 79.374 19.6504C79.6904 20.0664 79.9247 20.5586 80.0771 21.127C80.2294 21.6895 80.3056 22.3047 80.3056 22.9727V23.7021H73.204V22.375H78.6796V22.252C78.6562 21.8301 78.5683 21.4199 78.416 21.0215C78.2695 20.623 78.0351 20.2949 77.7128 20.0371C77.3906 19.7793 76.9511 19.6504 76.3945 19.6504C76.0253 19.6504 75.6855 19.7295 75.3749 19.8877C75.0644 20.04 74.7978 20.2686 74.5751 20.5732C74.3525 20.8779 74.1796 21.25 74.0566 21.6895C73.9335 22.1289 73.872 22.6357 73.872 23.21V23.5791C73.872 24.0303 73.9335 24.4551 74.0566 24.8535C74.1855 25.2461 74.3701 25.5918 74.6103 25.8906C74.8564 26.1895 75.1523 26.4238 75.498 26.5938C75.8496 26.7637 76.248 26.8486 76.6933 26.8486C77.2675 26.8486 77.7539 26.7314 78.1523 26.4971C78.5507 26.2627 78.8994 25.9492 79.1982 25.5566L80.1826 26.3389C79.9775 26.6494 79.7167 26.9453 79.4003 27.2266C79.0839 27.5078 78.6943 27.7363 78.2314 27.9121C77.7744 28.0879 77.2324 28.1758 76.6054 28.1758ZM87.6972 26.374V21.4785C87.6972 21.1035 87.621 20.7783 87.4687 20.5029C87.3222 20.2217 87.0995 20.0049 86.8007 19.8525C86.5019 19.7002 86.1327 19.624 85.6933 19.624C85.2831 19.624 84.9228 19.6943 84.6122 19.835C84.3075 19.9756 84.0673 20.1602 83.8915 20.3887C83.7216 20.6172 83.6366 20.8633 83.6366 21.127H82.0107C82.0107 20.7871 82.0985 20.4502 82.2743 20.1162C82.4501 19.7822 82.7021 19.4805 83.0302 19.2109C83.3642 18.9355 83.7626 18.7188 84.2255 18.5605C84.6943 18.3965 85.2157 18.3145 85.79 18.3145C86.4814 18.3145 87.0907 18.4316 87.6181 18.666C88.1513 18.9004 88.5673 19.2549 88.8661 19.7295C89.1708 20.1982 89.3232 20.7871 89.3232 21.4961V25.9258C89.3232 26.2422 89.3495 26.5791 89.4023 26.9365C89.4609 27.2939 89.5458 27.6016 89.6571 27.8594V28H87.9609C87.8788 27.8125 87.8144 27.5635 87.7675 27.2529C87.7206 26.9365 87.6972 26.6436 87.6972 26.374ZM87.9784 22.2344L87.996 23.377H86.3525C85.8896 23.377 85.4765 23.415 85.1132 23.4912C84.7499 23.5615 84.4452 23.6699 84.1991 23.8164C83.953 23.9629 83.7655 24.1475 83.6366 24.3701C83.5077 24.5869 83.4433 24.8418 83.4433 25.1348C83.4433 25.4336 83.5107 25.7061 83.6454 25.9521C83.7802 26.1982 83.9823 26.3945 84.2519 26.541C84.5273 26.6816 84.8642 26.752 85.2626 26.752C85.7607 26.752 86.2001 26.6465 86.581 26.4355C86.9618 26.2246 87.2636 25.9668 87.4862 25.6621C87.7148 25.3574 87.8378 25.0615 87.8554 24.7744L88.5497 25.5566C88.5087 25.8027 88.3974 26.0752 88.2157 26.374C88.0341 26.6729 87.7909 26.96 87.4862 27.2354C87.1874 27.5049 86.83 27.7305 86.414 27.9121C86.0038 28.0879 85.5409 28.1758 85.0253 28.1758C84.3808 28.1758 83.8153 28.0498 83.329 27.7979C82.8485 27.5459 82.4735 27.209 82.204 26.7871C81.9403 26.3594 81.8085 25.8818 81.8085 25.3545C81.8085 24.8447 81.9081 24.3965 82.1073 24.0098C82.3066 23.6172 82.5937 23.292 82.9687 23.0342C83.3437 22.7705 83.7948 22.5713 84.3222 22.4365C84.8495 22.3018 85.4384 22.2344 86.0888 22.2344H87.9784ZM95.7479 18.4902V19.7383H90.6063V18.4902H95.7479ZM92.3466 16.1787H93.9725V25.6445C93.9725 25.9668 94.0224 26.21 94.122 26.374C94.2216 26.5381 94.3505 26.6465 94.5087 26.6992C94.6669 26.752 94.8368 26.7783 95.0184 26.7783C95.1532 26.7783 95.2938 26.7666 95.4403 26.7432C95.5927 26.7139 95.7069 26.6904 95.7831 26.6729L95.7919 28C95.663 28.041 95.4931 28.0791 95.2821 28.1143C95.077 28.1553 94.828 28.1758 94.535 28.1758C94.1366 28.1758 93.7704 28.0967 93.4364 27.9385C93.1024 27.7803 92.8358 27.5166 92.6366 27.1475C92.4432 26.7725 92.3466 26.2686 92.3466 25.6357V16.1787ZM101.487 28.1758C100.825 28.1758 100.224 28.0645 99.6854 27.8418C99.1522 27.6133 98.6922 27.2939 98.3055 26.8838C97.9247 26.4736 97.6317 25.9873 97.4266 25.4248C97.2215 24.8623 97.119 24.2471 97.119 23.5791V23.21C97.119 22.4365 97.2333 21.748 97.4618 21.1445C97.6903 20.5352 98.0008 20.0195 98.3934 19.5977C98.786 19.1758 99.2313 18.8564 99.7294 18.6396C100.227 18.4229 100.743 18.3145 101.276 18.3145C101.956 18.3145 102.542 18.4316 103.034 18.666C103.532 18.9004 103.939 19.2285 104.256 19.6504C104.572 20.0664 104.806 20.5586 104.959 21.127C105.111 21.6895 105.187 22.3047 105.187 22.9727V23.7021H98.0858V22.375H103.561V22.252C103.538 21.8301 103.45 21.4199 103.298 21.0215C103.151 20.623 102.917 20.2949 102.595 20.0371C102.272 19.7793 101.833 19.6504 101.276 19.6504C100.907 19.6504 100.567 19.7295 100.257 19.8877C99.9461 20.04 99.6795 20.2686 99.4569 20.5732C99.2342 20.8779 99.0614 21.25 98.9383 21.6895C98.8153 22.1289 98.7538 22.6357 98.7538 23.21V23.5791C98.7538 24.0303 98.8153 24.4551 98.9383 24.8535C99.0672 25.2461 99.2518 25.5918 99.492 25.8906C99.7381 26.1895 100.034 26.4238 100.38 26.5938C100.731 26.7637 101.13 26.8486 101.575 26.8486C102.149 26.8486 102.636 26.7314 103.034 26.4971C103.432 26.2627 103.781 25.9492 104.08 25.5566L105.064 26.3389C104.859 26.6494 104.598 26.9453 104.282 27.2266C103.966 27.5078 103.576 27.7363 103.113 27.9121C102.656 28.0879 102.114 28.1758 101.487 28.1758ZM115.304 18.4902V19.7383H110.162V18.4902H115.304ZM111.902 16.1787H113.528V25.6445C113.528 25.9668 113.578 26.21 113.678 26.374C113.777 26.5381 113.906 26.6465 114.064 26.6992C114.222 26.752 114.392 26.7783 114.574 26.7783C114.709 26.7783 114.849 26.7666 114.996 26.7432C115.148 26.7139 115.263 26.6904 115.339 26.6729L115.347 28C115.219 28.041 115.049 28.0791 114.838 28.1143C114.633 28.1553 114.384 28.1758 114.091 28.1758C113.692 28.1758 113.326 28.0967 112.992 27.9385C112.658 27.7803 112.391 27.5166 112.192 27.1475C111.999 26.7725 111.902 26.2686 111.902 25.6357V16.1787ZM118.863 18.4902V28H117.228V18.4902H118.863ZM117.105 15.9678C117.105 15.7041 117.184 15.4814 117.343 15.2998C117.507 15.1182 117.747 15.0273 118.063 15.0273C118.374 15.0273 118.611 15.1182 118.775 15.2998C118.945 15.4814 119.03 15.7041 119.03 15.9678C119.03 16.2197 118.945 16.4365 118.775 16.6182C118.611 16.7939 118.374 16.8818 118.063 16.8818C117.747 16.8818 117.507 16.7939 117.343 16.6182C117.184 16.4365 117.105 16.2197 117.105 15.9678ZM125.165 26.8398C125.552 26.8398 125.909 26.7607 126.237 26.6025C126.565 26.4443 126.835 26.2275 127.046 25.9521C127.257 25.6709 127.377 25.3516 127.406 24.9941H128.953C128.924 25.5566 128.733 26.0811 128.382 26.5674C128.036 27.0479 127.582 27.4375 127.019 27.7363C126.457 28.0293 125.839 28.1758 125.165 28.1758C124.45 28.1758 123.826 28.0498 123.293 27.7979C122.765 27.5459 122.326 27.2002 121.974 26.7607C121.629 26.3213 121.368 25.8174 121.192 25.249C121.022 24.6748 120.937 24.0684 120.937 23.4297V23.0605C120.937 22.4219 121.022 21.8184 121.192 21.25C121.368 20.6758 121.629 20.1689 121.974 19.7295C122.326 19.29 122.765 18.9443 123.293 18.6924C123.826 18.4404 124.45 18.3145 125.165 18.3145C125.909 18.3145 126.559 18.4668 127.116 18.7715C127.673 19.0703 128.109 19.4805 128.426 20.002C128.748 20.5176 128.924 21.1035 128.953 21.7598H127.406C127.377 21.3672 127.265 21.0127 127.072 20.6963C126.885 20.3799 126.627 20.1279 126.299 19.9404C125.976 19.7471 125.598 19.6504 125.165 19.6504C124.667 19.6504 124.248 19.75 123.908 19.9492C123.574 20.1426 123.307 20.4062 123.108 20.7402C122.915 21.0684 122.774 21.4346 122.686 21.8389C122.604 22.2373 122.563 22.6445 122.563 23.0605V23.4297C122.563 23.8457 122.604 24.2559 122.686 24.6602C122.768 25.0645 122.906 25.4307 123.099 25.7588C123.299 26.0869 123.565 26.3506 123.899 26.5498C124.239 26.7432 124.661 26.8398 125.165 26.8398ZM132.301 14.5V28H130.667V14.5H132.301ZM138.111 18.4902L133.963 22.9287L131.642 25.3369L131.51 23.6055L133.172 21.6191L136.125 18.4902H138.111ZM136.626 28L133.233 23.4648L134.077 22.0146L138.542 28H136.626ZM143.446 28.1758C142.784 28.1758 142.183 28.0645 141.644 27.8418C141.111 27.6133 140.651 27.2939 140.264 26.8838C139.883 26.4736 139.591 25.9873 139.385 25.4248C139.18 24.8623 139.078 24.2471 139.078 23.5791V23.21C139.078 22.4365 139.192 21.748 139.421 21.1445C139.649 20.5352 139.96 20.0195 140.352 19.5977C140.745 19.1758 141.19 18.8564 141.688 18.6396C142.186 18.4229 142.702 18.3145 143.235 18.3145C143.915 18.3145 144.501 18.4316 144.993 18.666C145.491 18.9004 145.898 19.2285 146.215 19.6504C146.531 20.0664 146.765 20.5586 146.918 21.127C147.07 21.6895 147.146 22.3047 147.146 22.9727V23.7021H140.045V22.375H145.52V22.252C145.497 21.8301 145.409 21.4199 145.257 21.0215C145.11 20.623 144.876 20.2949 144.553 20.0371C144.231 19.7793 143.792 19.6504 143.235 19.6504C142.866 19.6504 142.526 19.7295 142.216 19.8877C141.905 20.04 141.638 20.2686 141.416 20.5732C141.193 20.8779 141.02 21.25 140.897 21.6895C140.774 22.1289 140.713 22.6357 140.713 23.21V23.5791C140.713 24.0303 140.774 24.4551 140.897 24.8535C141.026 25.2461 141.211 25.5918 141.451 25.8906C141.697 26.1895 141.993 26.4238 142.339 26.5938C142.69 26.7637 143.089 26.8486 143.534 26.8486C144.108 26.8486 144.594 26.7314 144.993 26.4971C145.391 26.2627 145.74 25.9492 146.039 25.5566L147.023 26.3389C146.818 26.6494 146.557 26.9453 146.241 27.2266C145.924 27.5078 145.535 27.7363 145.072 27.9121C144.615 28.0879 144.073 28.1758 143.446 28.1758ZM152.912 18.4902V19.7383H147.77V18.4902H152.912ZM149.51 16.1787H151.136V25.6445C151.136 25.9668 151.186 26.21 151.286 26.374C151.385 26.5381 151.514 26.6465 151.673 26.6992C151.831 26.752 152.001 26.7783 152.182 26.7783C152.317 26.7783 152.458 26.7666 152.604 26.7432C152.757 26.7139 152.871 26.6904 152.947 26.6729L152.956 28C152.827 28.041 152.657 28.0791 152.446 28.1143C152.241 28.1553 151.992 28.1758 151.699 28.1758C151.3 28.1758 150.934 28.0967 150.6 27.9385C150.266 27.7803 150 27.5166 149.8 27.1475C149.607 26.7725 149.51 26.2686 149.51 25.6357V16.1787Z" fill="white"/>
</svg>
