<svg width="157" height="44" viewBox="0 0 157 44" fill="none" xmlns="http://www.w3.org/2000/svg">
<rect width="157" height="44" rx="22" fill="#00B0B9"/>
<path d="M41.6488 29.875C40.2209 27.4065 38.0206 25.6365 35.4528 24.7975C36.723 24.0414 37.7098 22.8892 38.2618 21.5179C38.8137 20.1467 38.9003 18.6321 38.5082 17.2069C38.1161 15.7817 37.267 14.5245 36.0912 13.6286C34.9155 12.7327 33.4782 12.2474 32 12.2474C30.5218 12.2474 29.0845 12.7327 27.9088 13.6286C26.7331 14.5245 25.8839 15.7817 25.4918 17.2069C25.0997 18.6321 25.1863 20.1467 25.7382 21.5179C26.2902 22.8892 27.277 24.0414 28.5472 24.7975C25.9794 25.6356 23.7791 27.4056 22.3513 29.875C22.2989 29.9604 22.2642 30.0554 22.2491 30.1544C22.2341 30.2534 22.239 30.3544 22.2636 30.4515C22.2883 30.5486 22.3321 30.6397 22.3925 30.7196C22.4529 30.7995 22.5287 30.8664 22.6155 30.9165C22.7022 30.9666 22.7981 30.9988 22.8975 31.0113C22.9968 31.0237 23.0977 31.0161 23.1941 30.989C23.2905 30.9618 23.3805 30.9156 23.4587 30.8531C23.537 30.7906 23.6019 30.713 23.6497 30.625C25.4159 27.5725 28.5378 25.75 32 25.75C35.4622 25.75 38.5841 27.5725 40.3503 30.625C40.3981 30.713 40.4631 30.7906 40.5413 30.8531C40.6196 30.9156 40.7095 30.9618 40.8059 30.989C40.9023 31.0161 41.0032 31.0237 41.1026 31.0113C41.2019 30.9988 41.2978 30.9666 41.3845 30.9165C41.4713 30.8664 41.5471 30.7995 41.6075 30.7196C41.6679 30.6397 41.7118 30.5486 41.7364 30.4515C41.761 30.3544 41.766 30.2534 41.7509 30.1544C41.7358 30.0554 41.7011 29.9604 41.6488 29.875ZM26.75 19C26.75 17.9616 27.0579 16.9466 27.6348 16.0832C28.2117 15.2199 29.0316 14.547 29.9909 14.1496C30.9502 13.7523 32.0058 13.6483 33.0242 13.8509C34.0426 14.0534 34.9781 14.5535 35.7123 15.2877C36.4465 16.0219 36.9466 16.9574 37.1491 17.9758C37.3517 18.9942 37.2477 20.0498 36.8504 21.0091C36.453 21.9684 35.7801 22.7883 34.9168 23.3652C34.0534 23.9421 33.0384 24.25 32 24.25C30.6081 24.2485 29.2736 23.6949 28.2893 22.7107C27.3051 21.7264 26.7515 20.3919 26.75 19Z" fill="white"/>
<path d="M63.2461 26.6201V28H56.8477V26.6201H63.2461ZM57.1816 15.2031V28H55.4854V15.2031H57.1816ZM66.5947 18.4902V28H64.9599V18.4902H66.5947ZM64.8369 15.9678C64.8369 15.7041 64.916 15.4814 65.0742 15.2998C65.2383 15.1182 65.4785 15.0273 65.7949 15.0273C66.1054 15.0273 66.3427 15.1182 66.5068 15.2998C66.6767 15.4814 66.7617 15.7041 66.7617 15.9678C66.7617 16.2197 66.6767 16.4365 66.5068 16.6182C66.3427 16.7939 66.1054 16.8818 65.7949 16.8818C65.4785 16.8818 65.2383 16.7939 65.0742 16.6182C64.916 16.4365 64.8369 16.2197 64.8369 15.9678ZM71.9824 26.5322L74.5839 18.4902H76.2451L72.8261 28H71.7363L71.9824 26.5322ZM69.8115 18.4902L72.4921 26.5762L72.6767 28H71.5869L68.1415 18.4902H69.8115ZM81.5185 28.1758C80.8564 28.1758 80.2558 28.0645 79.7167 27.8418C79.1835 27.6133 78.7235 27.2939 78.3368 26.8838C77.956 26.4736 77.663 25.9873 77.4579 25.4248C77.2528 24.8623 77.1503 24.2471 77.1503 23.5791V23.21C77.1503 22.4365 77.2646 21.748 77.4931 21.1445C77.7216 20.5352 78.0321 20.0195 78.4247 19.5977C78.8173 19.1758 79.2626 18.8564 79.7607 18.6396C80.2587 18.4229 80.7743 18.3145 81.3075 18.3145C81.9872 18.3145 82.5732 18.4316 83.0653 18.666C83.5634 18.9004 83.9706 19.2285 84.287 19.6504C84.6034 20.0664 84.8378 20.5586 84.9902 21.127C85.1425 21.6895 85.2187 22.3047 85.2187 22.9727V23.7021H78.1171V22.375H83.5927V22.252C83.5693 21.8301 83.4814 21.4199 83.329 21.0215C83.1825 20.623 82.9482 20.2949 82.6259 20.0371C82.3036 19.7793 81.8642 19.6504 81.3075 19.6504C80.9384 19.6504 80.5985 19.7295 80.288 19.8877C79.9775 20.04 79.7109 20.2686 79.4882 20.5732C79.2655 20.8779 79.0927 21.25 78.9696 21.6895C78.8466 22.1289 78.7851 22.6357 78.7851 23.21V23.5791C78.7851 24.0303 78.8466 24.4551 78.9696 24.8535C79.0985 25.2461 79.2831 25.5918 79.5234 25.8906C79.7694 26.1895 80.0653 26.4238 80.411 26.5938C80.7626 26.7637 81.161 26.8486 81.6064 26.8486C82.1806 26.8486 82.6669 26.7314 83.0653 26.4971C83.4638 26.2627 83.8124 25.9492 84.1112 25.5566L85.0956 26.3389C84.8905 26.6494 84.6298 26.9453 84.3134 27.2266C83.997 27.5078 83.6073 27.7363 83.1444 27.9121C82.6874 28.0879 82.1454 28.1758 81.5185 28.1758ZM96.3368 16.3369L92.1004 28H90.369L95.2469 15.2031H96.3631L96.3368 16.3369ZM99.8876 28L95.6424 16.3369L95.6161 15.2031H96.7323L101.628 28H99.8876ZM99.6678 23.2627V24.6514H92.4784V23.2627H99.6678ZM109.142 18.4902H110.619V27.7979C110.619 28.6357 110.449 29.3506 110.109 29.9424C109.769 30.5342 109.295 30.9824 108.685 31.2871C108.082 31.5977 107.385 31.7529 106.594 31.7529C106.265 31.7529 105.879 31.7002 105.433 31.5947C104.994 31.4951 104.56 31.3223 104.133 31.0762C103.711 30.8359 103.356 30.5107 103.069 30.1006L103.922 29.1338C104.32 29.6143 104.736 29.9482 105.17 30.1357C105.609 30.3232 106.043 30.417 106.471 30.417C106.986 30.417 107.431 30.3203 107.806 30.127C108.181 29.9336 108.472 29.6465 108.677 29.2656C108.888 28.8906 108.993 28.4277 108.993 27.877V20.582L109.142 18.4902ZM102.595 23.3506V23.166C102.595 22.4395 102.68 21.7803 102.849 21.1885C103.025 20.5908 103.274 20.0781 103.597 19.6504C103.925 19.2227 104.32 18.8945 104.783 18.666C105.246 18.4316 105.767 18.3145 106.347 18.3145C106.945 18.3145 107.467 18.4199 107.912 18.6309C108.363 18.8359 108.744 19.1377 109.055 19.5361C109.371 19.9287 109.62 20.4033 109.802 20.96C109.983 21.5166 110.109 22.1465 110.18 22.8496V23.6582C110.115 24.3555 109.989 24.9824 109.802 25.5391C109.62 26.0957 109.371 26.5703 109.055 26.9629C108.744 27.3555 108.363 27.6572 107.912 27.8682C107.461 28.0732 106.933 28.1758 106.33 28.1758C105.762 28.1758 105.246 28.0557 104.783 27.8154C104.326 27.5752 103.933 27.2383 103.605 26.8047C103.277 26.3711 103.025 25.8613 102.849 25.2754C102.68 24.6836 102.595 24.042 102.595 23.3506ZM104.221 23.166V23.3506C104.221 23.8252 104.267 24.2705 104.361 24.6865C104.461 25.1025 104.61 25.4688 104.809 25.7852C105.014 26.1016 105.275 26.3506 105.592 26.5322C105.908 26.708 106.286 26.7959 106.725 26.7959C107.264 26.7959 107.71 26.6816 108.061 26.4531C108.413 26.2246 108.691 25.9229 108.896 25.5479C109.107 25.1729 109.271 24.7656 109.389 24.3262V22.208C109.324 21.8857 109.224 21.5752 109.09 21.2764C108.961 20.9717 108.791 20.7021 108.58 20.4678C108.375 20.2275 108.12 20.0371 107.815 19.8965C107.511 19.7559 107.153 19.6855 106.743 19.6855C106.298 19.6855 105.914 19.7793 105.592 19.9668C105.275 20.1484 105.014 20.4004 104.809 20.7227C104.61 21.0391 104.461 21.4082 104.361 21.8301C104.267 22.2461 104.221 22.6914 104.221 23.166ZM116.921 28.1758C116.259 28.1758 115.658 28.0645 115.119 27.8418C114.586 27.6133 114.126 27.2939 113.739 26.8838C113.358 26.4736 113.065 25.9873 112.86 25.4248C112.655 24.8623 112.553 24.2471 112.553 23.5791V23.21C112.553 22.4365 112.667 21.748 112.895 21.1445C113.124 20.5352 113.434 20.0195 113.827 19.5977C114.22 19.1758 114.665 18.8564 115.163 18.6396C115.661 18.4229 116.177 18.3145 116.71 18.3145C117.389 18.3145 117.975 18.4316 118.468 18.666C118.966 18.9004 119.373 19.2285 119.689 19.6504C120.006 20.0664 120.24 20.5586 120.392 21.127C120.545 21.6895 120.621 22.3047 120.621 22.9727V23.7021H113.519V22.375H118.995V22.252C118.971 21.8301 118.884 21.4199 118.731 21.0215C118.585 20.623 118.35 20.2949 118.028 20.0371C117.706 19.7793 117.266 19.6504 116.71 19.6504C116.341 19.6504 116.001 19.7295 115.69 19.8877C115.38 20.04 115.113 20.2686 114.89 20.5732C114.668 20.8779 114.495 21.25 114.372 21.6895C114.249 22.1289 114.187 22.6357 114.187 23.21V23.5791C114.187 24.0303 114.249 24.4551 114.372 24.8535C114.501 25.2461 114.685 25.5918 114.926 25.8906C115.172 26.1895 115.468 26.4238 115.813 26.5938C116.165 26.7637 116.563 26.8486 117.009 26.8486C117.583 26.8486 118.069 26.7314 118.468 26.4971C118.866 26.2627 119.215 25.9492 119.513 25.5566L120.498 26.3389C120.293 26.6494 120.032 26.9453 119.716 27.2266C119.399 27.5078 119.01 27.7363 118.547 27.9121C118.09 28.0879 117.548 28.1758 116.921 28.1758ZM124.031 20.5205V28H122.405V18.4902H123.943L124.031 20.5205ZM123.644 22.8848L122.968 22.8584C122.973 22.208 123.07 21.6074 123.258 21.0566C123.445 20.5 123.709 20.0166 124.049 19.6064C124.388 19.1963 124.793 18.8799 125.261 18.6572C125.736 18.4287 126.261 18.3145 126.835 18.3145C127.303 18.3145 127.725 18.3789 128.1 18.5078C128.475 18.6309 128.795 18.8301 129.058 19.1055C129.328 19.3809 129.533 19.7383 129.674 20.1777C129.814 20.6113 129.885 21.1416 129.885 21.7686V28H128.25V21.751C128.25 21.2529 128.177 20.8545 128.03 20.5557C127.884 20.251 127.67 20.0312 127.388 19.8965C127.107 19.7559 126.761 19.6855 126.351 19.6855C125.947 19.6855 125.578 19.7705 125.244 19.9404C124.916 20.1104 124.632 20.3447 124.391 20.6436C124.157 20.9424 123.972 21.2852 123.838 21.6719C123.709 22.0527 123.644 22.457 123.644 22.8848ZM136.221 18.4902V19.7383H131.08V18.4902H136.221ZM132.82 16.1787H134.446V25.6445C134.446 25.9668 134.496 26.21 134.595 26.374C134.695 26.5381 134.824 26.6465 134.982 26.6992C135.14 26.752 135.31 26.7783 135.492 26.7783C135.627 26.7783 135.767 26.7666 135.914 26.7432C136.066 26.7139 136.18 26.6904 136.257 26.6729L136.265 28C136.136 28.041 135.967 28.0791 135.756 28.1143C135.551 28.1553 135.302 28.1758 135.009 28.1758C134.61 28.1758 134.244 28.0967 133.91 27.9385C133.576 27.7803 133.309 27.5166 133.11 27.1475C132.917 26.7725 132.82 26.2686 132.82 25.6357V16.1787Z" fill="white"/>
</svg>
