<svg width="170" height="44" viewBox="0 0 170 44" fill="none" xmlns="http://www.w3.org/2000/svg">
<rect x="0.5" y="0.5" width="169" height="43" rx="21.5" stroke="#C6007E"/>
<path d="M28.1875 23.8828H29.6875C29.6094 24.6016 29.4036 25.2448 29.0703 25.8125C28.737 26.3802 28.2656 26.8307 27.6562 27.1641C27.0469 27.4922 26.2865 27.6562 25.375 27.6562C24.7083 27.6562 24.1016 27.5312 23.5547 27.2812C23.013 27.0312 22.5469 26.6771 22.1562 26.2188C21.7656 25.7552 21.4635 25.2005 21.25 24.5547C21.0417 23.9036 20.9375 23.1797 20.9375 22.3828V21.25C20.9375 20.4531 21.0417 19.7318 21.25 19.0859C21.4635 18.4349 21.7682 17.8776 22.1641 17.4141C22.5651 16.9505 23.0469 16.5938 23.6094 16.3438C24.1719 16.0938 24.8047 15.9688 25.5078 15.9688C26.3672 15.9688 27.0938 16.1302 27.6875 16.4531C28.2812 16.776 28.7422 17.224 29.0703 17.7969C29.4036 18.3646 29.6094 19.0234 29.6875 19.7734H28.1875C28.1146 19.2422 27.9792 18.7865 27.7812 18.4062C27.5833 18.0208 27.3021 17.724 26.9375 17.5156C26.5729 17.3073 26.0964 17.2031 25.5078 17.2031C25.0026 17.2031 24.5573 17.2995 24.1719 17.4922C23.7917 17.6849 23.4714 17.9583 23.2109 18.3125C22.9557 18.6667 22.763 19.0911 22.6328 19.5859C22.5026 20.0807 22.4375 20.6302 22.4375 21.2344V22.3828C22.4375 22.9401 22.4948 23.4635 22.6094 23.9531C22.7292 24.4427 22.9089 24.8724 23.1484 25.2422C23.388 25.612 23.6927 25.9036 24.0625 26.1172C24.4323 26.3255 24.8698 26.4297 25.375 26.4297C26.0156 26.4297 26.526 26.3281 26.9062 26.125C27.2865 25.9219 27.5729 25.6302 27.7656 25.25C27.9635 24.8698 28.1042 24.4141 28.1875 23.8828ZM32.9795 15.5V27.5H31.5263V15.5H32.9795ZM34.8027 23.3672V23.1875C34.8027 22.5781 34.8912 22.013 35.0683 21.4922C35.2454 20.9661 35.5006 20.5104 35.8339 20.125C36.1673 19.7344 36.5709 19.4323 37.0449 19.2188C37.5188 19 38.0501 18.8906 38.6386 18.8906C39.2324 18.8906 39.7662 19 40.2402 19.2188C40.7193 19.4323 41.1256 19.7344 41.4589 20.125C41.7975 20.5104 42.0553 20.9661 42.2324 21.4922C42.4094 22.013 42.498 22.5781 42.498 23.1875V23.3672C42.498 23.9766 42.4094 24.5417 42.2324 25.0625C42.0553 25.5833 41.7975 26.0391 41.4589 26.4297C41.1256 26.8151 40.7219 27.1172 40.248 27.3359C39.7792 27.5495 39.248 27.6562 38.6542 27.6562C38.0605 27.6562 37.5266 27.5495 37.0527 27.3359C36.5787 27.1172 36.1725 26.8151 35.8339 26.4297C35.5006 26.0391 35.2454 25.5833 35.0683 25.0625C34.8912 24.5417 34.8027 23.9766 34.8027 23.3672ZM36.248 23.1875V23.3672C36.248 23.7891 36.2975 24.1875 36.3964 24.5625C36.4954 24.9323 36.6438 25.2604 36.8417 25.5469C37.0449 25.8333 37.2975 26.0599 37.5996 26.2266C37.9016 26.388 38.2532 26.4688 38.6542 26.4688C39.0501 26.4688 39.3964 26.388 39.6933 26.2266C39.9954 26.0599 40.2454 25.8333 40.4433 25.5469C40.6412 25.2604 40.7897 24.9323 40.8886 24.5625C40.9928 24.1875 41.0449 23.7891 41.0449 23.3672V23.1875C41.0449 22.7708 40.9928 22.3776 40.8886 22.0078C40.7897 21.6328 40.6386 21.3021 40.4355 21.0156C40.2376 20.724 39.9876 20.4948 39.6855 20.3281C39.3886 20.1615 39.0397 20.0781 38.6386 20.0781C38.2428 20.0781 37.8938 20.1615 37.5917 20.3281C37.2949 20.4948 37.0449 20.724 36.8417 21.0156C36.6438 21.3021 36.4954 21.6328 36.3964 22.0078C36.2975 22.3776 36.248 22.7708 36.248 23.1875ZM49.1181 25.2578C49.1181 25.0495 49.0712 24.8568 48.9775 24.6797C48.8889 24.4974 48.704 24.3333 48.4228 24.1875C48.1467 24.0365 47.7301 23.9062 47.1728 23.7969C46.704 23.6979 46.2795 23.5807 45.8993 23.4453C45.5243 23.3099 45.204 23.1458 44.9384 22.9531C44.678 22.7604 44.4775 22.5339 44.3368 22.2734C44.1962 22.013 44.1259 21.7083 44.1259 21.3594C44.1259 21.026 44.1988 20.7109 44.3446 20.4141C44.4957 20.1172 44.7066 19.8542 44.9775 19.625C45.2535 19.3958 45.5842 19.2161 45.9696 19.0859C46.3551 18.9557 46.7847 18.8906 47.2587 18.8906C47.9358 18.8906 48.5139 19.0104 48.9931 19.25C49.4722 19.4896 49.8394 19.8099 50.0946 20.2109C50.3499 20.6068 50.4775 21.0469 50.4775 21.5312H49.0321C49.0321 21.2969 48.9618 21.0703 48.8212 20.8516C48.6858 20.6276 48.4853 20.4427 48.2196 20.2969C47.9592 20.151 47.6389 20.0781 47.2587 20.0781C46.8577 20.0781 46.5321 20.1406 46.2821 20.2656C46.0374 20.3854 45.8577 20.5391 45.7431 20.7266C45.6337 20.9141 45.579 21.112 45.579 21.3203C45.579 21.4766 45.6051 21.6172 45.6571 21.7422C45.7144 21.862 45.8134 21.974 45.954 22.0781C46.0946 22.1771 46.2926 22.2708 46.5478 22.3594C46.803 22.4479 47.1285 22.5365 47.5243 22.625C48.217 22.7812 48.7874 22.9688 49.2353 23.1875C49.6832 23.4062 50.0165 23.6745 50.2353 23.9922C50.454 24.3099 50.5634 24.6953 50.5634 25.1484C50.5634 25.5182 50.4853 25.8568 50.329 26.1641C50.178 26.4714 49.9566 26.737 49.665 26.9609C49.3785 27.1797 49.0347 27.3516 48.6337 27.4766C48.2379 27.5964 47.7926 27.6562 47.2978 27.6562C46.553 27.6562 45.9228 27.5234 45.4071 27.2578C44.8915 26.9922 44.5009 26.6484 44.2353 26.2266C43.9696 25.8047 43.8368 25.3594 43.8368 24.8906H45.29C45.3108 25.2865 45.4254 25.6016 45.6337 25.8359C45.842 26.0651 46.0972 26.2292 46.3993 26.3281C46.7014 26.4219 47.0009 26.4688 47.2978 26.4688C47.6936 26.4688 48.0243 26.4167 48.29 26.3125C48.5608 26.2083 48.7665 26.0651 48.9071 25.8828C49.0478 25.7005 49.1181 25.4922 49.1181 25.2578ZM55.8554 27.6562C55.2668 27.6562 54.733 27.5573 54.2538 27.3594C53.7798 27.1562 53.371 26.8724 53.0272 26.5078C52.6887 26.1432 52.4283 25.7109 52.246 25.2109C52.0637 24.7109 51.9725 24.1641 51.9725 23.5703V23.2422C51.9725 22.5547 52.0741 21.9427 52.2772 21.4062C52.4804 20.8646 52.7564 20.4062 53.1054 20.0312C53.4543 19.6562 53.8501 19.3724 54.2929 19.1797C54.7356 18.987 55.1939 18.8906 55.6679 18.8906C56.272 18.8906 56.7929 18.9948 57.2304 19.2031C57.6731 19.4115 58.035 19.7031 58.3163 20.0781C58.5975 20.4479 58.8059 20.8854 58.9413 21.3906C59.0767 21.8906 59.1444 22.4375 59.1444 23.0312V23.6797H52.8319V22.5H57.6991V22.3906C57.6783 22.0156 57.6001 21.651 57.4647 21.2969C57.3345 20.9427 57.1262 20.651 56.8397 20.4219C56.5533 20.1927 56.1626 20.0781 55.6679 20.0781C55.3397 20.0781 55.0376 20.1484 54.7616 20.2891C54.4856 20.4245 54.2486 20.6276 54.0507 20.8984C53.8528 21.1693 53.6991 21.5 53.5897 21.8906C53.4804 22.2812 53.4257 22.7318 53.4257 23.2422V23.5703C53.4257 23.9714 53.4804 24.349 53.5897 24.7031C53.7043 25.0521 53.8684 25.3594 54.0819 25.625C54.3007 25.8906 54.5637 26.099 54.871 26.25C55.1835 26.401 55.5376 26.4766 55.9335 26.4766C56.4439 26.4766 56.8762 26.3724 57.2304 26.1641C57.5845 25.9557 57.8944 25.6771 58.16 25.3281L59.035 26.0234C58.8528 26.2995 58.621 26.5625 58.3397 26.8125C58.0585 27.0625 57.7121 27.2656 57.3007 27.4219C56.8944 27.5781 56.4126 27.6562 55.8554 27.6562ZM64.7908 16.125H68.5565C69.4106 16.125 70.132 16.2552 70.7205 16.5156C71.3143 16.776 71.7648 17.1615 72.0721 17.6719C72.3846 18.1771 72.5408 18.7995 72.5408 19.5391C72.5408 20.0599 72.4341 20.5365 72.2205 20.9688C72.0122 21.3958 71.7101 21.7604 71.3143 22.0625C70.9237 22.3594 70.4549 22.5807 69.908 22.7266L69.4862 22.8906H65.9471L65.9315 21.6641H68.6033C69.145 21.6641 69.5955 21.5703 69.9549 21.3828C70.3143 21.1901 70.5851 20.9323 70.7674 20.6094C70.9497 20.2865 71.0408 19.9297 71.0408 19.5391C71.0408 19.1016 70.9549 18.7188 70.783 18.3906C70.6112 18.0625 70.3403 17.8099 69.9705 17.6328C69.606 17.4505 69.1346 17.3594 68.5565 17.3594H66.2987V27.5H64.7908V16.125ZM71.4393 27.5L68.6737 22.3438L70.244 22.3359L73.0487 27.4062V27.5H71.4393ZM73.9344 23.3672V23.1875C73.9344 22.5781 74.0229 22.013 74.2 21.4922C74.3771 20.9661 74.6323 20.5104 74.9656 20.125C75.299 19.7344 75.7026 19.4323 76.1766 19.2188C76.6505 19 77.1818 18.8906 77.7703 18.8906C78.3641 18.8906 78.8979 19 79.3719 19.2188C79.851 19.4323 80.2573 19.7344 80.5906 20.125C80.9292 20.5104 81.187 20.9661 81.3641 21.4922C81.5411 22.013 81.6297 22.5781 81.6297 23.1875V23.3672C81.6297 23.9766 81.5411 24.5417 81.3641 25.0625C81.187 25.5833 80.9292 26.0391 80.5906 26.4297C80.2573 26.8151 79.8536 27.1172 79.3797 27.3359C78.9109 27.5495 78.3797 27.6562 77.7859 27.6562C77.1922 27.6562 76.6583 27.5495 76.1844 27.3359C75.7104 27.1172 75.3042 26.8151 74.9656 26.4297C74.6323 26.0391 74.3771 25.5833 74.2 25.0625C74.0229 24.5417 73.9344 23.9766 73.9344 23.3672ZM75.3797 23.1875V23.3672C75.3797 23.7891 75.4292 24.1875 75.5281 24.5625C75.6271 24.9323 75.7755 25.2604 75.9734 25.5469C76.1766 25.8333 76.4292 26.0599 76.7313 26.2266C77.0333 26.388 77.3849 26.4688 77.7859 26.4688C78.1818 26.4688 78.5281 26.388 78.825 26.2266C79.1271 26.0599 79.3771 25.8333 79.575 25.5469C79.7729 25.2604 79.9214 24.9323 80.0203 24.5625C80.1245 24.1875 80.1766 23.7891 80.1766 23.3672V23.1875C80.1766 22.7708 80.1245 22.3776 80.0203 22.0078C79.9214 21.6328 79.7703 21.3021 79.5672 21.0156C79.3693 20.724 79.1193 20.4948 78.8172 20.3281C78.5203 20.1615 78.1714 20.0781 77.7703 20.0781C77.3745 20.0781 77.0255 20.1615 76.7234 20.3281C76.4266 20.4948 76.1766 20.724 75.9734 21.0156C75.7755 21.3021 75.6271 21.6328 75.5281 22.0078C75.4292 22.3776 75.3797 22.7708 75.3797 23.1875ZM88.4998 25.5469V19.0469H89.9529V27.5H88.5701L88.4998 25.5469ZM88.7732 23.7656L89.3748 23.75C89.3748 24.3125 89.3149 24.8333 89.1951 25.3125C89.0805 25.7865 88.893 26.1979 88.6326 26.5469C88.3722 26.8958 88.031 27.1693 87.6092 27.3672C87.1873 27.5599 86.6743 27.6562 86.0701 27.6562C85.6586 27.6562 85.281 27.5964 84.9373 27.4766C84.5987 27.3568 84.3071 27.1719 84.0623 26.9219C83.8175 26.6719 83.6274 26.3464 83.492 25.9453C83.3618 25.5443 83.2967 25.0625 83.2967 24.5V19.0469H84.742V24.5156C84.742 24.8958 84.7836 25.2109 84.867 25.4609C84.9555 25.7057 85.0727 25.901 85.2185 26.0469C85.3696 26.1875 85.5362 26.2865 85.7185 26.3438C85.906 26.401 86.0987 26.4297 86.2967 26.4297C86.9112 26.4297 87.3982 26.3125 87.7576 26.0781C88.117 25.8385 88.3748 25.5182 88.531 25.1172C88.6925 24.7109 88.7732 24.2604 88.7732 23.7656ZM95.5808 19.0469V20.1562H91.0105V19.0469H95.5808ZM92.5574 16.9922H94.0027V25.4062C94.0027 25.6927 94.0469 25.9089 94.1355 26.0547C94.224 26.2005 94.3386 26.2969 94.4792 26.3438C94.6199 26.3906 94.7709 26.4141 94.9324 26.4141C95.0522 26.4141 95.1772 26.4036 95.3074 26.3828C95.4428 26.3568 95.5443 26.3359 95.6121 26.3203L95.6199 27.5C95.5053 27.5365 95.3542 27.5703 95.1667 27.6016C94.9844 27.638 94.7631 27.6562 94.5027 27.6562C94.1485 27.6562 93.823 27.5859 93.5261 27.4453C93.2292 27.3047 92.9923 27.0703 92.8152 26.7422C92.6433 26.4089 92.5574 25.9609 92.5574 25.3984V16.9922ZM98.7321 19.0469V27.5H97.279V19.0469H98.7321ZM97.1696 16.8047C97.1696 16.5703 97.24 16.3724 97.3806 16.2109C97.5264 16.0495 97.74 15.9688 98.0212 15.9688C98.2972 15.9688 98.5082 16.0495 98.654 16.2109C98.8051 16.3724 98.8806 16.5703 98.8806 16.8047C98.8806 17.0286 98.8051 17.2214 98.654 17.3828C98.5082 17.5391 98.2972 17.6172 98.0212 17.6172C97.74 17.6172 97.5264 17.5391 97.3806 17.3828C97.24 17.2214 97.1696 17.0286 97.1696 16.8047ZM102.383 20.8516V27.5H100.938V19.0469H102.305L102.383 20.8516ZM102.04 22.9531L101.438 22.9297C101.443 22.3516 101.529 21.8177 101.696 21.3281C101.863 20.8333 102.097 20.4036 102.399 20.0391C102.701 19.6745 103.061 19.3932 103.477 19.1953C103.899 18.9922 104.365 18.8906 104.876 18.8906C105.292 18.8906 105.667 18.9479 106.001 19.0625C106.334 19.1719 106.618 19.349 106.852 19.5938C107.092 19.8385 107.274 20.1562 107.399 20.5469C107.524 20.9323 107.587 21.4036 107.587 21.9609V27.5H106.133V21.9453C106.133 21.5026 106.068 21.1484 105.938 20.8828C105.808 20.612 105.618 20.4167 105.368 20.2969C105.118 20.1719 104.811 20.1094 104.446 20.1094C104.087 20.1094 103.758 20.1849 103.462 20.3359C103.17 20.487 102.917 20.6953 102.704 20.9609C102.495 21.2266 102.331 21.5312 102.212 21.875C102.097 22.2135 102.04 22.5729 102.04 22.9531ZM113.175 27.6562C112.587 27.6562 112.053 27.5573 111.574 27.3594C111.1 27.1562 110.691 26.8724 110.347 26.5078C110.009 26.1432 109.748 25.7109 109.566 25.2109C109.384 24.7109 109.293 24.1641 109.293 23.5703V23.2422C109.293 22.5547 109.394 21.9427 109.597 21.4062C109.8 20.8646 110.076 20.4062 110.425 20.0312C110.774 19.6562 111.17 19.3724 111.613 19.1797C112.056 18.987 112.514 18.8906 112.988 18.8906C113.592 18.8906 114.113 18.9948 114.55 19.2031C114.993 19.4115 115.355 19.7031 115.636 20.0781C115.918 20.4479 116.126 20.8854 116.261 21.3906C116.397 21.8906 116.465 22.4375 116.465 23.0312V23.6797H110.152V22.5H115.019V22.3906C114.998 22.0156 114.92 21.651 114.785 21.2969C114.655 20.9427 114.446 20.651 114.16 20.4219C113.873 20.1927 113.483 20.0781 112.988 20.0781C112.66 20.0781 112.358 20.1484 112.082 20.2891C111.806 20.4245 111.569 20.6276 111.371 20.8984C111.173 21.1693 111.019 21.5 110.91 21.8906C110.8 22.2812 110.746 22.7318 110.746 23.2422V23.5703C110.746 23.9714 110.8 24.349 110.91 24.7031C111.024 25.0521 111.188 25.3594 111.402 25.625C111.621 25.8906 111.884 26.099 112.191 26.25C112.504 26.401 112.858 26.4766 113.254 26.4766C113.764 26.4766 114.196 26.3724 114.55 26.1641C114.905 25.9557 115.215 25.6771 115.48 25.3281L116.355 26.0234C116.173 26.2995 115.941 26.5625 115.66 26.8125C115.379 27.0625 115.032 27.2656 114.621 27.4219C114.215 27.5781 113.733 27.6562 113.175 27.6562Z" fill="#C6007E"/>
<path d="M141.531 19.5306L139.06 22L141.531 24.4694C141.6 24.5391 141.656 24.6218 141.693 24.7128C141.731 24.8039 141.75 24.9015 141.75 25C141.75 25.0985 141.731 25.1961 141.693 25.2872C141.656 25.3782 141.6 25.4609 141.531 25.5306C141.461 25.6003 141.378 25.6556 141.287 25.6933C141.196 25.731 141.099 25.7504 141 25.7504C140.901 25.7504 140.804 25.731 140.713 25.6933C140.622 25.6556 140.539 25.6003 140.469 25.5306L138 23.0603L135.531 25.5306C135.461 25.6003 135.378 25.6556 135.287 25.6933C135.196 25.731 135.099 25.7504 135 25.7504C134.901 25.7504 134.804 25.731 134.713 25.6933C134.622 25.6556 134.539 25.6003 134.469 25.5306C134.4 25.4609 134.344 25.3782 134.307 25.2872C134.269 25.1961 134.25 25.0985 134.25 25C134.25 24.9015 134.269 24.8039 134.307 24.7128C134.344 24.6218 134.4 24.5391 134.469 24.4694L136.94 22L134.469 19.5306C134.329 19.3899 134.25 19.199 134.25 19C134.25 18.801 134.329 18.6101 134.469 18.4694C134.61 18.3286 134.801 18.2496 135 18.2496C135.199 18.2496 135.39 18.3286 135.531 18.4694L138 20.9397L140.469 18.4694C140.539 18.3997 140.622 18.3444 140.713 18.3067C140.804 18.269 140.901 18.2496 141 18.2496C141.099 18.2496 141.196 18.269 141.287 18.3067C141.378 18.3444 141.461 18.3997 141.531 18.4694C141.6 18.5391 141.656 18.6218 141.693 18.7128C141.731 18.8039 141.75 18.9015 141.75 19C141.75 19.0985 141.731 19.1961 141.693 19.2872C141.656 19.3782 141.6 19.4609 141.531 19.5306ZM147.75 22C147.75 23.9284 147.178 25.8134 146.107 27.4168C145.035 29.0202 143.513 30.2699 141.731 31.0078C139.95 31.7458 137.989 31.9389 136.098 31.5627C134.207 31.1865 132.469 30.2579 131.106 28.8943C129.742 27.5307 128.814 25.7934 128.437 23.9021C128.061 22.0108 128.254 20.0504 128.992 18.2688C129.73 16.4873 130.98 14.9645 132.583 13.8932C134.187 12.8218 136.072 12.25 138 12.25C140.585 12.2527 143.063 13.2808 144.891 15.1087C146.719 16.9366 147.747 19.415 147.75 22ZM146.25 22C146.25 20.3683 145.766 18.7733 144.86 17.4165C143.953 16.0598 142.665 15.0024 141.157 14.378C139.65 13.7536 137.991 13.5902 136.391 13.9085C134.79 14.2268 133.32 15.0126 132.166 16.1664C131.013 17.3202 130.227 18.7902 129.909 20.3905C129.59 21.9908 129.754 23.6496 130.378 25.1571C131.002 26.6646 132.06 27.9531 133.417 28.8596C134.773 29.7661 136.368 30.25 138 30.25C140.187 30.2475 142.284 29.3775 143.831 27.8309C145.378 26.2843 146.248 24.1873 146.25 22Z" fill="#C6007E"/>
</svg>
