<svg width="48" height="48" viewBox="0 0 48 48" fill="none" xmlns="http://www.w3.org/2000/svg">
<rect width="48" height="48" rx="24" fill="#D6F3FF"/>
<path d="M35.5313 23.9978C35.5313 17.639 30.3283 12.436 23.9695 12.436H23.7734C17.4146 12.436 12.2117 17.639 12.2117 23.9978V33.0316C12.2117 34.307 12.9509 35.4678 14.1065 36.0077C20.2771 38.8916 27.5108 38.8633 33.6582 35.9293C34.8017 35.3837 35.5313 34.2303 35.5313 32.9635V23.9978Z" fill="#00B0B9"/>
<path d="M27.046 39.297C25.0638 40.2895 22.7314 40.2979 20.7424 39.3194L20.697 39.297V33.6327H27.046V39.297Z" fill="white"/>
<path d="M27.046 36.1335L20.697 37.9198V35.0608H27.046V36.1335Z" fill="#D6F3FF"/>
<path d="M16.5634 19.4985V28.8238C16.5634 32.8095 19.8244 36.0708 23.8101 36.0708H23.933C27.9187 36.0708 31.1797 32.8095 31.1797 28.8238V19.4985H16.5634Z" fill="white"/>
<path d="M31.1794 19.842V24.8272C28.917 24.1304 27.1645 22.2915 26.7731 20.5178C26.3072 22.6218 23.9245 25.0297 21.0531 25.0297C19.2432 25.0297 17.6261 24.3921 16.5625 23.3933V19.842H31.1794Z" fill="#D6F3FF"/>
<path d="M15.2513 19.7669C15.2513 22.2283 17.8491 24.2238 21.0537 24.2238C23.9253 24.2238 26.308 22.6212 26.7724 20.5172C27.2371 22.6212 29.6201 24.2238 32.4914 24.2238V18.5186H15.3019L15.2513 19.7669Z" fill="#00B0B9"/>
<path d="M23.8715 7.95272C21.0959 7.95272 18.5169 8.53063 16.4141 9.5143C15.4956 9.94397 15.0412 10.9918 15.3367 11.9619L17.2108 17.1125C19.1483 16.339 21.4378 15.8951 23.8715 15.8951C26.3053 15.8951 28.5948 16.339 30.5322 17.1125L32.4063 11.9619C32.7021 10.9918 32.2475 9.94397 31.3289 9.5143C29.2264 8.53063 26.6472 7.95272 23.8715 7.95272Z" fill="#5CEFF7"/>
<path d="M25.5524 11.255H24.6217V10.3243C24.6217 10.0787 24.4227 9.87961 24.177 9.87961H23.566C23.3204 9.87961 23.1213 10.0787 23.1213 10.3243V11.255H22.1907C21.945 11.255 21.746 11.4543 21.746 11.6997V12.3107C21.746 12.5563 21.945 12.7554 22.1907 12.7554H23.1213V13.686C23.1213 13.9317 23.3204 14.1307 23.566 14.1307H24.177C24.4227 14.1307 24.6217 13.9317 24.6217 13.686V12.7554H25.5524C25.798 12.7554 25.9971 12.5563 25.9971 12.3107V11.6997C25.9971 11.4543 25.798 11.255 25.5524 11.255Z" fill="#00B0B9"/>
<path d="M10.4778 25.2888C10.4778 24.1399 11.4092 23.2085 12.5581 23.2085V30.8364C11.4092 30.8364 10.4778 29.905 10.4778 28.7561V25.2888Z" fill="black"/>
<path d="M37.5222 25.2888C37.5222 24.1399 36.5908 23.2085 35.4419 23.2085V30.8364C36.5908 30.8364 37.5222 29.905 37.5222 28.7561V25.2888Z" fill="black"/>
<path fill-rule="evenodd" clip-rule="evenodd" d="M21.3036 32.4789C15.2383 32.1716 12.0551 29.6833 11.1713 28.3149L11.6701 28.0627C12.4401 29.255 15.4251 31.6674 21.3166 31.9705C21.4643 31.3585 22.079 30.8996 22.8148 30.8996C23.6609 30.8996 24.3468 31.5064 24.3468 32.255C24.3468 33.0035 23.6609 33.6103 22.8148 33.6103C22.0549 33.6103 21.4243 33.1209 21.3036 32.4789Z" fill="black"/>
</svg>
