<svg width="234" height="79" viewBox="0 0 234 79" fill="none" xmlns="http://www.w3.org/2000/svg">
<path d="M61.5129 38.7704C61.5129 23.4055 48.9408 10.8334 33.5759 10.8334H33.1021C17.7371 10.8334 5.16504 23.4055 5.16504 38.7704V60.599C5.16504 63.6809 6.95126 66.4857 9.74353 67.7904C24.6537 74.7588 42.1327 74.6903 56.9869 67.6008C59.7499 66.2825 61.5129 63.4956 61.5129 60.4345V38.7704Z" fill="#00B0B9"/>
<path d="M41.0096 75.738C36.2201 78.1364 30.5843 78.1566 25.7781 75.7923L25.6685 75.738V62.0514H41.0096V75.738Z" fill="white"/>
<path d="M41.0096 68.0934L25.6685 72.4097V65.5014H41.0096V68.0934Z" fill="#D6F3FF"/>
<path d="M15.6802 27.8987V50.4317C15.6802 60.0625 23.5599 67.9429 33.1907 67.9429H33.4875C43.1183 67.9429 50.9981 60.0625 50.9981 50.4317V27.8987H15.6802Z" fill="white"/>
<path d="M50.9978 28.729V40.7748C45.5313 39.0911 41.2967 34.6479 40.3508 30.3621C39.225 35.446 33.4676 41.2642 26.5295 41.2642C22.1561 41.2642 18.2487 39.7235 15.6787 37.3103V28.729H50.9978Z" fill="#D6F3FF"/>
<path d="M12.5103 28.5467C12.5103 34.4943 18.7874 39.3159 26.5306 39.3159C33.4693 39.3159 39.2267 35.4437 40.3489 30.3598C41.4718 35.4437 47.2298 39.3159 54.1679 39.3159V25.5304H12.6324L12.5103 28.5467Z" fill="#00B0B9"/>
<path d="M33.339 0.000144958C26.6322 0.000144958 20.4004 1.39658 15.3195 3.77344C13.1 4.81167 12.0021 7.34349 12.7161 9.68757L17.2446 22.1333C21.9262 20.2642 27.4583 19.1914 33.339 19.1914C39.2198 19.1914 44.7519 20.2642 49.4335 22.1333L53.9619 9.68757C54.6765 7.34349 53.5781 4.81167 51.3586 3.77344C46.2783 1.39658 40.0459 0.000144958 33.339 0.000144958Z" fill="#5CEFF7"/>
<path d="M37.4006 7.97943H35.1519V5.73071C35.1519 5.13709 34.6709 4.65612 34.0773 4.65612H32.601C32.0074 4.65612 31.5264 5.13709 31.5264 5.73071V7.97943H29.2777C28.6841 7.97943 28.2031 8.461 28.2031 9.05402V10.5303C28.2031 11.1239 28.6841 11.6049 29.2777 11.6049H31.5264V13.8536C31.5264 14.4472 32.0074 14.9282 32.601 14.9282H34.0773C34.6709 14.9282 35.1519 14.4472 35.1519 13.8536V11.6049H37.4006C37.9943 11.6049 38.4752 11.1239 38.4752 10.5303V9.05402C38.4752 8.461 37.9943 7.97943 37.4006 7.97943Z" fill="#00B0B9"/>
<path d="M0.975098 41.8901C0.975098 39.1139 3.22567 36.8633 6.00189 36.8633V55.2948C3.22567 55.2948 0.975098 53.0443 0.975098 50.2681V41.8901Z" fill="black"/>
<path d="M66.3237 41.8901C66.3237 39.1139 64.0732 36.8633 61.2969 36.8633V55.2948C64.0732 55.2948 66.3237 53.0443 66.3237 50.2681V41.8901Z" fill="black"/>
<path fill-rule="evenodd" clip-rule="evenodd" d="M27.1345 59.2632C12.4787 58.5205 4.78692 52.508 2.65137 49.2016L3.85663 48.5923C5.71735 51.4732 12.9301 57.3024 27.1658 58.0348C27.5227 56.556 29.0079 55.447 30.7859 55.447C32.8304 55.447 34.4877 56.9133 34.4877 58.722C34.4877 60.5308 32.8304 61.9971 30.7859 61.9971C28.9498 61.9971 27.426 60.8144 27.1345 59.2632Z" fill="black"/>
<path d="M222.326 33.8013C219.929 33.8013 217.865 33.3157 216.135 32.3445C214.415 31.3631 213.09 29.9771 212.159 28.1864C211.228 26.3855 210.763 24.2559 210.763 21.7975C210.763 19.3997 211.228 17.2954 212.159 15.4844C213.09 13.6735 214.4 12.2622 216.089 11.2505C217.789 10.2388 219.782 9.73291 222.068 9.73291C223.606 9.73291 225.038 9.98078 226.363 10.4765C227.699 10.9621 228.862 11.6956 229.854 12.677C230.855 13.6583 231.634 14.8926 232.191 16.3798C232.747 17.8569 233.025 19.5869 233.025 21.5698V23.3454H213.343V19.339H226.94C226.94 18.4083 226.737 17.5837 226.333 16.8654C225.928 16.1471 225.367 15.5856 224.648 15.1809C223.94 14.7661 223.116 14.5587 222.175 14.5587C221.193 14.5587 220.323 14.7864 219.565 15.2416C218.816 15.6868 218.229 16.2887 217.804 17.0475C217.379 17.7962 217.162 18.6308 217.152 19.5515V23.3606C217.152 24.5139 217.364 25.5104 217.789 26.3501C218.224 27.1898 218.836 27.8373 219.625 28.2926C220.414 28.7479 221.35 28.9755 222.433 28.9755C223.151 28.9755 223.809 28.8743 224.406 28.672C225.002 28.4697 225.513 28.1661 225.938 27.7615C226.363 27.3568 226.687 26.861 226.909 26.2743L232.889 26.6688C232.585 28.1054 231.963 29.3599 231.022 30.4324C230.091 31.4946 228.887 32.3242 227.41 32.9211C225.943 33.5079 224.249 33.8013 222.326 33.8013Z" fill="#00B0B9"/>
<path d="M195.303 33.3476V10.038H201.571V14.105H201.814C202.238 12.6583 202.952 11.5656 203.953 10.8271C204.955 10.0784 206.108 9.7041 207.413 9.7041C207.737 9.7041 208.086 9.72434 208.46 9.7648C208.835 9.80527 209.164 9.86092 209.447 9.93173V15.6681C209.143 15.577 208.723 15.4961 208.187 15.4253C207.651 15.3545 207.16 15.3191 206.715 15.3191C205.764 15.3191 204.914 15.5265 204.166 15.9413C203.427 16.3459 202.84 16.9125 202.405 17.6409C201.98 18.3693 201.768 19.2091 201.768 20.1601V33.3476H195.303Z" fill="#00B0B9"/>
<path d="M177.16 33.7861C175.673 33.7861 174.347 33.5282 173.184 33.0122C172.02 32.4861 171.1 31.7122 170.422 30.6903C169.754 29.6584 169.42 28.3735 169.42 26.8357C169.42 25.5408 169.658 24.4532 170.134 23.573C170.609 22.6928 171.257 21.9846 172.076 21.4484C172.896 20.9122 173.826 20.5075 174.868 20.2344C175.921 19.9612 177.023 19.769 178.177 19.6577C179.532 19.5161 180.625 19.3846 181.455 19.2632C182.284 19.1316 182.886 18.9394 183.26 18.6865C183.635 18.4336 183.822 18.0592 183.822 17.5635V17.4724C183.822 16.5113 183.518 15.7677 182.911 15.2416C182.315 14.7155 181.465 14.4525 180.362 14.4525C179.199 14.4525 178.273 14.7105 177.585 15.2265C176.897 15.7323 176.442 16.3697 176.219 17.1386L170.24 16.653C170.543 15.2366 171.14 14.0124 172.031 12.9805C172.921 11.9384 174.069 11.1392 175.475 10.5827C176.892 10.0162 178.531 9.73291 180.392 9.73291C181.687 9.73291 182.927 9.88467 184.11 10.1882C185.304 10.4917 186.361 10.9621 187.282 11.5995C188.213 12.2369 188.946 13.0564 189.482 14.0579C190.019 15.0494 190.287 16.2382 190.287 17.6242V33.3461H184.156V30.1137H183.974C183.599 30.8421 183.099 31.4845 182.471 32.041C181.844 32.5873 181.09 33.0173 180.21 33.3309C179.33 33.6344 178.313 33.7861 177.16 33.7861ZM179.011 29.3245C179.962 29.3245 180.802 29.1374 181.53 28.763C182.259 28.3786 182.831 27.8626 183.245 27.2151C183.66 26.5676 183.868 25.8342 183.868 25.0147V22.5411C183.665 22.6726 183.387 22.794 183.033 22.9053C182.689 23.0065 182.299 23.1026 181.864 23.1936C181.429 23.2746 180.994 23.3504 180.559 23.4212C180.124 23.482 179.73 23.5376 179.376 23.5882C178.617 23.6995 177.954 23.8765 177.388 24.1193C176.821 24.3621 176.381 24.6909 176.067 25.1057C175.754 25.5104 175.597 26.0163 175.597 26.6233C175.597 27.5035 175.916 28.1763 176.553 28.6416C177.2 29.0969 178.02 29.3245 179.011 29.3245Z" fill="#00B0B9"/>
<path d="M155.964 33.8013C153.576 33.8013 151.523 33.2955 149.803 32.2838C148.093 31.262 146.778 29.8456 145.857 28.0346C144.946 26.2237 144.491 24.1396 144.491 21.7823C144.491 19.3947 144.952 17.3005 145.872 15.4996C146.803 13.6887 148.123 12.2773 149.833 11.2656C151.543 10.2438 153.576 9.73291 155.934 9.73291C157.967 9.73291 159.748 10.1022 161.275 10.8407C162.803 11.5793 164.012 12.6163 164.902 13.9517C165.793 15.2872 166.283 16.8553 166.374 18.6561H160.274C160.102 17.4927 159.647 16.5568 158.908 15.8487C158.18 15.1303 157.223 14.7712 156.04 14.7712C155.038 14.7712 154.163 15.0444 153.414 15.5907C152.676 16.1269 152.099 16.9109 151.684 17.9429C151.27 18.9748 151.062 20.2243 151.062 21.6912C151.062 23.1784 151.265 24.4431 151.669 25.4851C152.084 26.5272 152.666 27.3214 153.414 27.8677C154.163 28.414 155.038 28.6872 156.04 28.6872C156.778 28.6872 157.441 28.5354 158.028 28.2319C158.625 27.9284 159.115 27.4883 159.5 26.9116C159.894 26.3248 160.152 25.6217 160.274 24.8022H166.374C166.273 26.5828 165.788 28.151 164.917 29.5066C164.058 30.8522 162.869 31.9044 161.351 32.6632C159.834 33.4219 158.038 33.8013 155.964 33.8013Z" fill="#00B0B9"/>
<path d="M125.942 42.0893C125.122 42.0893 124.353 42.0236 123.635 41.892C122.927 41.7706 122.34 41.6138 121.875 41.4216L123.332 36.5958C124.09 36.8285 124.773 36.9549 125.38 36.9752C125.997 36.9954 126.528 36.8538 126.974 36.5502C127.429 36.2467 127.798 35.7308 128.081 35.0023L128.461 34.0159L120.099 10.0386H126.898L131.724 27.1566H131.966L136.838 10.0386H143.682L134.622 35.8673C134.187 37.1219 133.595 38.2145 132.847 39.1453C132.108 40.0861 131.172 40.8095 130.039 41.3154C128.906 41.8313 127.54 42.0893 125.942 42.0893Z" fill="#C6007E"/>
<path d="M83.8096 33.3456V10.0359H89.9708V14.1485H90.244C90.7296 12.7827 91.539 11.7052 92.6721 10.9161C93.8052 10.127 95.1609 9.73242 96.7391 9.73242C98.3376 9.73242 99.6984 10.132 100.821 10.9313C101.944 11.7204 102.693 12.7928 103.067 14.1485H103.31C103.786 12.8131 104.646 11.7457 105.89 10.9465C107.144 10.1371 108.627 9.73242 110.336 9.73242C112.512 9.73242 114.277 10.4254 115.633 11.8115C116.998 13.1874 117.681 15.14 117.681 17.6692V33.3456H111.232V18.944C111.232 17.649 110.888 16.6778 110.2 16.0303C109.512 15.3828 108.652 15.059 107.62 15.059C106.446 15.059 105.531 15.4334 104.873 16.182C104.216 16.9206 103.887 17.8969 103.887 19.1109V33.3456H97.6193V18.8074C97.6193 17.6642 97.2905 16.7536 96.6329 16.0758C95.9854 15.398 95.1305 15.059 94.0682 15.059C93.3499 15.059 92.7024 15.2411 92.1258 15.6054C91.5592 15.9595 91.109 16.4602 90.7751 17.1077C90.4413 17.7451 90.2744 18.4938 90.2744 19.3537V33.3456H83.8096Z" fill="#C6007E"/>
<path d="M195.884 78.4106C195.065 78.4106 194.296 78.3448 193.577 78.2133C192.869 78.0919 192.282 77.9351 191.817 77.7429L185.222 76.6919C187.855 77.4994 195.12 76.1825 196.959 73.8291C197.722 72.8536 197.961 71.4859 198.403 70.3372L190.041 46.3599H196.84L201.666 63.4779H201.909L206.78 46.3599H213.624L204.564 72.1886C204.129 73.4431 203.538 74.5358 202.789 75.4666C202.05 76.4074 201.115 77.1308 199.981 77.6367C198.848 78.1526 197.483 78.4106 195.884 78.4106Z" fill="#C6007E"/>
<path d="M173.316 70.0497C171.545 70.0497 169.942 69.5944 168.505 68.6839C167.079 67.7633 165.945 66.4126 165.106 64.632C164.276 62.8413 163.861 60.6459 163.861 58.0459C163.861 55.375 164.291 53.1543 165.151 51.3838C166.011 49.6032 167.154 48.2728 168.581 47.3926C170.018 46.5023 171.591 46.0572 173.301 46.0572C174.606 46.0572 175.693 46.2798 176.563 46.7249C177.443 47.1599 178.152 47.7063 178.688 48.3639C179.234 49.0114 179.649 49.6487 179.932 50.276H180.13V38.5908H186.579V69.6703H180.205V65.9371H179.932C179.629 66.5846 179.199 67.2271 178.642 67.8644C178.096 68.4917 177.383 69.0127 176.503 69.4275C175.632 69.8423 174.57 70.0497 173.316 70.0497ZM175.364 64.9052C176.406 64.9052 177.287 64.6219 178.005 64.0554C178.733 63.4787 179.29 62.6744 179.674 61.6425C180.069 60.6105 180.266 59.4015 180.266 58.0155C180.266 56.6295 180.074 55.4256 179.689 54.4037C179.305 53.3819 178.749 52.5928 178.02 52.0363C177.292 51.4799 176.406 51.2017 175.364 51.2017C174.302 51.2017 173.407 51.49 172.678 52.0667C171.95 52.6434 171.399 53.4426 171.024 54.4644C170.65 55.4863 170.463 56.6699 170.463 58.0155C170.463 59.3712 170.65 60.5701 171.024 61.6121C171.409 62.644 171.96 63.4534 172.678 64.0402C173.407 64.6169 174.302 64.9052 175.364 64.9052Z" fill="#C6007E"/>
<path d="M146.147 70.0497C144.376 70.0497 142.773 69.5944 141.336 68.6839C139.91 67.7633 138.776 66.4126 137.937 64.632C137.107 62.8413 136.692 60.6459 136.692 58.0459C136.692 55.375 137.122 53.1543 137.982 51.3838C138.842 49.6032 139.985 48.2728 141.412 47.3926C142.849 46.5023 144.422 46.0572 146.132 46.0572C147.437 46.0572 148.524 46.2798 149.394 46.7249C150.274 47.1599 150.983 47.7063 151.519 48.3639C152.065 49.0114 152.48 49.6487 152.763 50.276H152.961V38.5908H159.41V69.6703H153.036V65.9371H152.763C152.46 66.5846 152.03 67.2271 151.473 67.8644C150.927 68.4917 150.214 69.0127 149.334 69.4275C148.464 69.8423 147.401 70.0497 146.147 70.0497ZM148.195 64.9052C149.238 64.9052 150.118 64.6219 150.836 64.0554C151.564 63.4787 152.121 62.6744 152.505 61.6425C152.9 60.6105 153.097 59.4015 153.097 58.0155C153.097 56.6295 152.905 55.4256 152.52 54.4037C152.136 53.3819 151.58 52.5928 150.851 52.0363C150.123 51.4799 149.238 51.2017 148.195 51.2017C147.133 51.2017 146.238 51.49 145.509 52.0667C144.781 52.6434 144.23 53.4426 143.855 54.4644C143.481 55.4863 143.294 56.6699 143.294 58.0155C143.294 59.3712 143.481 60.5701 143.855 61.6121C144.24 62.644 144.791 63.4534 145.509 64.0402C146.238 64.6169 147.133 64.9052 148.195 64.9052Z" fill="#C6007E"/>
<path d="M125.923 59.7447V46.3599H132.388V69.6695H126.181V65.4355H125.938C125.412 66.8013 124.537 67.899 123.313 68.7286C122.099 69.5582 120.617 69.973 118.866 69.973C117.308 69.973 115.938 69.6189 114.754 68.9107C113.57 68.2025 112.644 67.1959 111.977 65.8908C111.319 64.5857 110.985 63.0226 110.975 61.2015V46.3599H117.44V60.0482C117.45 61.4241 117.819 62.5117 118.548 63.3109C119.276 64.1102 120.252 64.5098 121.477 64.5098C122.256 64.5098 122.984 64.3328 123.662 63.9787C124.34 63.6145 124.886 63.0783 125.301 62.3701C125.726 61.6619 125.933 60.7867 125.923 59.7447Z" fill="#C6007E"/>
<path d="M83.9282 69.6703V38.5908H90.393V50.276H90.5903C90.8736 49.6487 91.2833 49.0114 91.8195 48.3639C92.3658 47.7063 93.074 47.1599 93.9441 46.7249C94.8243 46.2798 95.9169 46.0572 97.222 46.0572C98.9217 46.0572 100.49 46.5023 101.926 47.3926C103.363 48.2728 104.511 49.6032 105.371 51.3838C106.231 53.1543 106.661 55.375 106.661 58.0459C106.661 60.6459 106.241 62.8413 105.402 64.632C104.572 66.4126 103.439 67.7633 102.002 68.6839C100.576 69.5944 98.9773 70.0497 97.2068 70.0497C95.9523 70.0497 94.885 69.8423 94.0048 69.4275C93.1347 69.0127 92.4215 68.4917 91.865 67.8644C91.3086 67.2271 90.8837 66.5846 90.5903 65.9371H90.302V69.6703H83.9282ZM90.2564 58.0155C90.2564 59.4015 90.4486 60.6105 90.8331 61.6425C91.2175 62.6744 91.774 63.4787 92.5024 64.0554C93.2308 64.6219 94.1161 64.9052 95.1581 64.9052C96.2103 64.9052 97.1006 64.6169 97.829 64.0402C98.5575 63.4534 99.1088 62.644 99.4832 61.6121C99.8676 60.5701 100.06 59.3712 100.06 58.0155C100.06 56.6699 99.8727 55.4863 99.4983 54.4644C99.124 53.4426 98.5726 52.6434 97.8442 52.0667C97.1158 51.49 96.2204 51.2017 95.1581 51.2017C94.106 51.2017 93.2157 51.4799 92.4872 52.0363C91.7689 52.5928 91.2175 53.3819 90.8331 54.4037C90.4486 55.4256 90.2564 56.6295 90.2564 58.0155Z" fill="#C6007E"/>
<rect x="0.975098" y="76.0684" width="196.045" height="1.6756" fill="url(#paint0_linear_111_25259)"/>
<defs>
<linearGradient id="paint0_linear_111_25259" x1="0.975098" y1="76.9062" x2="197.02" y2="76.9062" gradientUnits="userSpaceOnUse">
<stop stop-color="#00B0B9"/>
<stop offset="1" stop-color="#C6007E"/>
</linearGradient>
</defs>
</svg>
