<svg width="60" height="59" viewBox="0 0 60 59" fill="none" xmlns="http://www.w3.org/2000/svg">
<path d="M47.318 12.5974C45.075 10.3697 42.4072 8.59882 39.4673 7.38631C36.5274 6.17379 33.3732 5.54341 30.1852 5.53125H30C23.5353 5.53125 17.3355 8.05652 12.7643 12.5515C8.19307 17.0465 5.625 23.1431 5.625 29.5V42.4062C5.625 43.8732 6.21763 45.2801 7.27252 46.3174C8.32742 47.3547 9.75816 47.9375 11.25 47.9375H15C16.4918 47.9375 17.9226 47.3547 18.9775 46.3174C20.0324 45.2801 20.625 43.8732 20.625 42.4062V33.1875C20.625 31.7205 20.0324 30.3136 18.9775 29.2763C17.9226 28.239 16.4918 27.6562 15 27.6562H9.45938C9.82097 23.8119 11.2895 20.1485 13.6927 17.0955C16.096 14.0425 19.3344 11.7263 23.0285 10.4185C26.7226 9.11066 30.7193 8.86533 34.5501 9.71128C38.3809 10.5572 41.8871 12.4594 44.6578 15.1948C48.0443 18.5419 50.1273 22.9525 50.543 27.6562H45C43.5082 27.6562 42.0774 28.239 41.0225 29.2763C39.9676 30.3136 39.375 31.7205 39.375 33.1875V42.4062C39.375 43.8732 39.9676 45.2801 41.0225 46.3174C42.0774 47.3547 43.5082 47.9375 45 47.9375H50.625C50.625 49.4045 50.0324 50.8114 48.9775 51.8487C47.9226 52.886 46.4918 53.4688 45 53.4688H31.875C31.3777 53.4688 30.9008 53.663 30.5492 54.0088C30.1975 54.3545 30 54.8235 30 55.3125C30 55.8015 30.1975 56.2705 30.5492 56.6162C30.9008 56.962 31.3777 57.1562 31.875 57.1562H45C47.4864 57.1562 49.871 56.185 51.6291 54.4561C53.3873 52.7273 54.375 50.3825 54.375 47.9375V29.5C54.3872 26.3646 53.7701 23.2577 52.5592 20.3573C51.3482 17.4568 49.5671 14.8198 47.318 12.5974ZM15 31.3438C15.4973 31.3438 15.9742 31.538 16.3258 31.8838C16.6775 32.2295 16.875 32.6985 16.875 33.1875V42.4062C16.875 42.8952 16.6775 43.3642 16.3258 43.71C15.9742 44.0557 15.4973 44.25 15 44.25H11.25C10.7527 44.25 10.2758 44.0557 9.92418 43.71C9.57254 43.3642 9.375 42.8952 9.375 42.4062V31.3438H15ZM45 44.25C44.5027 44.25 44.0258 44.0557 43.6742 43.71C43.3225 43.3642 43.125 42.8952 43.125 42.4062V33.1875C43.125 32.6985 43.3225 32.2295 43.6742 31.8838C44.0258 31.538 44.5027 31.3438 45 31.3438H50.625V44.25H45Z" fill="#00B0B9"/>
</svg>
