<svg width="33" height="32" viewBox="0 0 33 32" fill="none" xmlns="http://www.w3.org/2000/svg">
<path d="M26.1216 6.8325C24.9051 5.62422 23.4582 4.66377 21.8636 4.00613C20.2691 3.3485 18.5583 3.00659 16.8292 3H16.7288C13.2226 3 9.85993 4.36964 7.38063 6.80761C4.90134 9.24558 3.50848 12.5522 3.50848 16V23C3.50848 23.7956 3.82991 24.5587 4.40206 25.1213C4.9742 25.6839 5.7502 26 6.55933 26H8.59323C9.40237 26 10.1784 25.6839 10.7505 25.1213C11.3227 24.5587 11.6441 23.7956 11.6441 23V18C11.6441 17.2044 11.3227 16.4413 10.7505 15.8787C10.1784 15.3161 9.40237 15 8.59323 15H5.58815C5.78427 12.9149 6.58073 10.928 7.88419 9.27213C9.18766 7.61626 10.9441 6.36004 12.9477 5.65071C14.9513 4.94137 17.1189 4.80832 19.1967 5.26713C21.2744 5.72595 23.1761 6.75763 24.6788 8.24125C26.5156 10.0566 27.6453 12.4488 27.8708 15H24.8644C24.0553 15 23.2793 15.3161 22.7071 15.8787C22.135 16.4413 21.8136 17.2044 21.8136 18V23C21.8136 23.7956 22.135 24.5587 22.7071 25.1213C23.2793 25.6839 24.0553 26 24.8644 26H27.9153C27.9153 26.7956 27.5938 27.5587 27.0217 28.1213C26.4496 28.6839 25.6736 29 24.8644 29H17.7458C17.4761 29 17.2174 29.1054 17.0267 29.2929C16.836 29.4804 16.7288 29.7348 16.7288 30C16.7288 30.2652 16.836 30.5196 17.0267 30.7071C17.2174 30.8946 17.4761 31 17.7458 31H24.8644C26.213 31 27.5063 30.4732 28.4599 29.5355C29.4135 28.5979 29.9492 27.3261 29.9492 26V16C29.9558 14.2995 29.6211 12.6144 28.9643 11.0412C28.3075 9.46811 27.3415 8.03788 26.1216 6.8325ZM8.59323 17C8.86294 17 9.12161 17.1054 9.31232 17.2929C9.50304 17.4804 9.61018 17.7348 9.61018 18V23C9.61018 23.2652 9.50304 23.5196 9.31232 23.7071C9.12161 23.8946 8.86294 24 8.59323 24H6.55933C6.28962 24 6.03096 23.8946 5.84024 23.7071C5.64953 23.5196 5.54238 23.2652 5.54238 23V17H8.59323ZM24.8644 24C24.5947 24 24.336 23.8946 24.1453 23.7071C23.9546 23.5196 23.8475 23.2652 23.8475 23V18C23.8475 17.7348 23.9546 17.4804 24.1453 17.2929C24.336 17.1054 24.5947 17 24.8644 17H27.9153V24H24.8644Z" fill="#646464"/>
</svg>
