<svg width="32" height="32" viewBox="0 0 32 32" fill="none" xmlns="http://www.w3.org/2000/svg">
<path d="M28.4412 9.92308C27.8825 9.57113 27.1959 9.54 26.6105 9.8378L24.6345 10.8354C23.9038 11.2036 23.4505 11.9481 23.4505 12.7765V20.5546C23.4505 21.383 23.9038 22.1261 24.6345 22.497L26.6092 23.4933C26.8772 23.6314 27.1639 23.6977 27.4505 23.6977C27.7945 23.6977 28.1359 23.6002 28.4412 23.4094C28.9999 23.0588 29.3332 22.451 29.3332 21.785V11.5488C29.3332 10.8828 28.9999 10.275 28.4412 9.92308Z" fill="white"/>
<path d="M15.8733 26.6665H8.15056C4.92119 26.6665 2.6665 24.4398 2.6665 21.252V12.0811C2.6665 8.89188 4.92119 6.6665 8.15056 6.6665H15.8733C19.1027 6.6665 21.3574 8.89188 21.3574 12.0811V21.252C21.3574 24.4398 19.1027 26.6665 15.8733 26.6665Z" fill="white"/>
</svg>
