<svg width="32" height="32" viewBox="0 0 32 32" fill="none" xmlns="http://www.w3.org/2000/svg">
<path fill-rule="evenodd" clip-rule="evenodd" d="M3 9C3 6.79086 4.79086 5 7 5H25C27.2091 5 29 6.79086 29 9V23C29 25.2091 27.2091 27 25 27H7C4.79086 27 3 25.2091 3 23V9ZM16.1332 9.0088C16.3132 9.0328 16.488 9.10589 16.6364 9.22807L22.303 13.8947C22.7293 14.2458 22.7903 14.876 22.4392 15.3024C22.0882 15.7287 21.4579 15.7897 21.0316 15.4386L17 12.1184V21.3333C17 21.8856 16.5523 22.3333 16 22.3333C15.4477 22.3333 15 21.8856 15 21.3333V12.1195L10.9697 15.4386C10.5434 15.7897 9.91315 15.7287 9.56205 15.3024C9.21096 14.876 9.27195 14.2458 9.69828 13.8947L15.342 9.24697C15.5178 9.09318 15.748 9 16 9C15.9998 9 16.0002 9 16 9C16.0443 8.99999 16.0892 9.00293 16.1332 9.0088Z" fill="white"/>
</svg>
