<svg width="32" height="32" viewBox="0 0 32 32" fill="none" xmlns="http://www.w3.org/2000/svg">
<path fill-rule="evenodd" clip-rule="evenodd" d="M3.33597 16C3.33225 17.6396 3.25909 19.8758 4.27342 20.7117C5.21954 21.4914 5.88543 21.2905 7.61276 21.4173C9.34133 21.5453 12.9894 26.6265 15.8018 25.0193C17.2526 23.8784 17.3605 21.4867 17.3605 16C17.3605 10.5134 17.2526 8.12164 15.8018 6.98078C12.9894 5.37234 9.34133 10.4548 7.61276 10.5827C5.88543 10.7095 5.21954 10.5086 4.27342 11.2883C3.25909 12.1242 3.33225 14.3605 3.33597 16Z" fill="white"/>
<path fill-rule="evenodd" clip-rule="evenodd" d="M25.5423 7.05033C25.9959 6.73524 26.619 6.84752 26.9341 7.3011C30.5718 12.5379 30.5843 19.4497 26.9337 24.6981C26.6183 25.1515 25.9951 25.2634 25.5418 24.948C25.0884 24.6326 24.9765 24.0094 25.2918 23.556C28.4637 18.9959 28.4539 12.9947 25.2915 8.44213C24.9764 7.98854 25.0887 7.36541 25.5423 7.05033Z" fill="white"/>
<path fill-rule="evenodd" clip-rule="evenodd" d="M22.2786 10.2178C22.7579 9.94345 23.3688 10.1096 23.6432 10.5889C25.5675 13.9504 25.5683 18.059 23.6425 21.4125C23.3675 21.8914 22.7563 22.0567 22.2774 21.7817C21.7984 21.5067 21.6331 20.8955 21.9082 20.4165C23.4792 17.6807 23.48 14.3295 21.9075 11.5825C21.6331 11.1032 21.7992 10.4922 22.2786 10.2178Z" fill="white"/>
</svg>
