<svg width="32" height="32" viewBox="0 0 32 32" fill="none" xmlns="http://www.w3.org/2000/svg">
<path d="M26.0415 13.1011C25.3286 13.1011 24.7499 13.6712 24.7499 14.3766C24.7499 19.1407 20.8247 23.0171 16.0005 23.0171C11.175 23.0171 7.24975 19.1407 7.24975 14.3766C7.24975 13.6712 6.6711 13.1011 5.95813 13.1011C5.24515 13.1011 4.6665 13.6712 4.6665 14.3766C4.6665 20.1165 9.06577 24.8551 14.7089 25.4916V28.058C14.7089 28.7621 15.2862 29.3335 16.0005 29.3335C16.7135 29.3335 17.2921 28.7621 17.2921 28.058V25.4916C22.9339 24.8551 27.3332 20.1165 27.3332 14.3766C27.3332 13.6712 26.7545 13.1011 26.0415 13.1011Z" fill="white"/>
<path d="M15.7662 20.2893H16.2338C19.437 20.2893 22.0357 17.7242 22.0357 14.5608V8.3962C22.0357 5.23032 19.437 2.6665 16.2338 2.6665H15.7662C12.563 2.6665 9.96425 5.23032 9.96425 8.3962V14.5608C9.96425 17.7242 12.563 20.2893 15.7662 20.2893Z" fill="white"/>
</svg>
