<svg width="32" height="32" viewBox="0 0 32 32" fill="none" xmlns="http://www.w3.org/2000/svg">
<path fill-rule="evenodd" clip-rule="evenodd" d="M26.912 8.72437L27.7419 10.1645V10.1767C28.4349 11.391 28.0212 12.9369 26.8143 13.6428C26.4282 13.8639 26.108 14.1841 25.8868 14.5703C25.5467 15.1541 25.4533 15.8494 25.6274 16.5023C25.8015 17.1551 26.2287 17.7116 26.8143 18.0486C27.4 18.3855 27.8272 18.942 28.0013 19.5948C28.1754 20.2477 28.082 20.943 27.7419 21.5268L26.8632 22.9913C26.1569 24.2055 24.6019 24.6201 23.3849 23.9189C23.0125 23.706 22.5932 23.5886 22.1645 23.5772C21.487 23.5739 20.8363 23.8416 20.3572 24.3206C19.8782 24.7997 19.6105 25.4504 19.6137 26.1279C19.607 27.5318 18.467 28.6664 17.063 28.6664H15.391C13.9823 28.6664 12.8403 27.5244 12.8403 26.1157C12.8358 25.6859 12.7179 25.2649 12.4986 24.8952C12.164 24.3104 11.6097 23.8834 10.9588 23.7093C10.3079 23.5351 9.61445 23.6281 9.0325 23.9677C8.44053 24.2995 7.74072 24.3818 7.08793 24.1963C6.43515 24.0107 5.8832 23.5727 5.55424 22.9791L4.71214 21.5268C4.01198 20.3134 4.42708 18.7623 5.63967 18.0608C6.42888 17.6051 6.91505 16.763 6.91505 15.8518C6.91505 14.9405 6.42888 14.0984 5.63967 13.6428C4.42554 12.9365 4.01089 11.3815 4.71214 10.1645L5.60306 8.69996C6.30516 7.4814 7.86109 7.06103 9.08132 7.76022C9.45095 7.9796 9.87196 8.09748 10.3018 8.10195C11.6963 8.10209 12.8325 6.98224 12.8525 5.58783C12.8492 4.91247 13.1153 4.26364 13.5917 3.78493C14.0681 3.30623 14.7156 3.03711 15.391 3.03711H17.063C17.7524 3.03683 18.4125 3.31559 18.893 3.8099C19.3736 4.30421 19.6335 4.97197 19.6137 5.66106C19.6182 6.09087 19.7361 6.51187 19.9555 6.8815C20.2965 7.46303 20.8548 7.88504 21.5073 8.05446C22.1598 8.22388 22.8529 8.1268 23.4337 7.78463C24.654 7.08543 26.2099 7.50581 26.912 8.72437ZM20 16C20 18.2091 18.2091 20 16 20C13.7909 20 12 18.2091 12 16C12 13.7909 13.7909 12 16 12C18.2091 12 20 13.7909 20 16Z" fill="white"/>
</svg>
