<svg width="32" height="32" viewBox="0 0 32 32" fill="none" xmlns="http://www.w3.org/2000/svg">
<path d="M18.9998 4C18.4476 4 17.9998 4.44772 17.9998 5C17.9998 5.55229 18.4476 6 18.9998 6H24.5869L19.9607 10.6262C19.5702 11.0168 19.5702 11.6499 19.9607 12.0404C20.3512 12.431 20.9844 12.431 21.3749 12.0404L25.9998 7.41552V13C25.9998 13.5523 26.4476 14 26.9998 14C27.5521 14 27.9998 13.5523 27.9998 13V5.0512C28.0137 4.77849 27.9165 4.50118 27.7083 4.29289C27.5129 4.09756 27.2569 3.99993 27.0009 4H18.9998Z" fill="white"/>
<path d="M5.99984 19C5.99984 18.4477 5.55212 18 4.99984 18C4.44755 18 3.99984 18.4477 3.99984 19V27C3.99967 27.2561 4.0973 27.513 4.29273 27.7084C4.50103 27.9167 4.77835 28.0139 5.05106 28H12.9998C13.5521 28 13.9998 27.5523 13.9998 27C13.9998 26.4477 13.5521 26 12.9998 26H7.41536L12.0403 21.3751C12.4308 20.9846 12.4308 20.3514 12.0403 19.9609C11.6498 19.5703 11.0166 19.5703 10.6261 19.9609L5.99984 24.5871V19Z" fill="white"/>
<path d="M26.9998 18C27.5521 18 27.9998 18.4477 27.9998 19V27C28.0001 27.2562 27.9024 27.5129 27.7069 27.7084C27.4987 27.9167 27.2213 28.0139 26.9486 28H18.9998C18.4476 28 17.9998 27.5523 17.9998 27C17.9998 26.4477 18.4476 26 18.9998 26H24.5843L19.9594 21.3751C19.5689 20.9846 19.5689 20.3514 19.9594 19.9609C20.3499 19.5703 20.9831 19.5703 21.3736 19.9609L25.9998 24.5871V19C25.9998 18.4477 26.4476 18 26.9998 18Z" fill="white"/>
<path d="M12.9998 6C13.5521 6 13.9998 5.55229 13.9998 5C13.9998 4.44772 13.5521 4 12.9998 4H4.99984C4.99958 4 5.0001 4 4.99984 4C4.74374 3.99987 4.48682 4.0975 4.29143 4.29289C4.08314 4.50118 3.98594 4.7785 3.99984 5.05121L3.99984 13C3.99984 13.5523 4.44755 14 4.99984 14C5.55212 14 5.99984 13.5523 5.99984 13L5.99984 7.41552L10.6248 12.0404C11.0153 12.431 11.6485 12.431 12.039 12.0404C12.4295 11.6499 12.4295 11.0168 12.039 10.6262L7.41275 6L12.9998 6Z" fill="white"/>
</svg>
