<svg width="34" height="33" viewBox="0 0 34 33" fill="none" xmlns="http://www.w3.org/2000/svg">
<path d="M21 15.6655C20.8235 15.7569 20.6178 15.7745 20.4283 15.7144C20.2388 15.6543 20.0809 15.5214 19.9894 15.3449C19.2735 13.9307 18.1899 12.7354 16.8525 11.8846C16.7692 11.832 16.697 11.7635 16.6401 11.6831C16.5832 11.6026 16.5427 11.5117 16.521 11.4156C16.4992 11.3195 16.4966 11.2201 16.5133 11.1229C16.5299 11.0258 16.5656 10.9329 16.6181 10.8496C16.6707 10.7662 16.7392 10.6941 16.8196 10.6372C16.9001 10.5803 16.991 10.5398 17.0871 10.518C17.1832 10.4963 17.2827 10.4937 17.3798 10.5103C17.4769 10.527 17.5698 10.5626 17.6531 10.6152C19.2118 11.6132 20.4775 13.0073 21.3206 14.6549C21.4121 14.8314 21.4296 15.0371 21.3695 15.2266C21.3094 15.4161 21.1765 15.574 21 15.6655ZM3.34783 15.7499C3.48523 15.7498 3.61998 15.712 3.73736 15.6406C3.85474 15.5692 3.95025 15.4669 4.01346 15.3449C4.72933 13.9307 5.81291 12.7354 7.15033 11.8846C7.31866 11.7784 7.43792 11.6097 7.48187 11.4156C7.52583 11.2215 7.49087 11.0179 7.38471 10.8496C7.27854 10.6813 7.10985 10.562 6.91575 10.518C6.72165 10.4741 6.51804 10.509 6.34971 10.6152C4.79102 11.6132 3.52537 13.0073 2.68221 14.6549C2.62299 14.7692 2.59419 14.8968 2.59858 15.0255C2.60297 15.1541 2.6404 15.2795 2.70726 15.3895C2.77413 15.4995 2.86818 15.5904 2.98037 15.6535C3.09256 15.7167 3.2191 15.7498 3.34783 15.7499ZM20.7947 25.4943C20.9276 25.7221 20.998 25.981 20.9989 26.2448C20.9998 26.5085 20.9312 26.7679 20.7999 26.9966C20.6686 27.2254 20.4793 27.4155 20.251 27.5477C20.0228 27.68 19.7638 27.7497 19.5 27.7499H15.675C15.5029 28.5976 15.043 29.3598 14.3732 29.9072C13.7035 30.4546 12.865 30.7537 12 30.7537C11.135 30.7537 10.2966 30.4546 9.62682 29.9072C8.95707 29.3598 8.49715 28.5976 8.32502 27.7499H4.50002C4.23641 27.7494 3.9776 27.6794 3.74965 27.547C3.5217 27.4146 3.33266 27.2245 3.20158 26.9958C3.0705 26.7671 3.002 26.5079 3.00299 26.2443C3.00398 25.9807 3.07441 25.722 3.20721 25.4943C4.05189 24.0365 4.50002 21.9636 4.50002 19.4999C4.50002 17.5108 5.29019 15.6031 6.69672 14.1966C8.10324 12.7901 10.0109 11.9999 12 11.9999C13.9891 11.9999 15.8968 12.7901 17.3033 14.1966C18.7098 15.6031 19.5 17.5108 19.5 19.4999C19.5 21.9627 19.9481 24.0355 20.7947 25.4943ZM14.1206 27.7499H9.87939C10.0348 28.1881 10.3221 28.5674 10.7018 28.8357C11.0816 29.1039 11.5351 29.2479 12 29.2479C12.465 29.2479 12.9185 29.1039 13.2982 28.8357C13.6779 28.5674 13.9653 28.1881 14.1206 27.7499ZM19.5 26.2499C18.5025 24.5371 18 22.2665 18 19.4999C18 17.9086 17.3679 16.3825 16.2427 15.2573C15.1174 14.132 13.5913 13.4999 12 13.4999C10.4087 13.4999 8.8826 14.132 7.75738 15.2573C6.63216 16.3825 6.00002 17.9086 6.00002 19.4999C6.00002 22.2674 5.49564 24.538 4.50002 26.2499H19.5Z" fill="black"/>
<path opacity="0.3" fill-rule="evenodd" clip-rule="evenodd" d="M20.9243 20.541C26.4472 20.541 30.9243 16.0639 30.9243 10.541C30.9243 5.01817 26.4472 0.541016 20.9243 0.541016C15.4015 0.541016 10.9243 5.01817 10.9243 10.541C10.9243 16.0639 15.4015 20.541 20.9243 20.541Z" fill="#C6007E"/>
<path fill-rule="evenodd" clip-rule="evenodd" d="M20.7346 18.2787C25.0481 18.2787 28.5449 14.7557 28.5449 10.4099C28.5449 6.06402 25.0481 2.54102 20.7346 2.54102C16.4211 2.54102 12.9243 6.06402 12.9243 10.4099C12.9243 14.7557 16.4211 18.2787 20.7346 18.2787Z" fill="#C6007E"/>
<path d="M20.7416 14.661C19.6936 14.661 18.8816 14.293 18.3056 13.557C17.7376 12.821 17.4536 11.789 17.4536 10.461C17.4536 9.02902 17.7736 7.92102 18.4136 7.13702C19.0616 6.35302 19.9536 5.96102 21.0896 5.96102C21.5376 5.96102 21.9816 6.04502 22.4216 6.21302C22.8616 6.37302 23.2376 6.60502 23.5496 6.90902L23.0456 8.06102C22.7496 7.78902 22.4336 7.58902 22.0976 7.46102C21.7616 7.32502 21.4176 7.25701 21.0656 7.25701C20.3696 7.25701 19.8376 7.50102 19.4696 7.98902C19.1016 8.47702 18.9176 9.20502 18.9176 10.173V10.521C19.0856 10.081 19.3576 9.73702 19.7336 9.48902C20.1096 9.24102 20.5416 9.11702 21.0296 9.11702C21.5176 9.11702 21.9496 9.23302 22.3256 9.46502C22.7016 9.69702 22.9976 10.017 23.2136 10.425C23.4296 10.833 23.5376 11.301 23.5376 11.829C23.5376 12.373 23.4176 12.861 23.1776 13.293C22.9456 13.717 22.6176 14.053 22.1936 14.301C21.7776 14.541 21.2936 14.661 20.7416 14.661ZM20.6576 13.437C21.0896 13.437 21.4376 13.297 21.7016 13.017C21.9736 12.729 22.1096 12.353 22.1096 11.889C22.1096 11.425 21.9736 11.049 21.7016 10.761C21.4376 10.473 21.0896 10.329 20.6576 10.329C20.2256 10.329 19.8736 10.473 19.6016 10.761C19.3376 11.049 19.2056 11.425 19.2056 11.889C19.2056 12.353 19.3376 12.729 19.6016 13.017C19.8736 13.297 20.2256 13.437 20.6576 13.437Z" fill="white"/>
</svg>
