<svg width="24" height="24" viewBox="0 0 24 24" fill="none" xmlns="http://www.w3.org/2000/svg">
<path d="M12 2.24988C10.0716 2.24988 8.18657 2.82171 6.58319 3.89305C4.97982 4.96439 3.73013 6.48713 2.99218 8.26871C2.25422 10.0503 2.06114 12.0107 2.43735 13.902C2.81355 15.7933 3.74215 17.5306 5.10571 18.8942C6.46928 20.2577 8.20656 21.1863 10.0979 21.5625C11.9892 21.9387 13.9496 21.7457 15.7312 21.0077C17.5127 20.2697 19.0355 19.0201 20.1068 17.4167C21.1782 15.8133 21.75 13.9282 21.75 11.9999C21.7473 9.41486 20.7192 6.93649 18.8913 5.1086C17.0634 3.28071 14.585 2.25261 12 2.24988ZM12 20.2499C10.3683 20.2499 8.77326 19.766 7.41655 18.8595C6.05984 17.953 5.00242 16.6645 4.378 15.157C3.75358 13.6495 3.5902 11.9907 3.90853 10.3904C4.22685 8.79004 5.01259 7.32003 6.16637 6.16625C7.32016 5.01246 8.79017 4.22673 10.3905 3.9084C11.9909 3.59007 13.6497 3.75345 15.1571 4.37787C16.6646 5.00229 17.9531 6.05972 18.8596 7.41642C19.7661 8.77313 20.25 10.3682 20.25 11.9999C20.2475 14.1872 19.3775 16.2841 17.8309 17.8308C16.2843 19.3774 14.1873 20.2474 12 20.2499ZM13.5 16.4999C13.5 16.6988 13.421 16.8896 13.2803 17.0302C13.1397 17.1709 12.9489 17.2499 12.75 17.2499C12.3522 17.2499 11.9706 17.0918 11.6893 16.8105C11.408 16.5292 11.25 16.1477 11.25 15.7499V11.9999C11.0511 11.9999 10.8603 11.9209 10.7197 11.7802C10.579 11.6396 10.5 11.4488 10.5 11.2499C10.5 11.051 10.579 10.8602 10.7197 10.7195C10.8603 10.5789 11.0511 10.4999 11.25 10.4999C11.6478 10.4999 12.0294 10.6579 12.3107 10.9392C12.592 11.2205 12.75 11.6021 12.75 11.9999V15.7499C12.9489 15.7499 13.1397 15.8289 13.2803 15.9695C13.421 16.1102 13.5 16.301 13.5 16.4999ZM10.5 7.87488C10.5 7.65237 10.566 7.43487 10.6896 7.24986C10.8132 7.06486 10.9889 6.92066 11.1945 6.83551C11.4001 6.75036 11.6263 6.72809 11.8445 6.77149C12.0627 6.8149 12.2632 6.92205 12.4205 7.07938C12.5778 7.23672 12.685 7.43717 12.7284 7.6554C12.7718 7.87363 12.7495 8.09983 12.6644 8.3054C12.5792 8.51096 12.435 8.68667 12.25 8.81028C12.065 8.9339 11.8475 8.99988 11.625 8.99988C11.3266 8.99988 11.0405 8.88135 10.8295 8.67037C10.6185 8.45939 10.5 8.17325 10.5 7.87488Z" fill="#C6007E"/>
</svg>
