<svg width="143" height="48" viewBox="0 0 143 48" fill="none" xmlns="http://www.w3.org/2000/svg">
<path d="M37.0584 23.7334C37.0584 14.3277 29.3624 6.63161 19.9566 6.63161H19.6666C10.2608 6.63161 2.56479 14.3277 2.56479 23.7334V37.0959C2.56479 38.9825 3.65823 40.6995 5.36753 41.4981C14.4949 45.7639 25.1947 45.7219 34.2878 41.3821C35.9792 40.5751 37.0584 38.869 37.0584 36.9952V23.7334Z" fill="#00B0B9"/>
<path d="M24.5073 46.3634C21.5754 47.8316 18.1254 47.844 15.1833 46.3966L15.1161 46.3634V37.9851H24.5073V46.3634Z" fill="white"/>
<path d="M24.5073 41.6842L15.1161 44.3264V40.0975H24.5073V41.6842Z" fill="#D6F3FF"/>
<path d="M9.00159 17.0782V30.8719C9.00159 36.7674 13.8252 41.5914 19.7208 41.5914H19.9025C25.798 41.5914 30.6216 36.7674 30.6216 30.8719V17.0782H9.00159Z" fill="white"/>
<path d="M30.6212 17.5863V24.9602C27.2748 23.9295 24.6826 21.2096 24.1036 18.5859C23.4144 21.6981 19.89 25.2597 15.6428 25.2597C12.9656 25.2597 10.5736 24.3166 9.00043 22.8393V17.5863H30.6212Z" fill="#D6F3FF"/>
<path d="M7.06107 17.4752C7.06107 21.116 10.9036 24.0676 15.6437 24.0676C19.8912 24.0676 23.4157 21.6972 24.1027 18.585C24.79 21.6972 28.3148 24.0676 32.562 24.0676V15.6287H7.13586L7.06107 17.4752Z" fill="#00B0B9"/>
<path d="M19.8116 -2.86102e-05C15.706 -2.86102e-05 11.8912 0.854805 8.78086 2.30981C7.42217 2.94537 6.75012 4.49524 7.18721 5.93018L9.95931 13.5489C12.8252 12.4047 16.2117 11.748 19.8116 11.748C23.4115 11.748 26.798 12.4047 29.6639 13.5489L32.436 5.93018C32.8735 4.49524 32.201 2.94537 30.8424 2.30981C27.7324 0.854805 23.9172 -2.86102e-05 19.8116 -2.86102e-05Z" fill="#5CEFF7"/>
<path d="M22.2979 4.88469H20.9213V3.50813C20.9213 3.14474 20.6269 2.85031 20.2635 2.85031H19.3598C18.9964 2.85031 18.702 3.14474 18.702 3.50813V4.88469H17.3254C16.962 4.88469 16.6676 5.17948 16.6676 5.54251V6.44623C16.6676 6.80962 16.962 7.10405 17.3254 7.10405H18.702V8.48061C18.702 8.844 18.9964 9.13843 19.3598 9.13843H20.2635C20.6269 9.13843 20.9213 8.844 20.9213 8.48061V7.10405H22.2979C22.6613 7.10405 22.9557 6.80962 22.9557 6.44623V5.54251C22.9557 5.17948 22.6613 4.88469 22.2979 4.88469Z" fill="#00B0B9"/>
<path d="M0 25.6431C0 23.9436 1.3777 22.5659 3.07717 22.5659V33.8489C1.3777 33.8489 0 32.4712 0 30.7717V25.6431Z" fill="black"/>
<path d="M40.0032 25.6431C40.0032 23.9436 38.6255 22.5659 36.9261 22.5659V33.8489C38.6255 33.8489 40.0032 32.4712 40.0032 30.7717V25.6431Z" fill="black"/>
<path fill-rule="evenodd" clip-rule="evenodd" d="M16.0132 36.2783C7.04159 35.8237 2.33305 32.1431 1.02576 30.1191L1.76357 29.7461C2.90261 31.5096 7.31791 35.078 16.0324 35.5264C16.2509 34.6211 17.1601 33.9422 18.2485 33.9422C19.5 33.9422 20.5145 34.8398 20.5145 35.9471C20.5145 37.0543 19.5 37.9519 18.2485 37.9519C17.1245 37.9519 16.1917 37.2279 16.0132 36.2783Z" fill="black"/>
<path d="M135.501 20.6917C134.033 20.6917 132.77 20.3944 131.711 19.7998C130.658 19.1991 129.847 18.3506 129.277 17.2544C128.707 16.1521 128.422 14.8484 128.422 13.3434C128.422 11.8757 128.707 10.5875 129.277 9.4789C129.847 8.37032 130.649 7.50637 131.683 6.88705C132.723 6.26773 133.944 5.95807 135.343 5.95807C136.285 5.95807 137.161 6.1098 137.972 6.41327C138.79 6.71054 139.502 7.15955 140.109 7.76029C140.722 8.36103 141.199 9.1166 141.539 10.027C141.88 10.9312 142.05 11.9902 142.05 13.2041V14.291H130.002V11.8385H138.325C138.325 11.2687 138.201 10.764 137.954 10.3243C137.706 9.88455 137.362 9.54083 136.922 9.2931C136.489 9.03918 135.984 8.91222 135.408 8.91222C134.807 8.91222 134.275 9.05157 133.81 9.33026C133.352 9.60276 132.993 9.97125 132.733 10.4357C132.473 10.894 132.339 11.405 132.333 11.9686V14.3003C132.333 15.0063 132.463 15.6163 132.723 16.1304C132.99 16.6444 133.364 17.0408 133.848 17.3195C134.331 17.5982 134.903 17.7375 135.566 17.7375C136.006 17.7375 136.408 17.6756 136.774 17.5517C137.139 17.4279 137.452 17.2421 137.712 16.9943C137.972 16.7466 138.17 16.4431 138.307 16.0839L141.967 16.3255C141.781 17.2049 141.4 17.9729 140.824 18.6293C140.254 19.2796 139.517 19.7875 138.613 20.1529C137.715 20.5121 136.678 20.6917 135.501 20.6917Z" fill="#00B0B9"/>
<path d="M118.959 20.4137V6.14462H122.796V8.63428H122.944C123.205 7.74866 123.641 7.07979 124.254 6.62769C124.867 6.16939 125.573 5.94025 126.372 5.94025C126.571 5.94025 126.784 5.95263 127.013 5.97741C127.243 6.00218 127.444 6.03624 127.617 6.07959V9.59113C127.431 9.53539 127.174 9.48585 126.846 9.44249C126.518 9.39914 126.218 9.37747 125.945 9.37747C125.363 9.37747 124.843 9.50443 124.384 9.75835C123.932 10.0061 123.573 10.3529 123.307 10.7988C123.047 11.2447 122.917 11.7587 122.917 12.3409V20.4137H118.959Z" fill="#00B0B9"/>
<path d="M107.852 20.6824C106.942 20.6824 106.13 20.5244 105.418 20.2086C104.706 19.8866 104.142 19.4128 103.727 18.7873C103.319 18.1556 103.114 17.369 103.114 16.4277C103.114 15.6349 103.26 14.9692 103.551 14.4304C103.842 13.8915 104.238 13.458 104.74 13.1298C105.242 12.8015 105.811 12.5538 106.449 12.3866C107.093 12.2194 107.769 12.1017 108.475 12.0336C109.304 11.9469 109.973 11.8664 110.481 11.7921C110.989 11.7115 111.357 11.5939 111.587 11.439C111.816 11.2842 111.93 11.0551 111.93 10.7516V10.6959C111.93 10.1075 111.745 9.65231 111.373 9.33026C111.008 9.00821 110.487 8.84719 109.812 8.84719C109.1 8.84719 108.533 9.00512 108.112 9.32097C107.691 9.63063 107.412 10.0208 107.276 10.4915L103.616 10.1942C103.802 9.32716 104.167 8.57779 104.712 7.94608C105.257 7.30818 105.96 6.81892 106.821 6.4783C107.688 6.13148 108.691 5.95807 109.831 5.95807C110.624 5.95807 111.382 6.05097 112.107 6.23676C112.838 6.42256 113.485 6.71054 114.048 7.10071C114.618 7.49088 115.067 7.99253 115.395 8.60566C115.724 9.21259 115.888 9.94029 115.888 10.7888V20.413H112.135V18.4342H112.023C111.794 18.8802 111.488 19.2734 111.104 19.614C110.72 19.9485 110.258 20.2117 109.719 20.4037C109.181 20.5895 108.558 20.6824 107.852 20.6824ZM108.985 17.9512C109.568 17.9512 110.082 17.8366 110.528 17.6075C110.974 17.3721 111.323 17.0563 111.577 16.6599C111.831 16.2635 111.958 15.8145 111.958 15.3129V13.7986C111.834 13.8792 111.664 13.9535 111.447 14.0216C111.237 14.0835 110.998 14.1424 110.732 14.1981C110.466 14.2477 110.199 14.2941 109.933 14.3375C109.667 14.3746 109.425 14.4087 109.208 14.4396C108.744 14.5078 108.338 14.6161 107.991 14.7648C107.645 14.9134 107.375 15.1147 107.183 15.3686C106.991 15.6163 106.895 15.926 106.895 16.2976C106.895 16.8364 107.09 17.2483 107.481 17.5331C107.877 17.8118 108.379 17.9512 108.985 17.9512Z" fill="#00B0B9"/>
<path d="M94.8772 20.6917C93.4156 20.6917 92.1584 20.382 91.1056 19.7627C90.0589 19.1372 89.2538 18.2701 88.6902 17.1615C88.1328 16.053 87.8542 14.7772 87.8542 13.3342C87.8542 11.8726 88.1359 10.5906 88.6995 9.48819C89.2693 8.37961 90.0775 7.51566 91.1242 6.89634C92.1708 6.27082 93.4156 5.95807 94.8587 5.95807C96.1035 5.95807 97.1935 6.18412 98.1287 6.63622C99.0638 7.08833 99.8039 7.72313 100.349 8.54063C100.894 9.35813 101.194 10.3181 101.25 11.4205H97.5155C97.4102 10.7082 97.1315 10.1354 96.6794 9.70185C96.2335 9.26214 95.6483 9.04228 94.9237 9.04228C94.3106 9.04228 93.7748 9.20949 93.3165 9.54393C92.8644 9.87217 92.5114 10.3521 92.2575 10.9838C92.0036 11.6155 91.8766 12.3804 91.8766 13.2784C91.8766 14.1888 92.0005 14.963 92.2482 15.6009C92.5021 16.2388 92.8583 16.7249 93.3165 17.0594C93.7748 17.3938 94.3106 17.561 94.9237 17.561C95.3758 17.561 95.7814 17.4681 96.1406 17.2823C96.506 17.0965 96.8064 16.8271 97.0418 16.4741C97.2833 16.1149 97.4412 15.6845 97.5155 15.1828H101.25C101.188 16.2728 100.891 17.2328 100.358 18.0627C99.8318 18.8864 99.1041 19.5304 98.1751 19.9949C97.2461 20.4594 96.1468 20.6917 94.8772 20.6917Z" fill="#00B0B9"/>
<path d="M76.499 25.7654C75.9973 25.7654 75.5267 25.7252 75.0869 25.6446C74.6534 25.5703 74.2942 25.4743 74.0093 25.3567L74.9011 22.4025C75.3656 22.545 75.7837 22.6224 76.1553 22.6348C76.5331 22.6471 76.8582 22.5604 77.1307 22.3746C77.4094 22.1888 77.6354 21.873 77.8088 21.4271L78.0411 20.8232L72.9224 6.14539H77.0842L80.0384 16.6243H80.187L83.1691 6.14539H87.3587L81.8127 21.9566C81.5464 22.7246 81.1841 23.3934 80.7258 23.9632C80.2737 24.5392 79.7009 24.982 79.0072 25.2916C78.3136 25.6075 77.4775 25.7654 76.499 25.7654Z" fill="#C6007E"/>
<path d="M50.7074 20.4128V6.14368H54.4791V8.66121H54.6463C54.9435 7.82513 55.439 7.16556 56.1326 6.68249C56.8263 6.19942 57.6562 5.95789 58.6223 5.95789C59.6008 5.95789 60.4338 6.20252 61.1212 6.69178C61.8087 7.17485 62.267 7.83133 62.4961 8.66121H62.6448C62.9359 7.84371 63.4623 7.19033 64.224 6.70107C64.992 6.20561 65.8993 5.95789 66.9459 5.95789C68.2775 5.95789 69.3582 6.38212 70.1881 7.23059C71.0242 8.07286 71.4422 9.26815 71.4422 10.8164V20.4128H67.494V11.5968C67.494 10.8041 67.2835 10.2095 66.8623 9.81315C66.4412 9.41678 65.9148 9.2186 65.2831 9.2186C64.5647 9.2186 64.0042 9.44775 63.6016 9.90604C63.1991 10.3581 62.9978 10.9558 62.9978 11.699V20.4128H59.1611V11.5132C59.1611 10.8133 58.9598 10.256 58.5573 9.84101C58.1609 9.42607 57.6376 9.2186 56.9873 9.2186C56.5476 9.2186 56.1512 9.33008 55.7982 9.55303C55.4514 9.76979 55.1758 10.0764 54.9714 10.4727C54.767 10.8629 54.6648 11.3212 54.6648 11.8476V20.4128H50.7074Z" fill="#C6007E"/>
<path d="M119.315 48C118.813 48 118.342 47.9597 117.903 47.8792C117.469 47.8049 117.11 47.7089 116.825 47.5912L112.788 46.9479C114.399 47.4422 118.847 46.636 119.973 45.1954C120.439 44.5982 120.586 43.761 120.857 43.0578L115.738 28.3799H119.9L122.854 38.8588H123.003L125.985 28.3799H130.174L124.628 44.1912C124.362 44.9591 124 45.628 123.541 46.1978C123.089 46.7737 122.516 47.2165 121.823 47.5262C121.129 47.842 120.293 48 119.315 48Z" fill="#C6007E"/>
<path d="M105.499 42.8813C104.416 42.8813 103.434 42.6026 102.554 42.0452C101.681 41.4817 100.988 40.6549 100.474 39.5649C99.9657 38.4687 99.7118 37.1247 99.7118 35.5331C99.7118 33.8981 99.975 32.5387 100.501 31.4549C101.028 30.3649 101.728 29.5505 102.601 29.0117C103.48 28.4667 104.443 28.1942 105.49 28.1942C106.289 28.1942 106.955 28.3304 107.487 28.6029C108.026 28.8692 108.46 29.2037 108.788 29.6062C109.122 30.0026 109.376 30.3928 109.55 30.7767H109.67V23.6236H113.619V42.6491H109.717V40.3638H109.55C109.364 40.7601 109.101 41.1534 108.76 41.5436C108.426 41.9276 107.989 42.2465 107.45 42.5004C106.918 42.7544 106.267 42.8813 105.499 42.8813ZM106.753 39.7321C107.391 39.7321 107.93 39.5587 108.37 39.2119C108.816 38.8588 109.156 38.3665 109.392 37.7348C109.633 37.1031 109.754 36.363 109.754 35.5145C109.754 34.6661 109.636 33.9291 109.401 33.3035C109.166 32.678 108.825 32.195 108.379 31.8543C107.933 31.5137 107.391 31.3434 106.753 31.3434C106.103 31.3434 105.555 31.5199 105.109 31.8729C104.663 32.2259 104.326 32.7152 104.097 33.3407C103.867 33.9662 103.753 34.6908 103.753 35.5145C103.753 36.3444 103.867 37.0783 104.097 37.7162C104.332 38.3479 104.669 38.8434 105.109 39.2026C105.555 39.5556 106.103 39.7321 106.753 39.7321Z" fill="#C6007E"/>
<path d="M88.8678 42.8813C87.784 42.8813 86.8024 42.6026 85.923 42.0452C85.0497 41.4817 84.3561 40.6549 83.8421 39.5649C83.3342 38.4687 83.0803 37.1247 83.0803 35.5331C83.0803 33.8981 83.3435 32.5387 83.8699 31.4549C84.3963 30.3649 85.0962 29.5505 85.9694 29.0117C86.8488 28.4667 87.8119 28.1942 88.8585 28.1942C89.6575 28.1942 90.3232 28.3304 90.8558 28.6029C91.3946 28.8692 91.8282 29.2037 92.1564 29.6062C92.4908 30.0026 92.7448 30.3928 92.9182 30.7767H93.0389V23.6236H96.9871V42.6491H93.0854V40.3638H92.9182C92.7324 40.7601 92.4692 41.1534 92.1285 41.5436C91.7941 41.9276 91.3575 42.2465 90.8187 42.5004C90.2861 42.7544 89.6358 42.8813 88.8678 42.8813ZM90.1219 39.7321C90.7598 39.7321 91.2987 39.5587 91.7384 39.2119C92.1843 38.8588 92.5249 38.3665 92.7602 37.7348C93.0018 37.1031 93.1225 36.363 93.1225 35.5145C93.1225 34.6661 93.0049 33.9291 92.7695 33.3035C92.5342 32.678 92.1936 32.195 91.7477 31.8543C91.3018 31.5137 90.7598 31.3434 90.1219 31.3434C89.4717 31.3434 88.9236 31.5199 88.4777 31.8729C88.0317 32.2259 87.6942 32.7152 87.4651 33.3407C87.2359 33.9662 87.1213 34.6908 87.1213 35.5145C87.1213 36.3444 87.2359 37.0783 87.4651 37.7162C87.7004 38.3479 88.0379 38.8434 88.4777 39.2026C88.9236 39.5556 89.4717 39.7321 90.1219 39.7321Z" fill="#C6007E"/>
<path d="M76.4875 36.5735V28.3799H80.4449V42.6491H76.6454V40.0572H76.4968C76.1747 40.8933 75.639 41.5652 74.8896 42.0731C74.1464 42.5809 73.2391 42.8349 72.1677 42.8349C71.214 42.8349 70.3748 42.6181 69.6502 42.1846C68.9256 41.751 68.3589 41.1348 67.9502 40.3359C67.5476 39.537 67.3432 38.5801 67.337 37.4654V28.3799H71.2945V36.7593C71.3007 37.6016 71.5267 38.2674 71.9726 38.7566C72.4185 39.2459 73.0162 39.4905 73.7656 39.4905C74.2424 39.4905 74.6884 39.3821 75.1033 39.1654C75.5182 38.9424 75.8527 38.6142 76.1066 38.1807C76.3667 37.7471 76.4937 37.2114 76.4875 36.5735Z" fill="#C6007E"/>
<path d="M50.7801 42.6491V23.6236H54.7375V30.7767H54.8583C55.0317 30.3928 55.2825 30.0026 55.6107 29.6062C55.9452 29.2037 56.3787 28.8692 56.9113 28.6029C57.4501 28.3304 58.119 28.1942 58.9179 28.1942C59.9584 28.1942 60.9183 28.4667 61.7977 29.0117C62.6772 29.5505 63.3801 30.3649 63.9065 31.4549C64.4329 32.5387 64.6962 33.8981 64.6962 35.5331C64.6962 37.1247 64.4391 38.4687 63.9251 39.5649C63.4173 40.6549 62.7236 41.4817 61.8442 42.0452C60.971 42.6026 59.9924 42.8813 58.9086 42.8813C58.1407 42.8813 57.4873 42.7544 56.9485 42.5004C56.4159 42.2465 55.9792 41.9276 55.6386 41.5436C55.298 41.1534 55.0379 40.7601 54.8583 40.3638H54.6818V42.6491H50.7801ZM54.6539 35.5145C54.6539 36.363 54.7716 37.1031 55.0069 37.7348C55.2423 38.3665 55.5829 38.8588 56.0288 39.2119C56.4747 39.5587 57.0166 39.7321 57.6545 39.7321C58.2986 39.7321 58.8436 39.5556 59.2895 39.2026C59.7354 38.8434 60.0729 38.3479 60.3021 37.7162C60.5374 37.0783 60.6551 36.3444 60.6551 35.5145C60.6551 34.6908 60.5405 33.9662 60.3114 33.3407C60.0822 32.7152 59.7447 32.2259 59.2988 31.8729C58.8529 31.5199 58.3048 31.3434 57.6545 31.3434C57.0104 31.3434 56.4654 31.5137 56.0195 31.8543C55.5798 32.195 55.2423 32.678 55.0069 33.3035C54.7716 33.9291 54.6539 34.6661 54.6539 35.5145Z" fill="#C6007E"/>
<rect y="46.5659" width="120.01" height="1.02572" fill="url(#paint0_linear_96_1137)"/>
<defs>
<linearGradient id="paint0_linear_96_1137" x1="0" y1="47.0788" x2="120.01" y2="47.0788" gradientUnits="userSpaceOnUse">
<stop stop-color="#00B0B9"/>
<stop offset="1" stop-color="#C6007E"/>
</linearGradient>
</defs>
</svg>
