<svg width="24" height="25" viewBox="0 0 24 25" fill="none" xmlns="http://www.w3.org/2000/svg">
<path d="M10.5 8C10.5 7.70333 10.588 7.41332 10.7528 7.16665C10.9176 6.91997 11.1519 6.72771 11.426 6.61418C11.7001 6.50065 12.0017 6.47094 12.2926 6.52882C12.5836 6.5867 12.8509 6.72956 13.0607 6.93934C13.2704 7.14912 13.4133 7.41639 13.4712 7.70736C13.5291 7.99834 13.4994 8.29994 13.3858 8.57403C13.2723 8.84811 13.08 9.08238 12.8334 9.2472C12.5867 9.41203 12.2967 9.5 12 9.5C11.6022 9.5 11.2206 9.34196 10.9393 9.06066C10.658 8.77936 10.5 8.39782 10.5 8ZM6 8C6 6.4087 6.63214 4.88258 7.75736 3.75736C8.88258 2.63214 10.4087 2 12 2C13.5913 2 15.1174 2.63214 16.2426 3.75736C17.3679 4.88258 18 6.4087 18 8C18 13.6203 12.6019 16.7694 12.375 16.9016C12.2617 16.9663 12.1334 17.0004 12.0028 17.0004C11.8723 17.0004 11.744 16.9663 11.6306 16.9016C11.3981 16.7694 6 13.625 6 8ZM7.5 8C7.5 11.9563 10.86 14.5822 12 15.3594C13.1391 14.5831 16.5 11.9563 16.5 8C16.5 6.80653 16.0259 5.66193 15.182 4.81802C14.3381 3.97411 13.1935 3.5 12 3.5C10.8065 3.5 9.66193 3.97411 8.81802 4.81802C7.97411 5.66193 7.5 6.80653 7.5 8ZM19.0097 14.3403C18.8251 14.2793 18.624 14.2924 18.4489 14.3768C18.2738 14.4612 18.1382 14.6102 18.0709 14.7926C18.0035 14.975 18.0096 15.1764 18.0879 15.3543C18.1661 15.5323 18.3104 15.6729 18.4903 15.7466C20.0381 16.3194 21 17.0863 21 17.75C21 19.0025 17.5763 20.75 12 20.75C6.42375 20.75 3 19.0025 3 17.75C3 17.0863 3.96187 16.3194 5.50969 15.7475C5.6896 15.6739 5.8339 15.5332 5.91215 15.3553C5.99039 15.1773 5.99648 14.9759 5.92913 14.7935C5.86178 14.6112 5.72624 14.4621 5.5511 14.3777C5.37596 14.2933 5.17491 14.2803 4.99031 14.3412C2.73937 15.1709 1.5 16.3822 1.5 17.75C1.5 20.6731 6.91031 22.25 12 22.25C17.0897 22.25 22.5 20.6731 22.5 17.75C22.5 16.3822 21.2606 15.1709 19.0097 14.3403Z" fill="#C6007E"/>
</svg>
