<svg width="60" height="60" viewBox="0 0 60 60" fill="none" xmlns="http://www.w3.org/2000/svg">
<path d="M33.8133 10.7649C33.877 10.5269 33.9869 10.3038 34.1368 10.1084C34.2866 9.91289 34.4736 9.74887 34.6869 9.62568C34.9002 9.50249 35.1357 9.42253 35.3799 9.39038C35.6241 9.35823 35.8723 9.37451 36.1102 9.4383C39.5861 10.3452 42.7575 12.1623 45.2976 14.7024C47.8377 17.2426 49.6548 20.4139 50.5617 23.8899C50.6255 24.1278 50.6418 24.3759 50.6097 24.6201C50.5775 24.8644 50.4976 25.0998 50.3744 25.3132C50.2512 25.5265 50.0872 25.7134 49.8917 25.8633C49.6962 26.0132 49.4731 26.1231 49.2352 26.1867C49.0768 26.2283 48.9138 26.2496 48.75 26.25C48.3368 26.25 47.9352 26.1135 47.6076 25.8618C47.28 25.61 47.0447 25.2571 46.9383 24.8578C46.1986 22.0203 44.7156 19.4314 42.6422 17.3579C40.5687 15.2844 37.9797 13.8014 35.1422 13.0617C34.904 12.9983 34.6807 12.8886 34.485 12.7388C34.2893 12.589 34.125 12.4021 34.0016 12.1888C33.8781 11.9755 33.798 11.7399 33.7657 11.4956C33.7334 11.2512 33.7496 11.0029 33.8133 10.7649ZM33.2672 20.5617C36.4992 21.4242 38.5758 23.5008 39.4383 26.7328C39.5447 27.1321 39.78 27.485 40.1076 27.7368C40.4352 27.9885 40.8368 28.125 41.25 28.125C41.4138 28.1246 41.5768 28.1033 41.7352 28.0617C41.9731 27.9981 42.1962 27.8882 42.3917 27.7383C42.5872 27.5884 42.7512 27.4015 42.8744 27.1882C42.9976 26.9748 43.0775 26.7394 43.1097 26.4951C43.1418 26.2509 43.1255 26.0028 43.0617 25.7649C41.8617 21.2742 38.7258 18.1383 34.2352 16.9383C33.7547 16.8099 33.2429 16.8777 32.8123 17.1267C32.3818 17.3757 32.0678 17.7855 31.9395 18.266C31.8111 18.7465 31.8789 19.2583 32.1279 19.6889C32.3769 20.1194 32.7867 20.4334 33.2672 20.5617ZM52.4719 42.9094C52.054 46.0852 50.4943 49.0004 48.0842 51.1103C45.674 53.2203 42.5782 54.3808 39.375 54.375C20.7656 54.375 5.62502 39.2344 5.62502 20.625C5.61928 17.4218 6.77976 14.326 8.88971 11.9159C10.9997 9.50572 13.9148 7.94605 17.0906 7.52814C17.8937 7.43008 18.707 7.59438 19.4091 7.99651C20.1111 8.39864 20.6643 9.01704 20.986 9.75939L25.936 20.8102V20.8383C26.1823 21.4065 26.284 22.027 26.232 22.6441C26.1801 23.2612 25.9761 23.8559 25.6383 24.375C25.5961 24.4383 25.5516 24.4969 25.5047 24.5555L20.625 30.3399C22.3805 33.907 26.1117 37.6055 29.7258 39.3656L35.4305 34.5117C35.4865 34.4646 35.5452 34.4208 35.6063 34.3805C36.1249 34.0346 36.7216 33.8234 37.3424 33.7661C37.9632 33.7088 38.5885 33.8072 39.1617 34.0524L39.1922 34.0664L50.2336 39.0141C50.9773 39.3346 51.5972 39.8873 52.0006 40.5895C52.4041 41.2916 52.5694 42.1055 52.4719 42.9094ZM48.75 42.4406C48.75 42.4406 48.7336 42.4406 48.7242 42.4406L37.7086 37.507L32.0016 42.361C31.9462 42.4078 31.8883 42.4517 31.8281 42.4922C31.2885 42.8522 30.6647 43.0661 30.0177 43.1129C29.3707 43.1598 28.7226 43.0379 28.1367 42.7594C23.7469 40.6383 19.3711 36.2953 17.2477 31.9524C16.9665 31.3708 16.8403 30.7264 16.8814 30.0817C16.9224 29.437 17.1294 28.8139 17.4821 28.2727C17.5218 28.2091 17.5665 28.1488 17.6156 28.0922L22.5 22.3008L17.5781 11.2852C17.5772 11.2758 17.5772 11.2664 17.5781 11.257C15.3053 11.5535 13.2185 12.6684 11.7085 14.3928C10.1985 16.1172 9.36888 18.3329 9.37502 20.625C9.38371 28.5788 12.5472 36.2044 18.1714 41.8286C23.7956 47.4528 31.4212 50.6163 39.375 50.625C41.6657 50.6329 43.8808 49.8062 45.6063 48.2994C47.3317 46.7927 48.4492 44.7092 48.75 42.4383V42.4406Z" fill="#C6007E"/>
</svg>
