<svg width="33" height="32" viewBox="0 0 33 32" fill="none" xmlns="http://www.w3.org/2000/svg">
<path d="M18.4914 5.74124C18.5253 5.61433 18.584 5.49535 18.6639 5.39111C18.7439 5.28686 18.8436 5.19938 18.9573 5.13368C19.0711 5.06798 19.1967 5.02533 19.3269 5.00819C19.4572 4.99104 19.5895 4.99972 19.7164 5.03374C21.5702 5.51743 23.2616 6.48655 24.6164 7.84129C25.9711 9.19603 26.9402 10.8874 27.4239 12.7412C27.4579 12.8681 27.4666 13.0005 27.4495 13.1307C27.4323 13.261 27.3897 13.3866 27.324 13.5003C27.2583 13.6141 27.1708 13.7138 27.0665 13.7937C26.9623 13.8737 26.8433 13.9323 26.7164 13.9662C26.6319 13.9884 26.545 13.9998 26.4577 14C26.2373 14 26.0231 13.9272 25.8484 13.7929C25.6736 13.6586 25.5481 13.4704 25.4914 13.2575C25.0969 11.7441 24.306 10.3634 23.2001 9.25752C22.0943 8.15166 20.7135 7.36073 19.2002 6.96624C19.0731 6.93243 18.954 6.87391 18.8496 6.79402C18.7452 6.71414 18.6576 6.61446 18.5918 6.50068C18.526 6.38691 18.4832 6.26127 18.466 6.13096C18.4488 6.00064 18.4574 5.86821 18.4914 5.74124ZM18.2002 10.9662C19.9239 11.4262 21.0314 12.5337 21.4914 14.2575C21.5481 14.4704 21.6736 14.6586 21.8484 14.7929C22.0231 14.9272 22.2373 15 22.4577 15C22.545 14.9998 22.6319 14.9884 22.7164 14.9662C22.8433 14.9323 22.9623 14.8737 23.0665 14.7937C23.1708 14.7138 23.2583 14.6141 23.324 14.5003C23.3897 14.3866 23.4323 14.261 23.4495 14.1307C23.4666 14.0005 23.4579 13.8681 23.4239 13.7412C22.7839 11.3462 21.1114 9.67374 18.7164 9.03374C18.4601 8.96528 18.1872 9.00143 17.9576 9.13423C17.7279 9.26703 17.5605 9.4856 17.492 9.74187C17.4236 9.99813 17.4597 10.2711 17.5925 10.5007C17.7253 10.7303 17.9439 10.8978 18.2002 10.9662ZM28.4427 22.885C28.2198 24.5788 27.3879 26.1335 26.1025 27.2588C24.8171 28.3841 23.166 29.0031 21.4577 29C11.5327 29 3.45765 20.925 3.45765 11C3.45459 9.2916 4.07351 7.64052 5.19882 6.35511C6.32413 5.0697 7.87887 4.23787 9.57265 4.01499C10.001 3.96269 10.4347 4.05032 10.8091 4.26479C11.1836 4.47926 11.4786 4.80907 11.6502 5.20499L14.2902 11.0987V11.1137C14.4215 11.4168 14.4758 11.7477 14.4481 12.0768C14.4204 12.406 14.3116 12.7231 14.1314 13C14.1089 13.0337 14.0852 13.065 14.0602 13.0962L11.4577 16.1812C12.3939 18.0837 14.3839 20.0562 16.3114 20.995L19.3539 18.4062C19.3838 18.3811 19.4151 18.3578 19.4477 18.3362C19.7243 18.1517 20.0425 18.0391 20.3736 18.0086C20.7047 17.978 21.0382 18.0305 21.3439 18.1612L21.3602 18.1687L27.2489 20.8075C27.6455 20.9785 27.9761 21.2732 28.1913 21.6477C28.4065 22.0222 28.4947 22.4562 28.4427 22.885ZM26.4577 22.635C26.4577 22.635 26.4489 22.635 26.4439 22.635L20.5689 20.0037L17.5252 22.5925C17.4956 22.6175 17.4647 22.6409 17.4327 22.6625C17.1448 22.8545 16.8122 22.9686 16.4671 22.9935C16.122 23.0185 15.7764 22.9536 15.4639 22.805C13.1227 21.6737 10.7889 19.3575 9.6564 17.0412C9.50644 16.7311 9.43915 16.3874 9.46105 16.0436C9.48295 15.6997 9.5933 15.3674 9.7814 15.0787C9.80261 15.0448 9.82643 15.0127 9.85265 14.9825L12.4577 11.8937L9.83265 6.01874C9.83216 6.01375 9.83216 6.00873 9.83265 6.00374C8.62047 6.16186 7.5075 6.75645 6.70217 7.67614C5.89684 8.59582 5.45438 9.77754 5.45765 11C5.46229 15.242 7.14948 19.309 10.1491 22.3086C13.1486 25.3082 17.2156 26.9954 21.4577 27C22.6793 27.0042 23.8608 26.5633 24.781 25.7597C25.7012 24.9561 26.2972 23.8449 26.4577 22.6337V22.635Z" fill="#646464"/>
</svg>
