<svg width="32" height="33" viewBox="0 0 32 33" fill="none" xmlns="http://www.w3.org/2000/svg">
<path d="M16 3.5C13.4288 3.5 10.9154 4.26244 8.77759 5.6909C6.63975 7.11935 4.97351 9.14968 3.98957 11.5251C3.00563 13.9006 2.74819 16.5144 3.2498 19.0362C3.75141 21.5579 4.98953 23.8743 6.80762 25.6924C8.6257 27.5105 10.9421 28.7486 13.4638 29.2502C15.9856 29.7518 18.5995 29.4944 20.9749 28.5104C23.3503 27.5265 25.3807 25.8603 26.8091 23.7224C28.2376 21.5846 29 19.0712 29 16.5C28.9964 13.0533 27.6256 9.74882 25.1884 7.31163C22.7512 4.87445 19.4467 3.50364 16 3.5ZM16 27.5C13.8244 27.5 11.6977 26.8549 9.88873 25.6462C8.07979 24.4375 6.66989 22.7195 5.83733 20.7095C5.00477 18.6995 4.78693 16.4878 5.21137 14.354C5.63581 12.2202 6.68345 10.2602 8.22183 8.72183C9.76021 7.18345 11.7202 6.1358 13.854 5.71136C15.9878 5.28692 18.1995 5.50476 20.2095 6.33733C22.2195 7.16989 23.9375 8.57979 25.1462 10.3887C26.3549 12.1977 27 14.3244 27 16.5C26.9967 19.4164 25.8367 22.2123 23.7745 24.2745C21.7123 26.3367 18.9164 27.4967 16 27.5ZM22 16.5C22 16.7652 21.8946 17.0196 21.7071 17.2071C21.5196 17.3946 21.2652 17.5 21 17.5H17V21.5C17 21.7652 16.8946 22.0196 16.7071 22.2071C16.5196 22.3946 16.2652 22.5 16 22.5C15.7348 22.5 15.4804 22.3946 15.2929 22.2071C15.1054 22.0196 15 21.7652 15 21.5V17.5H11C10.7348 17.5 10.4804 17.3946 10.2929 17.2071C10.1054 17.0196 10 16.7652 10 16.5C10 16.2348 10.1054 15.9804 10.2929 15.7929C10.4804 15.6054 10.7348 15.5 11 15.5H15V11.5C15 11.2348 15.1054 10.9804 15.2929 10.7929C15.4804 10.6054 15.7348 10.5 16 10.5C16.2652 10.5 16.5196 10.6054 16.7071 10.7929C16.8946 10.9804 17 11.2348 17 11.5V15.5H21C21.2652 15.5 21.5196 15.6054 21.7071 15.7929C21.8946 15.9804 22 16.2348 22 16.5Z" fill="#C6007E"/>
</svg>
