<svg width="158" height="46" viewBox="0 0 158 46" fill="none" xmlns="http://www.w3.org/2000/svg">
<path d="M25.6348 28H22.5391L22.5586 25.7148H25.6348C26.403 25.7148 27.0508 25.5423 27.5781 25.1973C28.1055 24.8457 28.5026 24.3346 28.7695 23.6641C29.043 22.9935 29.1797 22.1829 29.1797 21.2324V20.5391C29.1797 19.8099 29.1016 19.1686 28.9453 18.6152C28.7956 18.0618 28.571 17.5964 28.2715 17.2188C27.972 16.8411 27.6042 16.5579 27.168 16.3691C26.7318 16.1738 26.2305 16.0762 25.6641 16.0762H22.4805V13.7812H25.6641C26.6146 13.7812 27.4837 13.944 28.2715 14.2695C29.0658 14.5885 29.7526 15.0475 30.332 15.6465C30.9115 16.2454 31.3574 16.9616 31.6699 17.7949C31.9889 18.6217 32.1484 19.543 32.1484 20.5586V21.2324C32.1484 22.2415 31.9889 23.1628 31.6699 23.9961C31.3574 24.8294 30.9115 25.5456 30.332 26.1445C29.7591 26.737 29.0723 27.196 28.2715 27.5215C27.4772 27.8405 26.5983 28 25.6348 28ZM24.1992 13.7812V28H21.2695V13.7812H24.1992ZM39.6904 25.6172V20.9102C39.6904 20.5716 39.6351 20.2819 39.5244 20.041C39.4137 19.7936 39.2412 19.6016 39.0068 19.4648C38.7789 19.3281 38.4827 19.2598 38.1181 19.2598C37.8056 19.2598 37.5355 19.3151 37.3076 19.4258C37.0797 19.5299 36.9039 19.6829 36.7802 19.8848C36.6565 20.0801 36.5947 20.3112 36.5947 20.5781H33.7822C33.7822 20.1289 33.8864 19.7025 34.0947 19.2988C34.303 18.8952 34.6058 18.5404 35.0029 18.2344C35.4 17.9219 35.872 17.6777 36.4189 17.502C36.9723 17.3262 37.5908 17.2383 38.2744 17.2383C39.0947 17.2383 39.8239 17.375 40.4619 17.6484C41.0999 17.9219 41.6012 18.332 41.9658 18.8789C42.3369 19.4258 42.5224 20.1094 42.5224 20.9297V25.4512C42.5224 26.0306 42.5582 26.5059 42.6299 26.877C42.7015 27.2415 42.8056 27.5605 42.9424 27.834V28H40.1006C39.9638 27.7135 39.8597 27.3555 39.7881 26.9258C39.723 26.4896 39.6904 26.0534 39.6904 25.6172ZM40.0615 21.5645L40.081 23.1562H38.5088C38.1377 23.1562 37.8154 23.1986 37.542 23.2832C37.2685 23.3678 37.0439 23.4883 36.8681 23.6445C36.6924 23.7943 36.5621 23.9701 36.4775 24.1719C36.3994 24.3737 36.3603 24.5951 36.3603 24.8359C36.3603 25.0768 36.4157 25.2949 36.5263 25.4902C36.637 25.679 36.7965 25.8288 37.0049 25.9395C37.2132 26.0436 37.4573 26.0957 37.7373 26.0957C38.1605 26.0957 38.5283 26.0111 38.8408 25.8418C39.1533 25.6725 39.3942 25.4642 39.5634 25.2168C39.7392 24.9694 39.8304 24.735 39.8369 24.5137L40.5791 25.7051C40.4749 25.972 40.3317 26.2487 40.1494 26.5352C39.9736 26.8216 39.749 27.0918 39.4756 27.3457C39.2021 27.5931 38.8733 27.7982 38.4892 27.9609C38.1051 28.1172 37.6494 28.1953 37.122 28.1953C36.4515 28.1953 35.8427 28.0618 35.2959 27.7949C34.7555 27.5215 34.3258 27.1471 34.0068 26.6719C33.6943 26.1901 33.5381 25.6432 33.5381 25.0312C33.5381 24.4779 33.6422 23.9863 33.8506 23.5566C34.0589 23.127 34.3649 22.7656 34.7685 22.4727C35.1787 22.1732 35.6898 21.9486 36.3017 21.7988C36.9137 21.6426 37.6233 21.5645 38.4306 21.5645H40.0615ZM47.5449 17.4336V28H44.7226V17.4336H47.5449ZM44.5468 14.6797C44.5468 14.2695 44.69 13.931 44.9765 13.6641C45.263 13.3971 45.6471 13.2637 46.1289 13.2637C46.6041 13.2637 46.985 13.3971 47.2714 13.6641C47.5644 13.931 47.7109 14.2695 47.7109 14.6797C47.7109 15.0898 47.5644 15.4284 47.2714 15.6953C46.985 15.9622 46.6041 16.0957 46.1289 16.0957C45.6471 16.0957 45.263 15.9622 44.9765 15.6953C44.69 15.4284 44.5468 15.0898 44.5468 14.6797ZM52.7235 13V28H49.9013V13H52.7235ZM58.0682 26.8086L60.871 17.4336H63.8886L59.6405 29.5918C59.5494 29.8587 59.4257 30.1452 59.2694 30.4512C59.1197 30.7572 58.9146 31.0469 58.6542 31.3203C58.4003 31.6003 58.078 31.8281 57.6874 32.0039C57.3033 32.1797 56.8313 32.2676 56.2714 32.2676C56.0044 32.2676 55.7863 32.2513 55.6171 32.2188C55.4478 32.1862 55.246 32.1406 55.0116 32.082V30.0215C55.0832 30.0215 55.1581 30.0215 55.2362 30.0215C55.3143 30.028 55.3892 30.0312 55.4608 30.0312C55.8319 30.0312 56.1347 29.9889 56.369 29.9043C56.6034 29.8197 56.7922 29.6895 56.9354 29.5137C57.0787 29.3444 57.1926 29.123 57.2772 28.8496L58.0682 26.8086ZM56.8964 17.4336L59.1913 25.0898L59.5917 28.0684L57.6776 28.2734L53.8788 17.4336H56.8964ZM69.9393 13.7812H75.242C76.3293 13.7812 77.2635 13.944 78.0448 14.2695C78.8325 14.5951 79.438 15.0768 79.8612 15.7148C80.2843 16.3529 80.4959 17.1374 80.4959 18.0684C80.4959 18.8301 80.3657 19.4844 80.1053 20.0312C79.8514 20.5716 79.4901 21.0241 79.0213 21.3887C78.5591 21.7467 78.0155 22.0332 77.3905 22.248L76.4627 22.7363H71.8533L71.8338 20.4512H75.2616C75.7759 20.4512 76.2023 20.36 76.5408 20.1777C76.8794 19.9954 77.1333 19.7415 77.3026 19.416C77.4783 19.0905 77.5662 18.7129 77.5662 18.2832C77.5662 17.8275 77.4816 17.4336 77.3123 17.1016C77.1431 16.7695 76.8859 16.5156 76.5408 16.3398C76.1958 16.1641 75.7629 16.0762 75.242 16.0762H72.869V28H69.9393V13.7812ZM77.8885 28L74.6463 21.6621L77.742 21.6426L81.0233 27.8633V28H77.8885ZM82.0125 22.8242V22.6191C82.0125 21.8444 82.1232 21.1315 82.3445 20.4805C82.5659 19.8229 82.8882 19.2533 83.3113 18.7715C83.7345 18.2897 84.2553 17.9154 84.8738 17.6484C85.4923 17.375 86.202 17.2383 87.0027 17.2383C87.8035 17.2383 88.5164 17.375 89.1414 17.6484C89.7664 17.9154 90.2905 18.2897 90.7137 18.7715C91.1434 19.2533 91.4689 19.8229 91.6902 20.4805C91.9116 21.1315 92.0223 21.8444 92.0223 22.6191V22.8242C92.0223 23.5924 91.9116 24.3053 91.6902 24.9629C91.4689 25.6139 91.1434 26.1836 90.7137 26.6719C90.2905 27.1536 89.7697 27.528 89.1512 27.7949C88.5327 28.0618 87.823 28.1953 87.0223 28.1953C86.2215 28.1953 85.5086 28.0618 84.8836 27.7949C84.2651 27.528 83.741 27.1536 83.3113 26.6719C82.8882 26.1836 82.5659 25.6139 82.3445 24.9629C82.1232 24.3053 82.0125 23.5924 82.0125 22.8242ZM84.825 22.6191V22.8242C84.825 23.2669 84.8641 23.6803 84.9422 24.0645C85.0203 24.4486 85.144 24.7871 85.3133 25.0801C85.4891 25.3665 85.7169 25.5911 85.9969 25.7539C86.2768 25.9167 86.6186 25.998 87.0223 25.998C87.4129 25.998 87.7482 25.9167 88.0281 25.7539C88.3081 25.5911 88.5327 25.3665 88.702 25.0801C88.8712 24.7871 88.9949 24.4486 89.073 24.0645C89.1577 23.6803 89.2 23.2669 89.2 22.8242V22.6191C89.2 22.1895 89.1577 21.7858 89.073 21.4082C88.9949 21.0241 88.868 20.6855 88.6922 20.3926C88.5229 20.0931 88.2983 19.8587 88.0184 19.6895C87.7384 19.5202 87.3999 19.4355 87.0027 19.4355C86.6056 19.4355 86.2671 19.5202 85.9871 19.6895C85.7137 19.8587 85.4891 20.0931 85.3133 20.3926C85.144 20.6855 85.0203 21.0241 84.9422 21.4082C84.8641 21.7858 84.825 22.1895 84.825 22.6191ZM99.8865 25.4707V17.4336H102.699V28H100.053L99.8865 25.4707ZM100.199 23.3027L101.029 23.2832C101.029 23.9863 100.948 24.6406 100.785 25.2461C100.622 25.8451 100.378 26.3659 100.053 26.8086C99.727 27.2448 99.3168 27.5866 98.822 27.834C98.3273 28.0749 97.7446 28.1953 97.074 28.1953C96.5597 28.1953 96.0844 28.1237 95.6482 27.9805C95.2185 27.8307 94.8474 27.5996 94.5349 27.2871C94.2289 26.9681 93.9881 26.5612 93.8123 26.0664C93.643 25.5651 93.5584 24.9629 93.5584 24.2598V17.4336H96.3709V24.2793C96.3709 24.5918 96.4067 24.8555 96.4783 25.0703C96.5564 25.2852 96.6638 25.4609 96.8006 25.5977C96.9373 25.7344 97.0968 25.832 97.2791 25.8906C97.4679 25.9492 97.6762 25.9785 97.9041 25.9785C98.4835 25.9785 98.9392 25.8613 99.2713 25.627C99.6098 25.3926 99.8474 25.0736 99.9842 24.6699C100.127 24.2598 100.199 23.804 100.199 23.3027ZM109.909 17.4336V19.4258H103.757V17.4336H109.909ZM105.28 14.8262H108.093V24.8164C108.093 25.1224 108.132 25.3568 108.21 25.5195C108.294 25.6823 108.418 25.7962 108.581 25.8613C108.744 25.9199 108.949 25.9492 109.196 25.9492C109.372 25.9492 109.528 25.9427 109.665 25.9297C109.808 25.9102 109.928 25.8906 110.026 25.8711L110.036 27.9414C109.795 28.0195 109.535 28.0814 109.255 28.127C108.975 28.1725 108.665 28.1953 108.327 28.1953C107.708 28.1953 107.168 28.0944 106.706 27.8926C106.25 27.6842 105.899 27.3522 105.651 26.8965C105.404 26.4408 105.28 25.8418 105.28 25.0996V14.8262ZM114.365 17.4336V28H111.543V17.4336H114.365ZM111.367 14.6797C111.367 14.2695 111.51 13.931 111.797 13.6641C112.083 13.3971 112.467 13.2637 112.949 13.2637C113.424 13.2637 113.805 13.3971 114.092 13.6641C114.384 13.931 114.531 14.2695 114.531 14.6797C114.531 15.0898 114.384 15.4284 114.092 15.6953C113.805 15.9622 113.424 16.0957 112.949 16.0957C112.467 16.0957 112.083 15.9622 111.797 15.6953C111.51 15.4284 111.367 15.0898 111.367 14.6797ZM119.329 19.6895V28H116.516V17.4336H119.153L119.329 19.6895ZM118.919 22.3457H118.157C118.157 21.5645 118.258 20.8613 118.46 20.2363C118.661 19.6048 118.945 19.0677 119.309 18.625C119.674 18.1758 120.107 17.834 120.608 17.5996C121.116 17.3587 121.682 17.2383 122.307 17.2383C122.802 17.2383 123.255 17.3099 123.665 17.4531C124.075 17.5964 124.426 17.8242 124.719 18.1367C125.019 18.4492 125.247 18.8626 125.403 19.377C125.566 19.8913 125.647 20.5195 125.647 21.2617V28H122.815V21.252C122.815 20.7832 122.75 20.4186 122.62 20.1582C122.49 19.8978 122.298 19.7155 122.044 19.6113C121.796 19.5007 121.49 19.4453 121.126 19.4453C120.748 19.4453 120.419 19.5202 120.139 19.6699C119.866 19.8197 119.638 20.028 119.456 20.2949C119.28 20.5553 119.147 20.8613 119.055 21.2129C118.964 21.5645 118.919 21.9421 118.919 22.3457ZM132.535 28.1953C131.715 28.1953 130.979 28.0651 130.328 27.8047C129.677 27.5378 129.123 27.1699 128.668 26.7012C128.218 26.2324 127.873 25.6888 127.632 25.0703C127.392 24.4453 127.271 23.7812 127.271 23.0781V22.6875C127.271 21.8867 127.385 21.1543 127.613 20.4902C127.841 19.8262 128.166 19.25 128.59 18.7617C129.019 18.2734 129.54 17.8991 130.152 17.6387C130.764 17.3717 131.454 17.2383 132.222 17.2383C132.971 17.2383 133.635 17.362 134.215 17.6094C134.794 17.8568 135.279 18.2083 135.67 18.6641C136.067 19.1198 136.366 19.6667 136.568 20.3047C136.77 20.9362 136.871 21.6393 136.871 22.4141V23.5859H128.472V21.7109H134.107V21.4961C134.107 21.1055 134.035 20.7572 133.892 20.4512C133.756 20.1387 133.547 19.8913 133.267 19.709C132.987 19.5267 132.629 19.4355 132.193 19.4355C131.822 19.4355 131.503 19.5169 131.236 19.6797C130.969 19.8424 130.751 20.0703 130.582 20.3633C130.419 20.6562 130.295 21.0013 130.211 21.3984C130.132 21.7891 130.093 22.2188 130.093 22.6875V23.0781C130.093 23.5013 130.152 23.8919 130.269 24.25C130.393 24.6081 130.565 24.9173 130.787 25.1777C131.015 25.4382 131.288 25.64 131.607 25.7832C131.933 25.9264 132.3 25.998 132.711 25.998C133.218 25.998 133.69 25.9004 134.127 25.7051C134.569 25.5033 134.95 25.2005 135.269 24.7969L136.636 26.2812C136.415 26.6003 136.112 26.9062 135.728 27.1992C135.351 27.4922 134.895 27.7331 134.361 27.9219C133.827 28.1042 133.218 28.1953 132.535 28.1953Z" fill="#C6007E"/>
<path d="M0 46C0 44.3431 1.34315 43 3 43H155C156.657 43 158 44.3431 158 46H0Z" fill="#C6007E"/>
</svg>
