<svg width="30" height="30" viewBox="0 0 30 30" fill="none" xmlns="http://www.w3.org/2000/svg">
<path d="M26.25 15C26.25 15.2487 26.1512 15.4871 25.9754 15.6629C25.7996 15.8388 25.5611 15.9375 25.3125 15.9375H13.125C12.8764 15.9375 12.6379 15.8388 12.4621 15.6629C12.2863 15.4871 12.1875 15.2487 12.1875 15C12.1875 14.7514 12.2863 14.5129 12.4621 14.3371C12.6379 14.1613 12.8764 14.0625 13.125 14.0625H25.3125C25.5611 14.0625 25.7996 14.1613 25.9754 14.3371C26.1512 14.5129 26.25 14.7514 26.25 15ZM13.125 8.43753H25.3125C25.5611 8.43753 25.7996 8.33876 25.9754 8.16295C26.1512 7.98713 26.25 7.74867 26.25 7.50003C26.25 7.25139 26.1512 7.01294 25.9754 6.83712C25.7996 6.66131 25.5611 6.56253 25.3125 6.56253H13.125C12.8764 6.56253 12.6379 6.66131 12.4621 6.83712C12.2863 7.01294 12.1875 7.25139 12.1875 7.50003C12.1875 7.74867 12.2863 7.98713 12.4621 8.16295C12.6379 8.33876 12.8764 8.43753 13.125 8.43753ZM25.3125 21.5625H4.68751C4.43886 21.5625 4.20041 21.6613 4.02459 21.8371C3.84878 22.0129 3.75 22.2514 3.75 22.5C3.75 22.7487 3.84878 22.9871 4.02459 23.1629C4.20041 23.3388 4.43886 23.4375 4.68751 23.4375H25.3125C25.5611 23.4375 25.7996 23.3388 25.9754 23.1629C26.1512 22.9871 26.25 22.7487 26.25 22.5C26.25 22.2514 26.1512 22.0129 25.9754 21.8371C25.7996 21.6613 25.5611 21.5625 25.3125 21.5625ZM4.02422 16.6008C4.11129 16.688 4.21469 16.7571 4.3285 16.8043C4.44231 16.8515 4.5643 16.8758 4.68751 16.8758C4.81071 16.8758 4.9327 16.8515 5.04651 16.8043C5.16032 16.7571 5.26372 16.688 5.35079 16.6008L10.0383 11.9133C10.1255 11.8262 10.1946 11.7228 10.2418 11.609C10.289 11.4952 10.3132 11.3732 10.3132 11.25C10.3132 11.1268 10.289 11.0048 10.2418 10.891C10.1946 10.7772 10.1255 10.6738 10.0383 10.5868L5.35079 5.89925C5.17487 5.72334 4.93628 5.62451 4.68751 5.62451C4.43873 5.62451 4.20014 5.72334 4.02422 5.89925C3.84831 6.07516 3.74948 6.31375 3.74948 6.56253C3.74948 6.81131 3.84831 7.0499 4.02422 7.22581L8.04961 11.25L4.02422 15.2743C3.93706 15.3613 3.86791 15.4647 3.82073 15.5785C3.77355 15.6923 3.74927 15.8143 3.74927 15.9375C3.74927 16.0607 3.77355 16.1827 3.82073 16.2965C3.86791 16.4103 3.93706 16.5137 4.02422 16.6008Z" fill="black"/>
</svg>
