<svg width="60" height="60" viewBox="0 0 60 60" fill="none" xmlns="http://www.w3.org/2000/svg">
<path d="M33.7499 38.8313C36.6892 37.0007 38.9523 34.2625 40.1968 31.0311C41.4412 27.7996 41.5995 24.2508 40.6474 20.9215C39.6954 17.5921 37.6849 14.6634 34.9202 12.5785C32.1554 10.4935 28.7869 9.36572 25.3241 9.36572C21.8613 9.36572 18.4927 10.4935 15.728 12.5785C12.9633 14.6634 10.9528 17.5921 10.0008 20.9215C9.04874 24.2508 9.20694 27.7996 10.4514 31.0311C11.6959 34.2625 13.959 37.0007 16.8983 38.8313C12.0585 40.4157 7.70379 43.3759 4.20222 47.5431C3.8821 47.9238 3.72633 48.4161 3.76919 48.9117C3.81204 49.4073 4.05001 49.8655 4.43074 50.1856C4.81147 50.5058 5.30378 50.6615 5.79936 50.6187C6.29493 50.5758 6.75319 50.3379 7.07332 49.9571C11.7772 44.3415 18.26 41.2501 25.3124 41.2501C32.3647 41.2501 38.8475 44.3415 43.5655 49.9571C43.8856 50.3379 44.3439 50.5758 44.8395 50.6187C45.335 50.6615 45.8274 50.5058 46.2081 50.1856C46.5888 49.8655 46.8268 49.4073 46.8696 48.9117C46.9125 48.4161 46.7567 47.9238 46.4366 47.5431C42.9327 43.3759 38.578 40.4157 33.7499 38.8313ZM13.1249 25.3126C13.1249 22.9021 13.8397 20.5458 15.1788 18.5416C16.518 16.5374 18.4215 14.9753 20.6484 14.0528C22.8754 13.1304 25.3259 12.889 27.69 13.3593C30.0542 13.8295 32.2258 14.9903 33.9302 16.6947C35.6347 18.3992 36.7954 20.5708 37.2657 22.9349C37.736 25.2991 37.4946 27.7496 36.5722 29.9766C35.6497 32.2035 34.0876 34.107 32.0834 35.4461C30.0792 36.7853 27.7228 37.5001 25.3124 37.5001C22.0812 37.4964 18.9834 36.2111 16.6986 33.9264C14.4138 31.6416 13.1286 28.5438 13.1249 25.3126ZM48.5999 15.3751C49.9361 18.5178 50.6248 21.8976 50.6248 25.3126C50.6248 28.7275 49.9361 32.1074 48.5999 35.2501C48.4556 35.5881 48.2152 35.8763 47.9085 36.0788C47.6018 36.2813 47.2424 36.3892 46.8749 36.3892C46.5645 36.3894 46.2589 36.3126 45.9856 36.1656C45.7122 36.0187 45.4796 35.8061 45.3086 35.5471C45.1376 35.2881 45.0336 34.9906 45.0059 34.6815C44.9782 34.3724 45.0277 34.0612 45.1499 33.7759C46.2882 31.0995 46.8749 28.221 46.8749 25.3126C46.8749 22.4042 46.2882 19.5257 45.1499 16.8493C44.9544 16.3918 44.9486 15.8754 45.1339 15.4137C45.3192 14.9519 45.6803 14.5827 46.1378 14.3872C46.5953 14.1917 47.1117 14.186 47.5734 14.3712C48.0352 14.5565 48.4044 14.9176 48.5999 15.3751ZM58.1249 25.3126C58.1337 29.7566 57.2332 34.1554 55.4788 38.2384C55.2736 38.6809 54.904 39.026 54.4485 39.2005C53.9931 39.375 53.4875 39.3651 53.0392 39.173C52.5909 38.9808 52.2351 38.6216 52.0473 38.1714C51.8595 37.7212 51.8546 37.2156 52.0335 36.7618C53.5784 33.1425 54.3749 29.2479 54.3749 25.3126C54.3749 21.3773 53.5784 17.4827 52.0335 13.8634C51.9279 13.6358 51.8691 13.3894 51.8606 13.1387C51.852 12.8879 51.8938 12.6381 51.9836 12.4038C52.0733 12.1696 52.2091 11.9557 52.383 11.7749C52.5569 11.5941 52.7653 11.45 52.9959 11.3512C53.2264 11.2524 53.4745 11.2008 53.7254 11.1996C53.9762 11.1984 54.2248 11.2475 54.4563 11.3441C54.6878 11.4406 54.8976 11.5827 55.0732 11.7618C55.2489 11.9409 55.3868 12.1534 55.4788 12.3868C57.2332 16.4698 58.1337 20.8686 58.1249 25.3126Z" fill="#C6007E"/>
</svg>
