<svg width="33" height="32" viewBox="0 0 33 32" fill="none" xmlns="http://www.w3.org/2000/svg">
<path d="M18.4577 20.71C20.0253 19.7336 21.2323 18.2733 21.896 16.5498C22.5597 14.8264 22.6441 12.9337 22.1363 11.1581C21.6286 9.38242 20.5563 7.82045 19.0818 6.70847C17.6073 5.59649 15.8107 4.995 13.9639 4.995C12.1171 4.995 10.3205 5.59649 8.846 6.70847C7.37147 7.82045 6.29922 9.38242 5.79147 11.1581C5.28372 12.9337 5.36809 14.8264 6.03183 16.5498C6.69556 18.2733 7.90254 19.7336 9.47016 20.71C6.88891 21.555 4.56641 23.1337 2.69891 25.3562C2.52818 25.5593 2.4451 25.8219 2.46796 26.0862C2.49081 26.3505 2.61773 26.5949 2.82078 26.7656C3.02384 26.9364 3.2864 27.0194 3.55071 26.9966C3.81502 26.9737 4.05943 26.8468 4.23016 26.6437C6.73891 23.6487 10.1964 22 13.9577 22C17.7189 22 21.1764 23.6487 23.6927 26.6437C23.8634 26.8468 24.1078 26.9737 24.3721 26.9966C24.6364 27.0194 24.899 26.9364 25.102 26.7656C25.3051 26.5949 25.432 26.3505 25.4549 26.0862C25.4777 25.8219 25.3946 25.5593 25.2239 25.3562C23.3552 23.1337 21.0327 21.555 18.4577 20.71ZM7.45766 13.5C7.45766 12.2144 7.83888 10.9577 8.55311 9.88879C9.26734 8.81987 10.2825 7.98675 11.4702 7.49478C12.6579 7.00281 13.9649 6.87409 15.2257 7.12489C16.4866 7.37569 17.6448 7.99476 18.5539 8.9038C19.4629 9.81284 20.082 10.971 20.3328 12.2319C20.5836 13.4928 20.4548 14.7997 19.9629 15.9874C19.4709 17.1752 18.6378 18.1903 17.5689 18.9045C16.4999 19.6188 15.2432 20 13.9577 20C12.2344 19.998 10.5822 19.3126 9.36366 18.094C8.1451 16.8754 7.45964 15.2233 7.45766 13.5ZM26.3777 8.19999C27.0903 9.87609 27.4576 11.6787 27.4576 13.5C27.4576 15.3213 27.0903 17.1239 26.3777 18.8C26.3007 18.9803 26.1725 19.134 26.0089 19.242C25.8454 19.35 25.6537 19.4075 25.4577 19.4075C25.2921 19.4076 25.1291 19.3667 24.9834 19.2883C24.8376 19.2099 24.7135 19.0965 24.6223 18.9584C24.5311 18.8202 24.4756 18.6616 24.4609 18.4967C24.4461 18.3319 24.4725 18.1659 24.5377 18.0137C25.1448 16.5863 25.4577 15.0511 25.4577 13.5C25.4577 11.9488 25.1448 10.4136 24.5377 8.98624C24.4334 8.74225 24.4303 8.46682 24.5291 8.22056C24.6279 7.9743 24.8205 7.77738 25.0645 7.67312C25.3085 7.56886 25.584 7.56579 25.8302 7.6646C26.0765 7.76341 26.2734 7.956 26.3777 8.19999ZM31.4577 13.5C31.4624 15.8701 30.9821 18.2161 30.0464 20.3937C29.937 20.6297 29.7399 20.8138 29.4969 20.9069C29.254 20.9999 28.9844 20.9947 28.7453 20.8922C28.5062 20.7897 28.3164 20.5981 28.2163 20.358C28.1161 20.1179 28.1135 19.8483 28.2089 19.6062C29.0329 17.6759 29.4577 15.5988 29.4577 13.5C29.4577 11.4012 29.0329 9.32406 28.2089 7.39374C28.1526 7.27237 28.1213 7.14094 28.1167 7.00723C28.1121 6.87351 28.1344 6.74024 28.1823 6.61531C28.2302 6.49037 28.3026 6.37631 28.3953 6.27988C28.4881 6.18345 28.5992 6.10661 28.7222 6.0539C28.8452 6.0012 28.9775 5.97371 29.1112 5.97306C29.245 5.97241 29.3776 5.99861 29.5011 6.05012C29.6245 6.10162 29.7364 6.17738 29.8301 6.2729C29.9238 6.36843 29.9973 6.48178 30.0464 6.60624C30.9821 8.78385 31.4624 11.1299 31.4577 13.5Z" fill="#646464"/>
</svg>
