<svg width="60" height="60" viewBox="0 0 60 60" fill="none" xmlns="http://www.w3.org/2000/svg">
<path d="M33.7499 38.8312C36.6892 37.0005 38.9523 34.2624 40.1968 31.0309C41.4412 27.7995 41.5995 24.2507 40.6474 20.9214C39.6954 17.592 37.6849 14.6633 34.9202 12.5784C32.1554 10.4934 28.7869 9.3656 25.3241 9.3656C21.8613 9.3656 18.4927 10.4934 15.728 12.5784C12.9633 14.6633 10.9528 17.592 10.0008 20.9214C9.04874 24.2507 9.20694 27.7995 10.4514 31.0309C11.6959 34.2624 13.959 37.0005 16.8983 38.8312C12.0585 40.4156 7.70379 43.3758 4.20222 47.5429C3.8821 47.9237 3.72633 48.416 3.76919 48.9116C3.81204 49.4071 4.05001 49.8654 4.43074 50.1855C4.81147 50.5056 5.30378 50.6614 5.79936 50.6186C6.29493 50.5757 6.75319 50.3377 7.07332 49.957C11.7772 44.3414 18.26 41.25 25.3124 41.25C32.3647 41.25 38.8475 44.3414 43.5655 49.957C43.8856 50.3377 44.3439 50.5757 44.8395 50.6186C45.335 50.6614 45.8274 50.5056 46.2081 50.1855C46.5888 49.8654 46.8268 49.4071 46.8696 48.9116C46.9125 48.416 46.7567 47.9237 46.4366 47.5429C42.9327 43.3758 38.578 40.4156 33.7499 38.8312ZM13.1249 25.3125C13.1249 22.902 13.8397 20.5457 15.1788 18.5415C16.518 16.5372 18.4215 14.9751 20.6484 14.0527C22.8754 13.1302 25.3259 12.8889 27.69 13.3592C30.0542 13.8294 32.2258 14.9902 33.9302 16.6946C35.6347 18.3991 36.7954 20.5707 37.2657 22.9348C37.736 25.299 37.4946 27.7495 36.5722 29.9764C35.6497 32.2034 34.0876 34.1068 32.0834 35.446C30.0792 36.7852 27.7228 37.5 25.3124 37.5C22.0812 37.4963 18.9834 36.211 16.6986 33.9262C14.4138 31.6414 13.1286 28.5437 13.1249 25.3125ZM48.5999 15.375C49.9361 18.5176 50.6248 21.8975 50.6248 25.3125C50.6248 28.7274 49.9361 32.1073 48.5999 35.25C48.4556 35.588 48.2152 35.8762 47.9085 36.0787C47.6018 36.2812 47.2424 36.3891 46.8749 36.389C46.5645 36.3893 46.2589 36.3125 45.9856 36.1655C45.7122 36.0185 45.4796 35.806 45.3086 35.547C45.1376 35.2879 45.0336 34.9905 45.0059 34.6814C44.9782 34.3722 45.0277 34.0611 45.1499 33.7758C46.2882 31.0994 46.8749 28.2209 46.8749 25.3125C46.8749 22.4041 46.2882 19.5256 45.1499 16.8492C44.9544 16.3917 44.9486 15.8753 45.1339 15.4135C45.3192 14.9518 45.6803 14.5826 46.1378 14.3871C46.5953 14.1916 47.1117 14.1858 47.5734 14.3711C48.0352 14.5564 48.4044 14.9175 48.5999 15.375ZM58.1249 25.3125C58.1337 29.7564 57.2332 34.1552 55.4788 38.2383C55.2736 38.6808 54.904 39.0259 54.4485 39.2004C53.9931 39.3749 53.4875 39.365 53.0392 39.1729C52.5909 38.9807 52.2351 38.6214 52.0473 38.1713C51.8595 37.7211 51.8546 37.2155 52.0335 36.7617C53.5784 33.1424 54.3749 29.2478 54.3749 25.3125C54.3749 21.3772 53.5784 17.4826 52.0335 13.8633C51.9279 13.6357 51.8691 13.3892 51.8606 13.1385C51.852 12.8878 51.8938 12.6379 51.9836 12.4037C52.0733 12.1694 52.2091 11.9556 52.383 11.7748C52.5569 11.594 52.7653 11.4499 52.9959 11.3511C53.2264 11.2522 53.4745 11.2007 53.7254 11.1995C53.9762 11.1983 54.2248 11.2474 54.4563 11.344C54.6878 11.4405 54.8976 11.5826 55.0732 11.7617C55.2489 11.9408 55.3868 12.1533 55.4788 12.3867C57.2332 16.4697 58.1337 20.8685 58.1249 25.3125Z" fill="#C6007E"/>
</svg>
