<svg width="17" height="21" viewBox="0 0 17 21" fill="none" xmlns="http://www.w3.org/2000/svg">
<path d="M16.7806 6.21938L11.5306 0.969375C11.4609 0.899749 11.3782 0.844539 11.2871 0.806898C11.1961 0.769257 11.0985 0.749923 11 0.75H2C1.60218 0.75 1.22064 0.908035 0.93934 1.18934C0.658035 1.47064 0.5 1.85218 0.5 2.25V18.75C0.5 19.1478 0.658035 19.5294 0.93934 19.8107C1.22064 20.092 1.60218 20.25 2 20.25H15.5C15.8978 20.25 16.2794 20.092 16.5607 19.8107C16.842 19.5294 17 19.1478 17 18.75V6.75C17.0001 6.65148 16.9807 6.55391 16.9431 6.46286C16.9055 6.37182 16.8503 6.28908 16.7806 6.21938ZM11.75 3.31031L14.4397 6H11.75V3.31031ZM15.5 18.75H2V2.25H10.25V6.75C10.25 6.94891 10.329 7.13968 10.4697 7.28033C10.6103 7.42098 10.8011 7.5 11 7.5H15.5V18.75ZM12.5 11.25C12.5 11.4489 12.421 11.6397 12.2803 11.7803C12.1397 11.921 11.9489 12 11.75 12H5.75C5.55109 12 5.36032 11.921 5.21967 11.7803C5.07902 11.6397 5 11.4489 5 11.25C5 11.0511 5.07902 10.8603 5.21967 10.7197C5.36032 10.579 5.55109 10.5 5.75 10.5H11.75C11.9489 10.5 12.1397 10.579 12.2803 10.7197C12.421 10.8603 12.5 11.0511 12.5 11.25ZM12.5 14.25C12.5 14.4489 12.421 14.6397 12.2803 14.7803C12.1397 14.921 11.9489 15 11.75 15H5.75C5.55109 15 5.36032 14.921 5.21967 14.7803C5.07902 14.6397 5 14.4489 5 14.25C5 14.0511 5.07902 13.8603 5.21967 13.7197C5.36032 13.579 5.55109 13.5 5.75 13.5H11.75C11.9489 13.5 12.1397 13.579 12.2803 13.7197C12.421 13.8603 12.5 14.0511 12.5 14.25Z" fill="#C6007E"/>
</svg>
